{
.appVersion = "3133";
.formatVersion = 3;
DisplayStrings = (
"AǺÆBCDEƏFGHĦIJKLŁMNŊOØȬŒPÞQRSẞTUVWXYZaǻæbcdðđeəfghħiıĭȉïỉȋīĩjȷkĸlłmnŋoøȭœpþqrsßtŧuvwxyzf/f_f/f_f_i/f_f_l ﬁﬂªº0123456789¹²³⁴⁄/.notdef ⟨⟩.,!¡?¿*#///backslash -–—_(){}[]‘’«‹›ƒ@&¶§©®™°′|¦†‡№₵¢₡¤S$₫€₣₲₭₤₺₼₦₧₱₽₹£¥∙⁒∕+−×÷=≠><≥≤±≈~¬^µ%‰/brevecomb_acutecomb/brevecomb_gravecomb/brevecomb_hookabovecomb/brevecomb_tildecomb/circumflexcomb_acutecomb/circumflexcomb_gravecomb/circumflexcomb_hookabovecomb/circumflexcomb_tildecomb ̈̇̀́̋/caroncomb.alt ̵̧̨̛̣̤̦̂̌̆̊̃̄̉̏̑̒/dieresiscomb.case/dotaccentcomb.case/gravecomb.case/acutecomb.case/hungarumlautcomb.case/caroncomb.alt.case/circumflexcomb.case/circumflexcomb_gravecomb.case/circumflexcomb_acutecomb.case/circumflexcomb_tildecomb.case/circumflexcomb_hookabovecomb.case/caroncomb.case/brevecomb.case/brevecomb_gravecomb.case/brevecomb_acutecomb.case/brevecomb_tildecomb.case/brevecomb_hookabovecomb.case/ringcomb.case/tildecomb.case/macroncomb.case/hookabovecomb.case/dblgravecomb.case/breveinvertedcomb.case/horncomb.case ʹ",
"₽",
"£",
"VWXY₩089xBN",
">",
"",
M,
ALPHABETTES,
"™/circumflexcomb_hookabovecomb",
"«»₩"
);
axes = (
{
name = Weight;
tag = wght;
}
);
classes = (
{
automatic = 1;

glyphs = (
{
glyphname = A;
kernLeft = A;
kernRight = A;
lastChange = "2022-07-15 12:23:00 +0000";
layers = (
{
anchors = (
{
name = bottom;
pos = (135,0);
},
{
name = top;
pos = (138,700);
}
);
attr = {
color = "1";
};
layerId = "33AE93C6-B8B3-427A-A53B-F24970E840CE";
shapes = (
{
attr = {
gradient = {
colors = (
(
(64,255),
0
),
(
(191,255),
1
)
);
end = (0.5074,0.9658);
start = (0.6091,0.0797);
};
};
closed = 1;
nodes = (
(77,0,l),
(77,700,l),
(76,700,l),
(53,677,l),
(53,0,l)
);
},
{
attr = {
gradient = {
colors = (
(
(64,255),
0
),
(
(191,255),
1
)
);
end = (0.08,0.5878);
start = (0.8784,0.5375);
};
};
closed = 1;
nodes = (
(196,353,l),
(196,377,l),
(77,377,l),
(77,353,l)
);
},
{
attr = {
gradient = {
colors = (
(
(64,255),
0
),
(
(191,255),
1
)
);
end = (0.4707,0.0242);
start = (0.5491,0.9419);
};
};
closed = 1;
nodes = (
(220,0,l),
(220,676,l),
(196,676,l),
(196,0,l)
);
},
{
attr = {
gradient = {
colors = (
(
(64,255),
0
),
(
(191,255),
1
)
);
end = (0.8878,0.5878);
start = (0.0693,0.513);
};
};
closed = 1;
nodes = (
(220,676,l),
(220,677,l),
(197,700,l),
(77,700,l),
(77,676,l)
);
}
);
width = 273;
},
{
anchors = (
{
name = bottom;
pos = (462,0);
},
{
name = top;
pos = (446,730);
}
);
attr = {
color = "1";
};
layerId = "E87239EE-82B8-404C-B23A-53843E270889";
shapes = (
{
attr = {
gradient = {
colors = (
(
(64,255),
0
),
(
(191,255),
1
)
);
end = (0.7214,0.8968);
start = (0.4194,0.0327);
};
};
closed = 1;
nodes = (
(249,0,l),
(249,730,l),
(248,730,l),
(35,523,l),
(35,0,l)
);
},
{
attr = {
gradient = {
colors = (
(
(64,255),
0
),
(
(191,255),
1
)
);
end = (0.0383,0.0895);
start = (0.8943,0.4519);
};
};
closed = 1;
nodes = (
(598,193,l),
(598,397,l),
(249,397,l),
(249,193,l)
);
},
{
attr = {
gradient = {
colors = (
(
(64,255),
0
),
(
(191,255),
1
)
);
end = (0.5841,0.014);
start = (0.4648,0.9806);
};
};
closed = 1;
nodes = (
(812,0,l),
(812,526,l),
(598,526,l),
(598,0,l)
);
},
{
attr = {
gradient = {
colors = (
(
(64,255),
0
),
(
(191,255),
1
)
);
end = (0.8814,0.226);
start = (0.0812,0.4764);
};
};
closed = 1;
nodes = (
(812,526,l),
(812,527,l),
(650,730,l),
(249,730,l),
(249,526,l)
);
}
);
width = 847;
},
{
anchors = (
{
name = bottom;
pos = (462,0);
},
{
name = top;
pos = (486,730);
}
);
attr = {
color = "1";
};
layerId = m003;
shapes = (
{
attr = {
gradient = {
colors = (
(
(64,255),
0
),
(
(191,255),
1
)
);
end = (0.79,0.8959);
start = (0.4055,0.0144);
};
};
closed = 1;
nodes = (
(289,0,l),
(289,730,l),
(288,730,l),
(35,523,l),
(35,0,l)
);
},
{
attr = {
gradient = {
colors = (
(
(64,255),
0
),
(
(191,255),
1
)
);
end = (0.0383,0.0895);
start = (0.8943,0.4519);
};
};
closed = 1;
nodes = (
(638,173,l),
(638,417,l),
(289,417,l),
(289,173,l)
);
},
{
attr = {
gradient = {
colors = (
(
(64,255),
0
),
(
(191,255),
1
)
);
end = (0.4489,0.0368);
start = (0.4192,0.8964);
};
};
closed = 1;
nodes = (
(892,0,l),
(892,486,l),
(638,486,l),
(638,0,l)
);
},
{
attr = {
gradient = {
colors = (
(
(64,255),
0
),
(
(191,255),
1
)
);
end = (0.8814,0.226);
start = (0.0812,0.4764);
};
};
closed = 1;
nodes = (
(892,486,l),
(892,487,l),
(690,730,l),
(289,730,l),
(289,486,l)
);
}
);
width = 927;
},
{
anchors = (
{
name = bottom;
pos = (190,0);
},
{
name = top;
pos = (189,705);
}
);
attr = {
color = "1";
};
layerId = "B297D401-77A1-4CCB-A385-A5DBDDA4353D";
shapes = (
{
attr = {
gradient = {
colors = (
(
(64,255),
0
),
(
(191,255),
1
)
);
end = (0.5074,0.9658);
start = (0.6091,0.0797);
};
};
closed = 1;
nodes = (
(106,0,l),
(106,705,l),
(105,705,l),
(50,651,l),
(50,0,l)
);
},
{
attr = {
gradient = {
colors = (
(
(64,255),
0
),
(
(191,255),
1
)
);
end = (0.081,0.4006);
start = (0.895,0.4554);
};
};
closed = 1;
nodes = (
(263,326,l),
(263,380,l),
(106,380,l),
(106,326,l)
);
},
{
attr = {
gradient = {
colors = (
(
(64,255),
0
),
(
(191,255),
1
)
);
end = (0.4707,0.0242);
start = (0.5491,0.9419);
};
};
closed = 1;
nodes = (
(319,0,l),
(319,651,l),
(263,651,l),
(263,0,l)
);
},
{
attr = {
gradient = {
colors = (
(
(64,255),
0
),
(
(191,255),
1
)
);
end = (0.8878,0.5878);
start = (0.0693,0.513);
};
};
closed = 1;
nodes = (
(319,651,l),
(319,652,l),
(273,705,l),
(106,705,l),
(106,651,l)
);
}
);
width = 368.66667;
},
{
anchors = (
{
name = bottom;
pos = (244,0);
},
{
name = top;
pos = (240,710);
}
);
attr = {
color = "1";
};
layerId = "68348742-A108-42ED-B86C-DC367B3F2871";
shapes = (
{
attr = {
gradient = {
colors = (
(
(64,255),
0
),
(
(191,255),
1
)
);
end = (0.7214,0.8968);
start = (0.4194,0.0327);
};
};
closed = 1;
nodes = (
(135,0,l),
(135,710,l),
(134,710,l),
(47,625,l),
(47,0,l)
);
},
{
attr = {
gradient = {
colors = (
(
(64,255),
0
),
(
(191,255),
1
)
);
end = (0.0383,0.0895);
start = (0.8943,0.4519);
};
};
closed = 1;
nodes = (
(330,299,l),
(330,383,l),
(135,383,l),
(135,299,l)
);
},
{
attr = {
gradient = {
colors = (
(
(64,255),
0
),
(
(191,255),
1
)
);
end = (0.5841,0.014);
start = (0.4648,0.9806);
};
};
closed = 1;
nodes = (
(418,0,l),
(418,626,l),
(330,626,l),
(330,0,l)
);
},
{
attr = {
gradient = {
colors = (
(
(64,255),
0
),
(
(191,255),
1
)
);
end = (0.8814,0.226);
start = (0.0812,0.4764);
};
};
closed = 1;
nodes = (
(418,626,l),
(418,627,l),
(348,710,l),
(135,710,l),
(135,626,l)
);
}
);
width = 464.33333;
},
{
anchors = (
{
name = bottom;
pos = (299,0);
},
{
name = top;
pos = (292,715);
}
);
attr = {
color = "1";
};
layerId = "0A98D1B9-7B82-4B4E-AB5F-E1C30C6E6C41";
shapes = (
{
attr = {
gradient = {
colors = (
(
(64,255),
0
),
(
(191,255),
1
)
);
end = (0.7214,0.8968);
start = (0.4194,0.0327);
};
};
closed = 1;
nodes = (
(164,0,l),
(164,715,l),
(163,715,l),
(44,600,l),
(44,0,l)
);
},
{
attr = {
gradient = {
colors = (
(
(64,255),
0
),
(
(191,255),
1
)
);
end = (0.0383,0.0895);
start = (0.8943,0.4519);
};
};
closed = 1;
nodes = (
(397,273,l),
(397,387,l),
(164,387,l),
(164,273,l)
);
},
{
attr = {
gradient = {
colors = (
(
(64,255),
0
),
(
(191,255),
1
)
);
end = (0.5841,0.014);
start = (0.4648,0.9806);
};
};
closed = 1;
nodes = (
(517,0,l),
(517,601,l),
(397,601,l),
(397,0,l)
);
},
{
attr = {
gradient = {
colors = (
(
(64,255),
0
),
(
(191,255),
1
)
);
end = (0.8814,0.226);
start = (0.0812,0.4764);
};
};
closed = 1;
nodes = (
(517,601,l),
(517,602,l),
(424,715,l),
(164,715,l),
(164,601,l)
);
}
);
width = 560;
},
{
anchors = (
{
name = bottom;
pos = (326,0);
},
{
name = top;
pos = (318,718);
}
);
attr = {
color = "1";
};
layerId = "7599F073-2954-4FFC-B8EF-B2010DD53262";
shapes = (
{
attr = {
gradient = {
colors = (
(
(64,255),
0
),
(
(191,255),
1
)
);
end = (0.7214,0.8968);
start = (0.4194,0.0327);
};
};
closed = 1;
nodes = (
(178,0,l),
(178,718,l),
(177,718,l),
(43,587,l),
(43,0,l)
);
},
{
attr = {
gradient = {
colors = (
(
(64,255),
0
),
(
(191,255),
1
)
);
end = (0.0383,0.0895);
start = (0.8943,0.4519);
};
};
closed = 1;
nodes = (
(431,260,l),
(431,389,l),
(178,389,l),
(178,260,l)
);
},
{
attr = {
gradient = {
colors = (
(
(64,255),
0
),
(
(191,255),
1
)
);
end = (0.5841,0.014);
start = (0.4648,0.9806);
};
};
closed = 1;
nodes = (
(566,0,l),
(566,589,l),
(431,589,l),
(431,0,l)
);
},
{
attr = {
gradient = {
colors = (
(
(64,255),
0
),
(
(191,255),
1
)
);
end = (0.8814,0.226);
start = (0.0812,0.4764);
};
};
closed = 1;
nodes = (
(566,589,l),
(566,590,l),
(462,718,l),
(178,718,l),
(178,589,l)
);
}
);
width = 607.83333;
},
{
anchors = (
{
name = bottom;
pos = (380,0);
},
{
name = top;
pos = (369,723);
}
);
attr = {
color = "1";
};
layerId = "5E49A2BD-5AA6-4751-9DCC-F05514CFF0B0";
shapes = (
{
attr = {
gradient = {
colors = (
(
(64,255),
0
),
(
(191,255),
1
)
);
end = (0.7214,0.8968);
start = (0.4194,0.0327);
};
};
closed = 1;
nodes = (
(206,0,l),
(206,723,l),
(205,723,l),
(40,561,l),
(40,0,l)
);
},
{
attr = {
gradient = {
colors = (
(
(64,255),
0
),
(
(191,255),
1
)
);
end = (0.0383,0.0895);
start = (0.8943,0.4519);
};
};
closed = 1;
nodes = (
(498,233,l),
(498,392,l),
(206,392,l),
(206,233,l)
);
},
{
attr = {
gradient = {
colors = (
(
(64,255),
0
),
(
(191,255),
1
)
);
end = (0.5841,0.014);
start = (0.4648,0.9806);
};
};
closed = 1;
nodes = (
(664,0,l),
(664,564,l),
(498,564,l),
(498,0,l)
);
},
{
attr = {
gradient = {
colors = (
(
(64,255),
0
),
(
(191,255),
1
)
);
end = (0.8814,0.226);
start = (0.0812,0.4764);
};
};
closed = 1;
nodes = (
(664,564,l),
(664,565,l),
(537,723,l),
(206,723,l),
(206,564,l)
);
}
);
width = 703.5;
}
);
unicode = 65;
},
{
glyphname = Aringacute;
kernLeft = A;
kernRight = A;
lastChange = "2022-07-15 12:10:08 +0000";
layers = (
{
attr = {
color = "1";
};
layerId = "33AE93C6-B8B3-427A-A53B-F24970E840CE";
shapes = (
{
attr = {
gradient = {
colors = (
(
(191,255),
0
),
(
(64,255),
1
)
);
end = (0.098,0.0553);
start = (0.8835,0.9295);
};
identifier = ID0x60000019dc00;
};
closed = 1;
nodes = (
(139,840,l),
(177,899,l),
(177,900,l),
(148,900,l),
(118,840,l)
);
},
{
ref = A;
},
{
attr = {
gradient = {
colors = (
(
(191,255),
0
),
(
(64,255),
1
)
);
end = (0.8878,0.5878);
start = (0.1193,0.7671);
};
identifier = ID0x60000019dce0;
};
closed = 1;
nodes = (
(160,737,l),
(160,758,l),
(94,758,l),
(94,757,l),
(112,737,l)
);
},
{
attr = {
gradient = {
colors = (
(
(64,255),
0
),
(
(191,255),
1
)
);
end = (0.7972,0.8618);
start = (0.4355,0.0498);
};
identifier = ID0x60000019dce0;
};
closed = 1;
nodes = (
(115,758,l),
(115,821,l),
(114,821,l),
(94,803,l),
(94,758,l)
);
},
{
attr = {
gradient = {
colors = (
(
(64,255),
0
),
(
(191,255),
1
)
);
end = (0.1914,0.1245);
start = (0.4192,0.8964);
};
identifier = ID0x60000019dce0;
};
closed = 1;
nodes = (
(161,737,l),
(181,755,l),
(181,800,l),
(160,800,l),
(160,737,l)
);
},
{
attr = {
gradient = {
colors = (
(
(64,255),
0
),
(
(191,255),
1
)
);
end = (0.8685,0.2912);
start = (0.0693,0.513);
};
identifier = ID0x60000019dce0;
};
closed = 1;
nodes = (
(181,800,l),
(181,801,l),
(163,821,l),
(115,821,l),
(115,800,l)
);
}
);
width = 273;
},
{
attr = {
color = "1";
};
layerId = "E87239EE-82B8-404C-B23A-53843E270889";
shapes = (
{
attr = {
gradient = {
colors = (
(
(191,255),
0
),
(
(64,255),
1
)
);
end = (0.0479,0.095);
start = (0.894,0.917);
};
identifier = ID0x600000627aa0;
};
closed = 1;
nodes = (
(509,939,l),
(654,1028,l),
(654,1029,l),
(448,1029,l),
(393,939,l)
);
},
{
ref = A;
},
{
attr = {
gradient = {
colors = (
(
(191,255),
0
),
(
(64,255),
1
)
);
end = (0.9212,0.4528);
start = (0.1097,0.8239);
};
identifier = ID0x6000006279c0;
};
closed = 1;
nodes = (
(539,751,l),
(539,818,l),
(304,818,l),
(304,817,l),
(364,751,l)
);
},
{
attr = {
gradient = {
colors = (
(
(64,255),
0
),
(
(191,255),
1
)
);
end = (0.9124,0.7739);
start = (0.3143,0.0937);
};
identifier = ID0x6000006279c0;
};
closed = 1;
nodes = (
(385,818,l),
(385,914,l),
(384,914,l),
(304,852,l),
(304,818,l)
);
},
{
attr = {
gradient = {
colors = (
(
(64,255),
0
),
(
(191,255),
1
)
);
end = (0.1537,0.166);
start = (0.4192,0.8964);
};
identifier = ID0x6000006279c0;
};
closed = 1;
nodes = (
(540,751,l),
(620,807,l),
(620,845,l),
(539,845,l),
(539,751,l)
);
},
{
attr = {
gradient = {
colors = (
(
(64,255),
0
),
(
(191,255),
1
)
);
end = (0.8902,0.1783);
start = (0.0693,0.513);
};
identifier = ID0x6000006279c0;
};
closed = 1;
nodes = (
(620,845,l),
(620,846,l),
(560,914,l),
(385,914,l),
(385,845,l)
);
}
);
width = 907;
},
{
attr = {
color = "1";
};
layerId = m003;
shapes = (
{
attr = {
gradient = {
colors = (
(
(191,255),
0
),
(
(64,255),
1
)
);
end = (0.0479,0.095);
start = (0.9467,0.9402);
};
identifier = ID0x600000627aa0;
};
closed = 1;
nodes = (
(509,939,l),
(654,1028,l),
(654,1029,l),
(448,1029,l),
(393,939,l)
);
},
{
ref = A;
},
{
attr = {
gradient = {
colors = (
(
(191,255),
0
),
(
(64,255),
1
)
);
end = (0.8878,0.5878);
start = (0.0685,0.9017);
};
identifier = ID0x6000006279c0;
};
closed = 1;
nodes = (
(539,751,l),
(539,818,l),
(304,818,l),
(304,817,l),
(364,751,l)
);
},
{
attr = {
gradient = {
colors = (
(
(64,255),
0
),
(
(191,255),
1
)
);
end = (0.9072,0.8304);
start = (0.3309,0.0667);
};
identifier = ID0x6000006279c0;
};
closed = 1;
nodes = (
(385,818,l),
(385,914,l),
(384,914,l),
(304,852,l),
(304,818,l)
);
},
{
attr = {
gradient = {
colors = (
(
(64,255),
0
),
(
(191,255),
1
)
);
end = (0.1392,0.1551);
start = (0.4192,0.8964);
};
identifier = ID0x6000006279c0;
};
closed = 1;
nodes = (
(540,751,l),
(620,807,l),
(620,845,l),
(539,845,l),
(539,751,l)
);
},
{
attr = {
gradient = {
colors = (
(
(64,255),
0
),
(
(191,255),
1
)
);
end = (0.9153,0.2216);
start = (0.0693,0.513);
};
identifier = ID0x6000006279c0;
};
closed = 1;
nodes = (
(620,845,l),
(620,846,l),
(560,914,l),
(385,914,l),
(385,845,l)
);
}
);
width = 907;
},
{
attr = {
color = "1";
};
layerId = "B297D401-77A1-4CCB-A385-A5DBDDA4353D";
shapes = (
{
attr = {
gradient = {
colors = (
(
(191,255),
0
),
(
(64,255),
1
)
);
end = (0.098,0.0553);
start = (0.8835,0.9295);
};
identifier = ID0x60000019dc00;
};
closed = 1;
nodes = (
(201,857,l),
(257,921,l),
(257,922,l),
(198,922,l),
(164,857,l)
);
},
{
alignment = -1;
ref = A;
},
{
attr = {
gradient = {
colors = (
(
(191,255),
0
),
(
(64,255),
1
)
);
end = (0.8878,0.5878);
start = (0.1193,0.7671);
};
identifier = ID0x60000019dce0;
};
closed = 1;
nodes = (
(223,739,l),
(223,768,l),
(129,768,l),
(129,767,l),
(154,739,l)
);
},
{
attr = {
gradient = {
colors = (
(
(64,255),
0
),
(
(191,255),
1
)
);
end = (0.7972,0.8618);
start = (0.4355,0.0498);
};
identifier = ID0x60000019dce0;
};
closed = 1;
nodes = (
(160,768,l),
(160,837,l),
(159,837,l),
(129,811,l),
(129,768,l)
);
},
{
attr = {
gradient = {
colors = (
(
(64,255),
0
),
(
(191,255),
1
)
);
end = (0.1914,0.1245);
start = (0.4192,0.8964);
};
identifier = ID0x60000019dce0;
};
closed = 1;
nodes = (
(224,739,l),
(254,764,l),
(254,808,l),
(223,808,l),
(223,739,l)
);
},
{
attr = {
gradient = {
colors = (
(
(64,255),
0
),
(
(191,255),
1
)
);
end = (0.8685,0.2912);
start = (0.0693,0.513);
};
identifier = ID0x60000019dce0;
};
closed = 1;
nodes = (
(254,808,l),
(254,809,l),
(229,837,l),
(160,837,l),
(160,808,l)
);
}
);
width = 378.66667;
},
{
attr = {
color = "1";
};
layerId = "68348742-A108-42ED-B86C-DC367B3F2871";
shapes = (
{
attr = {
gradient = {
colors = (
(
(191,255),
0
),
(
(64,255),
1
)
);
end = (0.0479,0.095);
start = (0.894,0.917);
};
identifier = ID0x600000627aa0;
};
closed = 1;
nodes = (
(263,873,l),
(336,942,l),
(336,943,l),
(248,943,l),
(210,873,l)
);
},
{
alignment = -1;
ref = A;
},
{
attr = {
gradient = {
colors = (
(
(191,255),
0
),
(
(64,255),
1
)
);
end = (0.9212,0.4528);
start = (0.1097,0.8239);
};
identifier = ID0x6000006279c0;
};
closed = 1;
nodes = (
(286,741,l),
(286,778,l),
(164,778,l),
(164,777,l),
(196,741,l)
);
},
{
attr = {
gradient = {
colors = (
(
(64,255),
0
),
(
(191,255),
1
)
);
end = (0.9124,0.7739);
start = (0.3143,0.0937);
};
identifier = ID0x6000006279c0;
};
closed = 1;
nodes = (
(205,778,l),
(205,852,l),
(204,852,l),
(164,819,l),
(164,778,l)
);
},
{
attr = {
gradient = {
colors = (
(
(64,255),
0
),
(
(191,255),
1
)
);
end = (0.1537,0.166);
start = (0.4192,0.8964);
};
identifier = ID0x6000006279c0;
};
closed = 1;
nodes = (
(287,741,l),
(327,773,l),
(327,815,l),
(286,815,l),
(286,741,l)
);
},
{
attr = {
gradient = {
colors = (
(
(64,255),
0
),
(
(191,255),
1
)
);
end = (0.8902,0.1783);
start = (0.0693,0.513);
};
identifier = ID0x6000006279c0;
};
closed = 1;
nodes = (
(327,815,l),
(327,816,l),
(295,852,l),
(205,852,l),
(205,815,l)
);
}
);
width = 484.33333;
},
{
attr = {
color = "1";
};
layerId = "0A98D1B9-7B82-4B4E-AB5F-E1C30C6E6C41";
shapes = (
{
attr = {
gradient = {
colors = (
(
(191,255),
0
),
(
(64,255),
1
)
);
end = (0.0479,0.095);
start = (0.894,0.917);
};
identifier = ID0x600000627aa0;
};
closed = 1;
nodes = (
(325,890,l),
(416,964,l),
(416,965,l),
(298,965,l),
(256,890,l)
);
},
{
alignment = -1;
ref = A;
},
{
attr = {
gradient = {
colors = (
(
(191,255),
0
),
(
(64,255),
1
)
);
end = (0.9212,0.4528);
start = (0.1097,0.8239);
};
identifier = ID0x6000006279c0;
};
closed = 1;
nodes = (
(349,744,l),
(349,788,l),
(199,788,l),
(199,787,l),
(238,744,l)
);
},
{
attr = {
gradient = {
colors = (
(
(64,255),
0
),
(
(191,255),
1
)
);
end = (0.9124,0.7739);
start = (0.3143,0.0937);
};
identifier = ID0x6000006279c0;
};
closed = 1;
nodes = (
(250,788,l),
(250,868,l),
(249,868,l),
(199,827,l),
(199,788,l)
);
},
{
attr = {
gradient = {
colors = (
(
(64,255),
0
),
(
(191,255),
1
)
);
end = (0.1537,0.166);
start = (0.4192,0.8964);
};
identifier = ID0x6000006279c0;
};
closed = 1;
nodes = (
(350,744,l),
(400,782,l),
(400,823,l),
(349,823,l),
(349,744,l)
);
},
{
attr = {
gradient = {
colors = (
(
(64,255),
0
),
(
(191,255),
1
)
);
end = (0.8902,0.1783);
start = (0.0693,0.513);
};
identifier = ID0x6000006279c0;
};
closed = 1;
nodes = (
(400,823,l),
(400,824,l),
(361,868,l),
(250,868,l),
(250,823,l)
);
}
);
width = 590;
},
{
attr = {
color = "1";
};
layerId = "7599F073-2954-4FFC-B8EF-B2010DD53262";
shapes = (
{
attr = {
gradient = {
colors = (
(
(191,255),
0
),
(
(64,255),
1
)
);
end = (0.0479,0.095);
start = (0.894,0.917);
};
identifier = ID0x600000627aa0;
};
closed = 1;
nodes = (
(356,898,l),
(456,975,l),
(456,976,l),
(323,976,l),
(279,898,l)
);
},
{
alignment = -1;
ref = A;
},
{
attr = {
gradient = {
colors = (
(
(191,255),
0
),
(
(64,255),
1
)
);
end = (0.9212,0.4528);
start = (0.1097,0.8239);
};
identifier = ID0x6000006279c0;
};
closed = 1;
nodes = (
(381,745,l),
(381,793,l),
(217,793,l),
(217,792,l),
(259,745,l)
);
},
{
attr = {
gradient = {
colors = (
(
(64,255),
0
),
(
(191,255),
1
)
);
end = (0.9124,0.7739);
start = (0.3143,0.0937);
};
identifier = ID0x6000006279c0;
};
closed = 1;
nodes = (
(273,793,l),
(273,876,l),
(272,876,l),
(217,831,l),
(217,793,l)
);
},
{
attr = {
gradient = {
colors = (
(
(64,255),
0
),
(
(191,255),
1
)
);
end = (0.1537,0.166);
start = (0.4192,0.8964);
};
identifier = ID0x6000006279c0;
};
closed = 1;
nodes = (
(382,745,l),
(437,786,l),
(437,827,l),
(381,827,l),
(381,745,l)
);
},
{
attr = {
gradient = {
colors = (
(
(64,255),
0
),
(
(191,255),
1
)
);
end = (0.8902,0.1783);
start = (0.0693,0.513);
};
identifier = ID0x6000006279c0;
};
closed = 1;
nodes = (
(437,827,l),
(437,828,l),
(394,876,l),
(273,876,l),
(273,827,l)
);
}
);
width = 642.83333;
},
{
attr = {
color = "1";
};
layerId = "5E49A2BD-5AA6-4751-9DCC-F05514CFF0B0";
shapes = (
{
attr = {
gradient = {
colors = (
(
(191,255),
0
),
(
(64,255),
1
)
);
end = (0.0479,0.095);
start = (0.894,0.917);
};
identifier = ID0x600000627aa0;
};
closed = 1;
nodes = (
(417,914,l),
(535,996,l),
(535,997,l),
(373,997,l),
(325,914,l)
);
},
{
alignment = -1;
ref = A;
},
{
attr = {
gradient = {
colors = (
(
(191,255),
0
),
(
(64,255),
1
)
);
end = (0.9212,0.4528);
start = (0.1097,0.8239);
};
identifier = ID0x6000006279c0;
};
closed = 1;
nodes = (
(444,747,l),
(444,803,l),
(252,803,l),
(252,802,l),
(301,747,l)
);
},
{
attr = {
gradient = {
colors = (
(
(64,255),
0
),
(
(191,255),
1
)
);
end = (0.9124,0.7739);
start = (0.3143,0.0937);
};
identifier = ID0x6000006279c0;
};
closed = 1;
nodes = (
(318,803,l),
(318,891,l),
(317,891,l),
(252,839,l),
(252,803,l)
);
},
{
attr = {
gradient = {
colors = (
(
(64,255),
0
),
(
(191,255),
1
)
);
end = (0.1537,0.166);
start = (0.4192,0.8964);
};
identifier = ID0x6000006279c0;
};
closed = 1;
nodes = (
(445,747,l),
(510,794,l),
(510,834,l),
(444,834,l),
(444,747,l)
);
},
{
attr = {
gradient = {
colors = (
(
(64,255),
0
),
(
(191,255),
1
)
);
end = (0.8902,0.1783);
start = (0.0693,0.513);
};
identifier = ID0x6000006279c0;
};
closed = 1;
nodes = (
(510,834,l),
(510,835,l),
(460,891,l),
(318,891,l),
(318,834,l)
);
}
);
width = 748.5;
}
);
unicode = 506;
},
{
glyphname = AE;
kernLeft = A;
kernRight = E;
lastChange = "2022-07-15 12:56:05 +0000";
layers = (
{
anchors = (
{
name = top;
pos = (138,700);
}
);
attr = {
color = "1";
};
layerId = "33AE93C6-B8B3-427A-A53B-F24970E840CE";
shapes = (
{
attr = {
gradient = {
colors = (
(
(64,255),
0
),
(
(191,255),
1
)
);
end = (0.5074,0.9658);
start = (0.4884,0.0287);
};
};
closed = 1;
nodes = (
(77,0,l),
(77,700,l),
(76,700,l),
(53,677,l),
(53,0,l)
);
},
{
attr = {
gradient = {
colors = (
(
(64,255),
0
),
(
(191,255),
1
)
);
end = (0.1131,0.4794);
start = (0.8848,0.5435);
};
};
closed = 1;
nodes = (
(196,353,l),
(196,377,l),
(77,377,l),
(77,353,l)
);
},
{
attr = {
gradient = {
colors = (
(
(191,255),
0
),
(
(64,255),
1
)
);
end = (0.1579,0.5878);
start = (0.9155,0.5837);
};
};
closed = 1;
nodes = (
(363,0,l),
(363,24,l),
(196,24,l),
(196,23,l),
(220,0,l)
);
},
{
attr = {
gradient = {
colors = (
(
(64,255),
0
),
(
(191,255),
1
)
);
end = (0.5067,0.0149);
start = (0.5564,0.9658);
};
};
closed = 1;
nodes = (
(220,24,l),
(220,676,l),
(196,676,l),
(196,24,l)
);
},
{
attr = {
gradient = {
colors = (
(
(64,255),
0
),
(
(191,255),
1
)
);
end = (0.8875,0.2428);
start = (0.0693,0.513);
};
};
closed = 1;
nodes = (
(220,676,l),
(220,677,l),
(197,700,l),
(77,700,l),
(77,676,l)
);
},
{
attr = {
gradient = {
colors = (
(
(64,255),
0
),
(
(191,255),
1
)
);
end = (0.8878,0.5878);
start = (0.0693,0.513);
};
};
closed = 1;
nodes = (
(339,353,l),
(339,377,l),
(220,377,l),
(220,353,l)
);
},
{
attr = {
gradient = {
colors = (
(
(64,255),
0
),
(
(191,255),
1
)
);
end = (0.8878,0.5878);
start = (0.0878,0.6802);
};
};
closed = 1;
nodes = (
(340,676,l),
(363,699,l),
(363,700,l),
(197,700,l),
(220,676,l)
);
}
);
width = 383;
},
{
anchors = (
{
name = top;
pos = (486,730);
}
);
attr = {
color = "1";
};
layerId = "E87239EE-82B8-404C-B23A-53843E270889";
shapes = (
{
attr = {
gradient = {
colors = (
(
(64,255),
0
),
(
(191,255),
1
)
);
end = (0.9039,0.9423);
start = (0.6371,0.0178);
};
};
closed = 1;
nodes = (
(249,0,l),
(249,730,l),
(248,730,l),
(35,523,l),
(35,0,l)
);
},
{
attr = {
gradient = {
colors = (
(
(64,255),
0
),
(
(191,255),
1
)
);
end = (0.0383,0.0895);
start = (0.8133,0.0515);
};
};
closed = 1;
nodes = (
(621,173,l),
(558,377,l),
(249,377,l),
(249,173,l)
);
},
{
attr = {
gradient = {
colors = (
(
(191,255),
0
),
(
(64,255),
1
)
);
end = (0.0736,0.9321);
start = (0.9731,0.0568);
};
};
closed = 1;
nodes = (
(1245,0,l),
(1245,204,l),
(558,204,l),
(558,203,l),
(760,0,l)
);
},
{
attr = {
gradient = {
colors = (
(
(64,255),
0
),
(
(191,255),
1
)
);
end = (0.5796,0.0299);
start = (0.4922,0.9716);
};
};
closed = 1;
nodes = (
(772,204,l),
(772,526,l),
(558,526,l),
(558,204,l)
);
},
{
attr = {
gradient = {
colors = (
(
(64,255),
0
),
(
(191,255),
1
)
);
end = (0.8805,0.1543);
start = (0.0306,0.307);
};
};
closed = 1;
nodes = (
(772,526,l),
(772,527,l),
(610,730,l),
(249,730,l),
(249,526,l)
);
},
{
attr = {
gradient = {
colors = (
(
(64,255),
0
),
(
(191,255),
1
)
);
end = (0.926,0.8502);
start = (0.0825,0.1006);
};
};
closed = 1;
nodes = (
(1132,263,l),
(1132,467,l),
(772,467,l),
(772,263,l)
);
},
{
attr = {
gradient = {
colors = (
(
(64,255),
0
),
(
(191,255),
1
)
);
end = (0.8585,0.8442);
start = (0.0823,0.83);
};
};
closed = 1;
nodes = (
(1094,526,l),
(1296,729,l),
(1296,730,l),
(610,730,l),
(772,526,l)
);
}
);
width = 1276;
},
{
anchors = (
{
name = top;
pos = (486,730);
}
);
attr = {
color = "1";
};
layerId = m003;
shapes = (
{
attr = {
gradient = {
colors = (
(
(64,255),
0
),
(
(191,255),
1
)
);
end = (0.9039,0.9423);
start = (0.6371,0.0178);
};
};
closed = 1;
nodes = (
(289,0,l),
(289,730,l),
(288,730,l),
(35,523,l),
(35,0,l)
);
},
{
attr = {
gradient = {
colors = (
(
(64,255),
0
),
(
(191,255),
1
)
);
end = (0.0383,0.0895);
start = (0.8813,0.0608);
};
};
closed = 1;
nodes = (
(661,173,l),
(598,417,l),
(289,417,l),
(289,173,l)
);
},
{
attr = {
gradient = {
colors = (
(
(191,255),
0
),
(
(64,255),
1
)
);
end = (0.0952,0.8756);
start = (0.9731,0.0568);
};
};
closed = 1;
nodes = (
(1325,0,l),
(1325,244,l),
(598,244,l),
(598,243,l),
(800,0,l)
);
},
{
attr = {
gradient = {
colors = (
(
(64,255),
0
),
(
(191,255),
1
)
);
end = (0.9202,0.0835);
start = (0.0855,0.7853);
};
};
closed = 1;
nodes = (
(852,244,l),
(852,486,l),
(598,486,l),
(598,244,l)
);
},
{
attr = {
gradient = {
colors = (
(
(64,255),
0
),
(
(191,255),
1
)
);
end = (0.713,0.9264);
start = (0.0306,0.307);
};
};
closed = 1;
nodes = (
(852,486,l),
(852,487,l),
(650,730,l),
(289,730,l),
(289,486,l)
);
},
{
attr = {
gradient = {
colors = (
(
(64,255),
0
),
(
(191,255),
1
)
);
end = (0.926,0.8502);
start = (0.0825,0.1006);
};
};
closed = 1;
nodes = (
(1212,263,l),
(1212,467,l),
(852,467,l),
(852,263,l)
);
},
{
attr = {
gradient = {
colors = (
(
(64,255),
0
),
(
(191,255),
1
)
);
end = (0.8585,0.8442);
start = (0.1052,0.5322);
};
};
closed = 1;
nodes = (
(1174,486,l),
(1376,729,l),
(1376,730,l),
(650,730,l),
(852,486,l)
);
}
);
width = 1356;
},
{
anchors = (
{
name = top;
pos = (196,705);
}
);
attr = {
color = "1";
};
layerId = "B297D401-77A1-4CCB-A385-A5DBDDA4353D";
shapes = (
{
attr = {
gradient = {
colors = (
(
(64,255),
0
),
(
(191,255),
1
)
);
end = (0.5074,0.9658);
start = (0.6091,0.0797);
};
};
closed = 1;
nodes = (
(106,0,l),
(106,705,l),
(105,705,l),
(50,651,l),
(50,0,l)
);
},
{
attr = {
gradient = {
colors = (
(
(64,255),
0
),
(
(191,255),
1
)
);
end = (0.0913,0.4057);
start = (0.7791,0.6376);
};
};
closed = 1;
nodes = (
(256,323,l),
(256,377,l),
(106,377,l),
(106,323,l)
);
},
{
attr = {
gradient = {
colors = (
(
(191,255),
0
),
(
(64,255),
1
)
);
end = (0.139,0.7571);
start = (0.9336,0.5043);
};
};
closed = 1;
nodes = (
(510,0,l),
(510,54,l),
(256,54,l),
(256,53,l),
(310,0,l)
);
},
{
attr = {
gradient = {
colors = (
(
(64,255),
0
),
(
(191,255),
1
)
);
end = (0.5067,0.0149);
start = (0.5564,0.9658);
};
};
closed = 1;
nodes = (
(312,54,l),
(312,651,l),
(256,651,l),
(256,54,l)
);
},
{
attr = {
gradient = {
colors = (
(
(64,255),
0
),
(
(191,255),
1
)
);
end = (0.8875,0.2428);
start = (0.0693,0.513);
};
};
closed = 1;
nodes = (
(312,651,l),
(312,652,l),
(266,705,l),
(106,705,l),
(106,651,l)
);
},
{
attr = {
gradient = {
colors = (
(
(64,255),
0
),
(
(191,255),
1
)
);
end = (0.8878,0.5878);
start = (0.0693,0.513);
};
};
closed = 1;
nodes = (
(471,338,l),
(471,392,l),
(312,392,l),
(312,338,l)
);
},
{
attr = {
gradient = {
colors = (
(
(64,255),
0
),
(
(191,255),
1
)
);
end = (0.8878,0.5878);
start = (0.0878,0.6802);
};
};
closed = 1;
nodes = (
(466,651,l),
(519,704,l),
(519,705,l),
(266,705,l),
(312,651,l)
);
}
);
width = 531.83333;
},
{
anchors = (
{
name = top;
pos = (254,710);
}
);
attr = {
color = "1";
};
layerId = "68348742-A108-42ED-B86C-DC367B3F2871";
shapes = (
{
attr = {
gradient = {
colors = (
(
(64,255),
0
),
(
(191,255),
1
)
);
end = (0.9039,0.9423);
start = (0.6371,0.0178);
};
};
closed = 1;
nodes = (
(135,0,l),
(135,710,l),
(134,710,l),
(47,625,l),
(47,0,l)
);
},
{
attr = {
gradient = {
colors = (
(
(64,255),
0
),
(
(191,255),
1
)
);
end = (0.0383,0.0895);
start = (0.8081,0.175);
};
};
closed = 1;
nodes = (
(316,293,l),
(316,377,l),
(135,377,l),
(135,293,l)
);
},
{
attr = {
gradient = {
colors = (
(
(191,255),
0
),
(
(64,255),
1
)
);
end = (0.0977,0.8192);
start = (0.9731,0.0568);
};
};
closed = 1;
nodes = (
(657,0,l),
(657,84,l),
(316,84,l),
(316,83,l),
(400,0,l)
);
},
{
attr = {
gradient = {
colors = (
(
(64,255),
0
),
(
(191,255),
1
)
);
end = (0.5796,0.0299);
start = (0.4922,0.9716);
};
};
closed = 1;
nodes = (
(404,84,l),
(404,626,l),
(316,626,l),
(316,84,l)
);
},
{
attr = {
gradient = {
colors = (
(
(64,255),
0
),
(
(191,255),
1
)
);
end = (0.8805,0.1543);
start = (0.0306,0.307);
};
};
closed = 1;
nodes = (
(404,626,l),
(404,627,l),
(335,710,l),
(135,710,l),
(135,626,l)
);
},
{
attr = {
gradient = {
colors = (
(
(64,255),
0
),
(
(191,255),
1
)
);
end = (0.926,0.8502);
start = (0.0825,0.1006);
};
};
closed = 1;
nodes = (
(603,323,l),
(603,407,l),
(404,407,l),
(404,323,l)
);
},
{
attr = {
gradient = {
colors = (
(
(64,255),
0
),
(
(191,255),
1
)
);
end = (0.8585,0.8442);
start = (0.0823,0.83);
};
};
closed = 1;
nodes = (
(592,626,l),
(674,709,l),
(674,710,l),
(335,710,l),
(404,626,l)
);
}
);
width = 680;
},
{
anchors = (
{
name = top;
pos = (312,715);
}
);
attr = {
color = "1";
};
layerId = "0A98D1B9-7B82-4B4E-AB5F-E1C30C6E6C41";
shapes = (
{
attr = {
gradient = {
colors = (
(
(64,255),
0
),
(
(191,255),
1
)
);
end = (0.9039,0.9423);
start = (0.6371,0.0178);
};
};
closed = 1;
nodes = (
(164,0,l),
(164,715,l),
(163,715,l),
(44,600,l),
(44,0,l)
);
},
{
attr = {
gradient = {
colors = (
(
(64,255),
0
),
(
(191,255),
1
)
);
end = (0.0383,0.0895);
start = (0.8133,0.0515);
};
};
closed = 1;
nodes = (
(377,263,l),
(377,377,l),
(164,377,l),
(164,263,l)
);
},
{
attr = {
gradient = {
colors = (
(
(191,255),
0
),
(
(64,255),
1
)
);
end = (0.0736,0.9321);
start = (0.9731,0.0568);
};
};
closed = 1;
nodes = (
(804,0,l),
(804,114,l),
(377,114,l),
(377,113,l),
(490,0,l)
);
},
{
attr = {
gradient = {
colors = (
(
(64,255),
0
),
(
(191,255),
1
)
);
end = (0.5796,0.0299);
start = (0.4922,0.9716);
};
};
closed = 1;
nodes = (
(496,114,l),
(496,601,l),
(377,601,l),
(377,114,l)
);
},
{
attr = {
gradient = {
colors = (
(
(64,255),
0
),
(
(191,255),
1
)
);
end = (0.8805,0.1543);
start = (0.0306,0.307);
};
};
closed = 1;
nodes = (
(496,601,l),
(496,602,l),
(404,715,l),
(164,715,l),
(164,601,l)
);
},
{
attr = {
gradient = {
colors = (
(
(64,255),
0
),
(
(191,255),
1
)
);
end = (0.926,0.8502);
start = (0.0825,0.1006);
};
};
closed = 1;
nodes = (
(735,308,l),
(735,422,l),
(496,422,l),
(496,308,l)
);
},
{
attr = {
gradient = {
colors = (
(
(64,255),
0
),
(
(191,255),
1
)
);
end = (0.8585,0.8442);
start = (0.0823,0.83);
};
};
closed = 1;
nodes = (
(718,601,l),
(830,714,l),
(830,715,l),
(404,715,l),
(496,601,l)
);
}
);
width = 829.5;
},
{
anchors = (
{
name = top;
pos = (341,718);
}
);
attr = {
color = "1";
};
layerId = "7599F073-2954-4FFC-B8EF-B2010DD53262";
shapes = (
{
attr = {
gradient = {
colors = (
(
(64,255),
0
),
(
(191,255),
1
)
);
end = (0.9039,0.9423);
start = (0.6371,0.0178);
};
};
closed = 1;
nodes = (
(178,0,l),
(178,718,l),
(177,718,l),
(43,587,l),
(43,0,l)
);
},
{
attr = {
gradient = {
colors = (
(
(64,255),
0
),
(
(191,255),
1
)
);
end = (0.0383,0.0895);
start = (0.8133,0.0515);
};
};
closed = 1;
nodes = (
(444,248,l),
(407,377,l),
(178,377,l),
(178,248,l)
);
},
{
attr = {
gradient = {
colors = (
(
(191,255),
0
),
(
(64,255),
1
)
);
end = (0.0736,0.9321);
start = (0.9731,0.0568);
};
};
closed = 1;
nodes = (
(878,0,l),
(878,129,l),
(407,129,l),
(407,128,l),
(535,0,l)
);
},
{
attr = {
gradient = {
colors = (
(
(64,255),
0
),
(
(191,255),
1
)
);
end = (0.5796,0.0299);
start = (0.4922,0.9716);
};
};
closed = 1;
nodes = (
(542,129,l),
(542,589,l),
(407,589,l),
(407,129,l)
);
},
{
attr = {
gradient = {
colors = (
(
(64,255),
0
),
(
(191,255),
1
)
);
end = (0.8805,0.1543);
start = (0.0306,0.307);
};
};
closed = 1;
nodes = (
(542,589,l),
(542,590,l),
(438,718,l),
(178,718,l),
(178,589,l)
);
},
{
attr = {
gradient = {
colors = (
(
(64,255),
0
),
(
(191,255),
1
)
);
end = (0.926,0.8502);
start = (0.0825,0.1006);
};
};
closed = 1;
nodes = (
(801,301,l),
(801,430,l),
(542,430,l),
(542,301,l)
);
},
{
attr = {
gradient = {
colors = (
(
(64,255),
0
),
(
(191,255),
1
)
);
end = (0.8585,0.8442);
start = (0.0823,0.83);
};
};
closed = 1;
nodes = (
(781,589,l),
(908,717,l),
(908,718,l),
(438,718,l),
(542,589,l)
);
}
);
width = 903.91667;
},
{
anchors = (
{
name = top;
pos = (399,723);
}
);
attr = {
color = "1";
};
layerId = "5E49A2BD-5AA6-4751-9DCC-F05514CFF0B0";
shapes = (
{
attr = {
gradient = {
colors = (
(
(64,255),
0
),
(
(191,255),
1
)
);
end = (0.9039,0.9423);
start = (0.6371,0.0178);
};
};
closed = 1;
nodes = (
(206,0,l),
(206,723,l),
(205,723,l),
(40,561,l),
(40,0,l)
);
},
{
attr = {
gradient = {
colors = (
(
(64,255),
0
),
(
(191,255),
1
)
);
end = (0.0383,0.0895);
start = (0.8133,0.0515);
};
};
closed = 1;
nodes = (
(515,218,l),
(467,377,l),
(206,377,l),
(206,218,l)
);
},
{
attr = {
gradient = {
colors = (
(
(191,255),
0
),
(
(64,255),
1
)
);
end = (0.0736,0.9321);
start = (0.9731,0.0568);
};
};
closed = 1;
nodes = (
(1025,0,l),
(1025,159,l),
(467,159,l),
(467,158,l),
(625,0,l)
);
},
{
attr = {
gradient = {
colors = (
(
(64,255),
0
),
(
(191,255),
1
)
);
end = (0.5796,0.0299);
start = (0.4922,0.9716);
};
};
closed = 1;
nodes = (
(634,159,l),
(634,564,l),
(467,564,l),
(467,159,l)
);
},
{
attr = {
gradient = {
colors = (
(
(64,255),
0
),
(
(191,255),
1
)
);
end = (0.8805,0.1543);
start = (0.0306,0.307);
};
};
closed = 1;
nodes = (
(634,564,l),
(634,565,l),
(507,723,l),
(206,723,l),
(206,564,l)
);
},
{
attr = {
gradient = {
colors = (
(
(64,255),
0
),
(
(191,255),
1
)
);
end = (0.926,0.8502);
start = (0.0825,0.1006);
};
};
closed = 1;
nodes = (
(933,286,l),
(933,445,l),
(634,445,l),
(634,286,l)
);
},
{
attr = {
gradient = {
colors = (
(
(64,255),
0
),
(
(191,255),
1
)
);
end = (0.8585,0.8442);
start = (0.0823,0.83);
};
};
closed = 1;
nodes = (
(906,564,l),
(1063,722,l),
(1063,723,l),
(507,723,l),
(634,564,l)
);
}
);
width = 1052.75;
}
);
metricLeft = A;
metricRight = E;
unicode = 198;
},
{
glyphname = B;
kernLeft = H;
kernRight = B;
lastChange = "2022-07-15 12:10:08 +0000";
layers = (
{
attr = {
color = "1";
};
layerId = "33AE93C6-B8B3-427A-A53B-F24970E840CE";
shapes = (
{
attr = {
gradient = {
colors = (
(
(64,255),
0
),
(
(191,255),
1
)
);
end = (0.0372,0.5775);
start = (0.9225,0.2287);
};
};
closed = 1;
nodes = (
(226,0,l),
(226,24,l),
(53,24,l),
(53,0,l)
);
},
{
attr = {
gradient = {
colors = (
(
(64,255),
0
),
(
(191,255),
1
)
);
end = (0.4877,0.9217);
start = (0.6258,0.0095);
};
};
closed = 1;
nodes = (
(77,24,l),
(77,700,l),
(53,700,l),
(53,24,l)
);
},
{
attr = {
gradient = {
colors = (
(
(64,255),
0
),
(
(191,255),
1
)
);
end = (0.2671,0.5486);
start = (0.937,0.3463);
};
};
closed = 1;
nodes = (
(226,353,l),
(226,377,l),
(152,377,l),
(54,377,l),
(77,353,l)
);
},
{
attr = {
gradient = {
colors = (
(
(64,255),
0
),
(
(128,255),
1
)
);
end = (0.7785,0.8588);
start = (0.0992,0.2024);
};
};
closed = 1;
nodes = (
(152,676,l),
(152,700,l),
(77,700,l),
(77,676,l)
);
},
{
attr = {
gradient = {
colors = (
(
(191,255),
0
),
(
(64,255),
1
)
);
end = (0.5152,0.0336);
start = (0.4447,0.6672);
};
};
closed = 1;
nodes = (
(176,677,l),
(153,700,l),
(152,700,l),
(152,377,l),
(166,377,l),
(176,377,l)
);
},
{
attr = {
gradient = {
colors = (
(
(191,255),
0
),
(
(64,255),
1
)
);
end = (0.5245,0.827);
start = (0.2492,0.0773);
};
};
closed = 1;
nodes = (
(227,0,l),
(250,23,l),
(250,354,l),
(227,377,l),
(226,377,l),
(226,0,l)
);
}
);
width = 283;
},
{
attr = {
color = "1";
};
layerId = "E87239EE-82B8-404C-B23A-53843E270889";
shapes = (
{
attr = {
gradient = {
colors = (
(
(64,255),
0
),
(
(191,255),
1
)
);
end = (0.1636,0.9263);
start = (0.9036,0.1581);
};
};
closed = 1;
nodes = (
(698,0,l),
(698,204,l),
(35,204,l),
(35,0,l)
);
},
{
attr = {
gradient = {
colors = (
(
(64,255),
0
),
(
(191,255),
1
)
);
end = (0.4877,0.9217);
start = (0.336,0.0214);
};
};
closed = 1;
nodes = (
(249,204,l),
(249,730,l),
(35,730,l),
(35,204,l)
);
},
{
attr = {
gradient = {
colors = (
(
(64,255),
0
),
(
(191,255),
1
)
);
end = (0.3103,0.7788);
start = (0.8793,0.2688);
};
};
closed = 1;
nodes = (
(698,263,l),
(698,467,l),
(504,467,l),
(504,466,l),
(697,263,l)
);
},
{
attr = {
gradient = {
colors = (
(
(64,255),
0
),
(
(128,255),
1
)
);
end = (0.4979,0.9254);
start = (0.4393,0.0388);
};
};
closed = 1;
nodes = (
(504,526,l),
(504,730,l),
(249,730,l),
(249,526,l)
);
},
{
attr = {
gradient = {
colors = (
(
(191,255),
0
),
(
(64,255),
1
)
);
end = (0.1118,0.1788);
start = (0.4447,0.6672);
};
};
closed = 1;
nodes = (
(738,533,l),
(505,730,l),
(504,730,l),
(504,467,l),
(699,467,l),
(738,431,l)
);
},
{
attr = {
gradient = {
colors = (
(
(191,255),
0
),
(
(64,255),
1
)
);
end = (0.8878,0.5878);
start = (0.0693,0.513);
};
};
closed = 1;
nodes = (
(699,0,l),
(912,193,l),
(912,274,l),
(699,467,l),
(698,467,l),
(698,0,l)
);
}
);
width = 912;
},
{
attr = {
color = "1";
};
layerId = m003;
shapes = (
{
attr = {
gradient = {
colors = (
(
(64,255),
0
),
(
(191,255),
1
)
);
end = (0.033,0.9134);
start = (0.9541,0.1381);
};
};
closed = 1;
nodes = (
(738,0,l),
(738,244,l),
(35,244,l),
(35,0,l)
);
},
{
attr = {
gradient = {
colors = (
(
(64,255),
0
),
(
(191,255),
1
)
);
end = (0.4877,0.9217);
start = (0.8204,0.0543);
};
};
closed = 1;
nodes = (
(289,244,l),
(289,730,l),
(35,730,l),
(35,244,l)
);
},
{
attr = {
gradient = {
colors = (
(
(64,255),
0
),
(
(191,255),
1
)
);
end = (0.2023,0.9106);
start = (0.903,0.2412);
};
};
closed = 1;
nodes = (
(738,263,l),
(738,467,l),
(584,467,l),
(584,466,l),
(737,263,l)
);
},
{
attr = {
gradient = {
colors = (
(
(64,255),
0
),
(
(128,255),
1
)
);
end = (0.478,0.9186);
start = (0.4393,0.0388);
};
};
closed = 1;
nodes = (
(584,486,l),
(584,730,l),
(289,730,l),
(289,486,l)
);
},
{
attr = {
gradient = {
colors = (
(
(191,255),
0
),
(
(64,255),
1
)
);
end = (0.1105,0.2981);
start = (0.4063,0.7233);
};
};
closed = 1;
nodes = (
(858,533,l),
(585,730,l),
(584,730,l),
(584,467,l),
(739,467,l),
(858,376,l)
);
},
{
attr = {
gradient = {
colors = (
(
(191,255),
0
),
(
(64,255),
1
)
);
end = (0.8951,0.576);
start = (0.0689,0.4017);
};
};
closed = 1;
nodes = (
(739,0,l),
(992,193,l),
(992,274,l),
(739,467,l),
(738,467,l),
(738,0,l)
);
}
);
width = 992;
},
{
attr = {
color = "1";
};
layerId = "B297D401-77A1-4CCB-A385-A5DBDDA4353D";
shapes = (
{
attr = {
gradient = {
colors = (
(
(64,255),
0
),
(
(191,255),
1
)
);
end = (0.0372,0.5775);
start = (0.9225,0.2287);
};
};
closed = 1;
nodes = (
(305,0,l),
(305,54,l),
(50,54,l),
(50,0,l)
);
},
{
attr = {
gradient = {
colors = (
(
(64,255),
0
),
(
(191,255),
1
)
);
end = (0.4877,0.9217);
start = (0.6258,0.0095);
};
};
closed = 1;
nodes = (
(106,54,l),
(106,705,l),
(50,705,l),
(50,54,l)
);
},
{
attr = {
gradient = {
colors = (
(
(64,255),
0
),
(
(191,255),
1
)
);
end = (0.2671,0.5486);
start = (0.937,0.3463);
};
};
closed = 1;
nodes = (
(305,338,l),
(305,392,l),
(211,392,l),
(129,392,l),
(180,338,l)
);
},
{
attr = {
gradient = {
colors = (
(
(64,255),
0
),
(
(128,255),
1
)
);
end = (0.7785,0.8588);
start = (0.0992,0.2024);
};
};
closed = 1;
nodes = (
(211,651,l),
(211,705,l),
(106,705,l),
(106,651,l)
);
},
{
attr = {
gradient = {
colors = (
(
(191,255),
0
),
(
(64,255),
1
)
);
end = (0.5152,0.0336);
start = (0.4447,0.6672);
};
};
closed = 1;
nodes = (
(270,653,l),
(212,705,l),
(211,705,l),
(211,392,l),
(255,392,l),
(270,386,l)
);
},
{
attr = {
gradient = {
colors = (
(
(191,255),
0
),
(
(64,255),
1
)
);
end = (0.5245,0.827);
start = (0.2492,0.0773);
};
};
closed = 1;
nodes = (
(306,0,l),
(360,51,l),
(360,341,l),
(306,392,l),
(305,392,l),
(305,0,l)
);
}
);
width = 387.83333;
},
{
attr = {
color = "1";
};
layerId = "68348742-A108-42ED-B86C-DC367B3F2871";
shapes = (
{
attr = {
gradient = {
colors = (
(
(64,255),
0
),
(
(191,255),
1
)
);
end = (0.1636,0.9263);
start = (0.9036,0.1581);
};
};
closed = 1;
nodes = (
(384,0,l),
(384,84,l),
(47,84,l),
(47,0,l)
);
},
{
attr = {
gradient = {
colors = (
(
(64,255),
0
),
(
(191,255),
1
)
);
end = (0.4877,0.9217);
start = (0.336,0.0214);
};
};
closed = 1;
nodes = (
(135,84,l),
(135,710,l),
(47,710,l),
(47,84,l)
);
},
{
attr = {
gradient = {
colors = (
(
(64,255),
0
),
(
(191,255),
1
)
);
end = (0.3103,0.7788);
start = (0.8793,0.2688);
};
};
closed = 1;
nodes = (
(384,323,l),
(384,407,l),
(270,407,l),
(204,407,l),
(283,323,l)
);
},
{
attr = {
gradient = {
colors = (
(
(64,255),
0
),
(
(128,255),
1
)
);
end = (0.4979,0.9254);
start = (0.4393,0.0388);
};
};
closed = 1;
nodes = (
(270,626,l),
(270,710,l),
(135,710,l),
(135,626,l)
);
},
{
attr = {
gradient = {
colors = (
(
(191,255),
0
),
(
(64,255),
1
)
);
end = (0.1118,0.1788);
start = (0.4447,0.6672);
};
};
closed = 1;
nodes = (
(364,629,l),
(271,710,l),
(270,710,l),
(270,407,l),
(344,407,l),
(364,395,l)
);
},
{
attr = {
gradient = {
colors = (
(
(191,255),
0
),
(
(64,255),
1
)
);
end = (0.8878,0.5878);
start = (0.0693,0.513);
};
};
closed = 1;
nodes = (
(385,0,l),
(470,79,l),
(470,328,l),
(385,407,l),
(384,407,l),
(384,0,l)
);
}
);
width = 492.66667;
},
{
attr = {
color = "1";
};
layerId = "0A98D1B9-7B82-4B4E-AB5F-E1C30C6E6C41";
shapes = (
{
attr = {
gradient = {
colors = (
(
(64,255),
0
),
(
(191,255),
1
)
);
end = (0.1636,0.9263);
start = (0.9036,0.1581);
};
};
closed = 1;
nodes = (
(463,0,l),
(463,114,l),
(44,114,l),
(44,0,l)
);
},
{
attr = {
gradient = {
colors = (
(
(64,255),
0
),
(
(191,255),
1
)
);
end = (0.4877,0.9217);
start = (0.336,0.0214);
};
};
closed = 1;
nodes = (
(164,114,l),
(164,715,l),
(44,715,l),
(44,114,l)
);
},
{
attr = {
gradient = {
colors = (
(
(64,255),
0
),
(
(191,255),
1
)
);
end = (0.3103,0.7788);
start = (0.8793,0.2688);
};
};
closed = 1;
nodes = (
(463,308,l),
(463,422,l),
(329,422,l),
(279,422,l),
(387,308,l)
);
},
{
attr = {
gradient = {
colors = (
(
(64,255),
0
),
(
(128,255),
1
)
);
end = (0.4979,0.9254);
start = (0.4393,0.0388);
};
};
closed = 1;
nodes = (
(329,601,l),
(329,715,l),
(164,715,l),
(164,601,l)
);
},
{
attr = {
gradient = {
colors = (
(
(191,255),
0
),
(
(64,255),
1
)
);
end = (0.1118,0.1788);
start = (0.4447,0.6672);
};
};
closed = 1;
nodes = (
(458,605,l),
(330,715,l),
(329,715,l),
(329,422,l),
(433,422,l),
(458,404,l)
);
},
{
attr = {
gradient = {
colors = (
(
(191,255),
0
),
(
(64,255),
1
)
);
end = (0.8878,0.5878);
start = (0.0693,0.513);
};
};
closed = 1;
nodes = (
(464,0,l),
(581,108,l),
(581,315,l),
(464,422,l),
(463,422,l),
(463,0,l)
);
}
);
width = 597.5;
},
{
attr = {
color = "1";
};
layerId = "7599F073-2954-4FFC-B8EF-B2010DD53262";
shapes = (
{
attr = {
gradient = {
colors = (
(
(64,255),
0
),
(
(191,255),
1
)
);
end = (0.1636,0.9263);
start = (0.9036,0.1581);
};
};
closed = 1;
nodes = (
(502,0,l),
(502,129,l),
(43,129,l),
(43,0,l)
);
},
{
attr = {
gradient = {
colors = (
(
(64,255),
0
),
(
(191,255),
1
)
);
end = (0.4877,0.9217);
start = (0.336,0.0214);
};
};
closed = 1;
nodes = (
(178,129,l),
(178,718,l),
(43,718,l),
(43,129,l)
);
},
{
attr = {
gradient = {
colors = (
(
(64,255),
0
),
(
(191,255),
1
)
);
end = (0.3103,0.7788);
start = (0.8793,0.2688);
};
};
closed = 1;
nodes = (
(502,301,l),
(502,430,l),
(358,430,l),
(317,429,l),
(439,301,l)
);
},
{
attr = {
gradient = {
colors = (
(
(64,255),
0
),
(
(128,255),
1
)
);
end = (0.4979,0.9254);
start = (0.4393,0.0388);
};
};
closed = 1;
nodes = (
(358,589,l),
(358,718,l),
(178,718,l),
(178,589,l)
);
},
{
attr = {
gradient = {
colors = (
(
(191,255),
0
),
(
(64,255),
1
)
);
end = (0.1118,0.1788);
start = (0.4447,0.6672);
};
};
closed = 1;
nodes = (
(505,593,l),
(359,718,l),
(358,718,l),
(358,430,l),
(477,430,l),
(505,409,l)
);
},
{
attr = {
gradient = {
colors = (
(
(191,255),
0
),
(
(64,255),
1
)
);
end = (0.8878,0.5878);
start = (0.0693,0.513);
};
};
closed = 1;
nodes = (
(503,0,l),
(636,122,l),
(636,308,l),
(503,430,l),
(502,430,l),
(502,0,l)
);
}
);
width = 649.91667;
},
{
attr = {
color = "1";
};
layerId = "5E49A2BD-5AA6-4751-9DCC-F05514CFF0B0";
shapes = (
{
attr = {
gradient = {
colors = (
(
(64,255),
0
),
(
(191,255),
1
)
);
end = (0.1636,0.9263);
start = (0.9036,0.1581);
};
};
closed = 1;
nodes = (
(580,0,l),
(580,159,l),
(40,159,l),
(40,0,l)
);
},
{
attr = {
gradient = {
colors = (
(
(64,255),
0
),
(
(191,255),
1
)
);
end = (0.4877,0.9217);
start = (0.336,0.0214);
};
};
closed = 1;
nodes = (
(206,159,l),
(206,723,l),
(40,723,l),
(40,159,l)
);
},
{
attr = {
gradient = {
colors = (
(
(64,255),
0
),
(
(191,255),
1
)
);
end = (0.3103,0.7788);
start = (0.8793,0.2688);
};
};
closed = 1;
nodes = (
(580,286,l),
(580,445,l),
(416,445,l),
(392,444,l),
(542,286,l)
);
},
{
attr = {
gradient = {
colors = (
(
(64,255),
0
),
(
(128,255),
1
)
);
end = (0.4979,0.9254);
start = (0.4393,0.0388);
};
};
closed = 1;
nodes = (
(416,564,l),
(416,723,l),
(206,723,l),
(206,564,l)
);
},
{
attr = {
gradient = {
colors = (
(
(191,255),
0
),
(
(64,255),
1
)
);
end = (0.1118,0.1788);
start = (0.4447,0.6672);
};
};
closed = 1;
nodes = (
(598,569,l),
(417,723,l),
(416,723,l),
(416,445,l),
(566,445,l),
(598,418,l)
);
},
{
attr = {
gradient = {
colors = (
(
(191,255),
0
),
(
(64,255),
1
)
);
end = (0.8878,0.5878);
start = (0.0693,0.513);
};
};
closed = 1;
nodes = (
(581,0,l),
(746,150,l),
(746,294,l),
(581,445,l),
(580,445,l),
(580,0,l)
);
}
);
width = 754.75;
}
);
unicode = 66;
},
{
glyphname = C;
kernLeft = O;
lastChange = "2022-07-15 12:10:08 +0000";
layers = (
{
anchors = (
{
name = bottom;
pos = (140,0);
},
{
name = top;
pos = (138,700);
}
);
attr = {
color = "1";
};
layerId = "33AE93C6-B8B3-427A-A53B-F24970E840CE";
shapes = (
{
attr = {
gradient = {
colors = (
(
(191,255),
0
),
(
(64,255),
1
)
);
end = (0.9394,0.7375);
start = (0.0907,0.6919);
};
};
closed = 1;
nodes = (
(197,0,l),
(220,23,l),
(220,24,l),
(53,24,l),
(53,23,l),
(76,0,l)
);
},
{
attr = {
gradient = {
colors = (
(
(64,255),
0
),
(
(191,255),
1
)
);
end = (0.4877,0.9217);
start = (0.3885,0.0091);
};
};
closed = 1;
nodes = (
(77,24,l),
(77,700,l),
(76,700,l),
(53,677,l),
(53,24,l)
);
},
{
attr = {
gradient = {
colors = (
(
(64,255),
0
),
(
(191,255),
1
)
);
end = (0.8878,0.5878);
start = (0.0693,0.513);
};
};
closed = 1;
nodes = (
(220,676,l),
(220,677,l),
(197,700,l),
(77,700,l),
(77,676,l)
);
}
);
width = 235;
},
{
anchors = (
{
name = bottom;
pos = (482,0);
},
{
name = top;
pos = (436,730);
}
);
attr = {
color = "1";
};
layerId = "E87239EE-82B8-404C-B23A-53843E270889";
shapes = (
{
attr = {
gradient = {
colors = (
(
(191,255),
0
),
(
(64,255),
1
)
);
end = (0.8878,0.5878);
start = (0.082,0.8216);
};
};
closed = 1;
nodes = (
(620,0,l),
(822,203,l),
(822,204,l),
(25,204,l),
(25,203,l),
(227,0,l)
);
},
{
attr = {
gradient = {
colors = (
(
(64,255),
0
),
(
(191,255),
1
)
);
end = (0.7855,0.8585);
start = (0.3737,0.0284);
};
};
closed = 1;
nodes = (
(239,204,l),
(239,730,l),
(238,730,l),
(25,523,l),
(25,204,l)
);
},
{
attr = {
gradient = {
colors = (
(
(64,255),
0
),
(
(191,255),
1
)
);
end = (0.8754,0.206);
start = (0.0693,0.513);
};
};
closed = 1;
nodes = (
(822,526,l),
(822,527,l),
(620,730,l),
(239,730,l),
(239,526,l)
);
}
);
width = 822;
},
{
anchors = (
{
name = bottom;
pos = (482,0);
},
{
name = top;
pos = (476,730);
}
);
attr = {
color = "1";
};
layerId = m003;
shapes = (
{
attr = {
gradient = {
colors = (
(
(191,255),
0
),
(
(64,255),
1
)
);
end = (0.8878,0.5878);
start = (0.0935,0.7984);
};
};
closed = 1;
nodes = (
(660,0,l),
(862,243,l),
(862,244,l),
(25,244,l),
(25,243,l),
(227,0,l)
);
},
{
attr = {
gradient = {
colors = (
(
(64,255),
0
),
(
(191,255),
1
)
);
end = (0.8939,0.8988);
start = (0.3814,0.045);
};
};
closed = 1;
nodes = (
(279,244,l),
(279,730,l),
(278,730,l),
(25,523,l),
(25,244,l)
);
},
{
attr = {
gradient = {
colors = (
(
(64,255),
0
),
(
(191,255),
1
)
);
end = (0.8774,0.2729);
start = (0.0693,0.513);
};
};
closed = 1;
nodes = (
(862,486,l),
(862,487,l),
(660,730,l),
(279,730,l),
(279,486,l)
);
}
);
width = 862;
},
{
anchors = (
{
name = bottom;
pos = (197,0);
},
{
name = top;
pos = (188,705);
}
);
attr = {
color = "1";
};
layerId = "B297D401-77A1-4CCB-A385-A5DBDDA4353D";
shapes = (
{
attr = {
gradient = {
colors = (
(
(191,255),
0
),
(
(64,255),
1
)
);
end = (0.9394,0.7375);
start = (0.0907,0.6919);
};
};
closed = 1;
nodes = (
(268,0,l),
(320,53,l),
(320,54,l),
(48,54,l),
(48,53,l),
(101,0,l)
);
},
{
attr = {
gradient = {
colors = (
(
(64,255),
0
),
(
(191,255),
1
)
);
end = (0.4877,0.9217);
start = (0.3885,0.0091);
};
};
closed = 1;
nodes = (
(104,54,l),
(104,705,l),
(103,705,l),
(48,651,l),
(48,54,l)
);
},
{
attr = {
gradient = {
colors = (
(
(64,255),
0
),
(
(191,255),
1
)
);
end = (0.8878,0.5878);
start = (0.0693,0.513);
};
};
closed = 1;
nodes = (
(320,651,l),
(320,652,l),
(268,705,l),
(104,705,l),
(104,651,l)
);
}
);
width = 332.83333;
},
{
anchors = (
{
name = bottom;
pos = (254,0);
},
{
name = top;
pos = (238,710);
}
);
attr = {
color = "1";
};
layerId = "68348742-A108-42ED-B86C-DC367B3F2871";
shapes = (
{
attr = {
gradient = {
colors = (
(
(191,255),
0
),
(
(64,255),
1
)
);
end = (0.8878,0.5878);
start = (0.082,0.8216);
};
};
closed = 1;
nodes = (
(338,0,l),
(420,83,l),
(420,84,l),
(43,84,l),
(43,83,l),
(126,0,l)
);
},
{
attr = {
gradient = {
colors = (
(
(64,255),
0
),
(
(191,255),
1
)
);
end = (0.7855,0.8585);
start = (0.3737,0.0284);
};
};
closed = 1;
nodes = (
(131,84,l),
(131,710,l),
(130,710,l),
(43,625,l),
(43,84,l)
);
},
{
attr = {
gradient = {
colors = (
(
(64,255),
0
),
(
(191,255),
1
)
);
end = (0.8754,0.206);
start = (0.0693,0.513);
};
};
closed = 1;
nodes = (
(420,626,l),
(420,627,l),
(338,710,l),
(131,710,l),
(131,626,l)
);
}
);
width = 430.66667;
},
{
anchors = (
{
name = bottom;
pos = (311,0);
},
{
name = top;
pos = (288,715);
}
);
attr = {
color = "1";
};
layerId = "0A98D1B9-7B82-4B4E-AB5F-E1C30C6E6C41";
shapes = (
{
attr = {
gradient = {
colors = (
(
(191,255),
0
),
(
(64,255),
1
)
);
end = (0.8878,0.5878);
start = (0.082,0.8216);
};
};
closed = 1;
nodes = (
(409,0,l),
(521,113,l),
(521,114,l),
(39,114,l),
(39,113,l),
(151,0,l)
);
},
{
attr = {
gradient = {
colors = (
(
(64,255),
0
),
(
(191,255),
1
)
);
end = (0.7855,0.8585);
start = (0.3737,0.0284);
};
};
closed = 1;
nodes = (
(158,114,l),
(158,715,l),
(157,715,l),
(39,600,l),
(39,114,l)
);
},
{
attr = {
gradient = {
colors = (
(
(64,255),
0
),
(
(191,255),
1
)
);
end = (0.8754,0.206);
start = (0.0693,0.513);
};
};
closed = 1;
nodes = (
(521,601,l),
(521,602,l),
(409,715,l),
(158,715,l),
(158,601,l)
);
}
);
width = 528.5;
},
{
anchors = (
{
name = bottom;
pos = (340,0);
},
{
name = top;
pos = (313,718);
}
);
attr = {
color = "1";
};
layerId = "7599F073-2954-4FFC-B8EF-B2010DD53262";
shapes = (
{
attr = {
gradient = {
colors = (
(
(191,255),
0
),
(
(64,255),
1
)
);
end = (0.8878,0.5878);
start = (0.082,0.8216);
};
};
closed = 1;
nodes = (
(444,0,l),
(571,128,l),
(571,129,l),
(37,129,l),
(37,128,l),
(164,0,l)
);
},
{
attr = {
gradient = {
colors = (
(
(64,255),
0
),
(
(191,255),
1
)
);
end = (0.7855,0.8585);
start = (0.3737,0.0284);
};
};
closed = 1;
nodes = (
(172,129,l),
(172,718,l),
(171,718,l),
(37,587,l),
(37,129,l)
);
},
{
attr = {
gradient = {
colors = (
(
(64,255),
0
),
(
(191,255),
1
)
);
end = (0.8754,0.206);
start = (0.0693,0.513);
};
};
closed = 1;
nodes = (
(571,589,l),
(571,590,l),
(444,718,l),
(172,718,l),
(172,589,l)
);
}
);
width = 577.41667;
},
{
anchors = (
{
name = bottom;
pos = (397,0);
},
{
name = top;
pos = (362,723);
}
);
attr = {
color = "1";
};
layerId = "5E49A2BD-5AA6-4751-9DCC-F05514CFF0B0";
shapes = (
{
attr = {
gradient = {
colors = (
(
(191,255),
0
),
(
(64,255),
1
)
);
end = (0.8878,0.5878);
start = (0.082,0.8216);
};
};
closed = 1;
nodes = (
(514,0,l),
(671,158,l),
(671,159,l),
(32,159,l),
(32,158,l),
(189,0,l)
);
},
{
attr = {
gradient = {
colors = (
(
(64,255),
0
),
(
(191,255),
1
)
);
end = (0.7855,0.8585);
start = (0.3737,0.0284);
};
};
closed = 1;
nodes = (
(199,159,l),
(199,723,l),
(198,723,l),
(32,561,l),
(32,159,l)
);
},
{
attr = {
gradient = {
colors = (
(
(64,255),
0
),
(
(191,255),
1
)
);
end = (0.8754,0.206);
start = (0.0693,0.513);
};
};
closed = 1;
nodes = (
(671,564,l),
(671,565,l),
(514,723,l),
(199,723,l),
(199,564,l)
);
}
);
width = 675.25;
}
);
unicode = 67;
},
{
glyphname = D;
kernRight = O;
lastChange = "2022-07-15 13:00:49 +0000";
layers = (
{
anchors = (
{
name = stroke;
pos = (65,365);
},
{
name = top;
pos = (138,700);
}
);
attr = {
color = "1";
};
layerId = "33AE93C6-B8B3-427A-A53B-F24970E840CE";
shapes = (
{
attr = {
gradient = {
colors = (
(
(64,255),
0
),
(
(191,255),
1
)
);
end = (0.8613,0.3327);
start = (0.0949,0.4208);
};
};
closed = 1;
nodes = (
(222,676,l),
(222,677,l),
(199,700,l),
(77,700,l),
(77,676,l)
);
},
{
attr = {
gradient = {
colors = (
(
(191,255),
0
),
(
(64,255),
1
)
);
end = (0.8878,0.5878);
start = (0.0693,0.513);
};
};
closed = 1;
nodes = (
(198,0,l),
(198,24,l),
(53,24,l),
(53,0,l)
);
},
{
attr = {
gradient = {
colors = (
(
(64,255),
0
),
(
(191,255),
1
)
);
end = (0.4877,0.9217);
start = (0.3995,0.0139);
};
};
closed = 1;
nodes = (
(77,24,l),
(77,700,l),
(53,700,l),
(53,24,l)
);
},
{
attr = {
gradient = {
colors = (
(
(64,255),
0
),
(
(191,255),
1
)
);
end = (0.4056,0.1204);
start = (0.4192,0.8964);
};
};
closed = 1;
nodes = (
(199,0,l),
(222,23,l),
(222,676,l),
(198,676,l),
(198,0,l)
);
}
);
width = 275;
},
{
anchors = (
{
name = stroke;
pos = (166,361);
},
{
name = top;
pos = (426,730);
}
);
attr = {
color = "1";
};
layerId = "E87239EE-82B8-404C-B23A-53843E270889";
shapes = (
{
attr = {
gradient = {
colors = (
(
(64,255),
0
),
(
(191,255),
1
)
);
end = (0.8337,0.4786);
start = (0.0693,0.513);
};
};
closed = 1;
nodes = (
(842,526,l),
(842,527,l),
(680,730,l),
(249,730,l),
(249,526,l)
);
},
{
attr = {
gradient = {
colors = (
(
(191,255),
0
),
(
(64,255),
1
)
);
end = (0.8878,0.5878);
start = (0.0693,0.513);
};
};
closed = 1;
nodes = (
(628,-4,l),
(628,200,l),
(35,200,l),
(35,-4,l)
);
},
{
attr = {
gradient = {
colors = (
(
(64,255),
0
),
(
(191,255),
1
)
);
end = (0.4877,0.9217);
start = (0.3477,0.0407);
};
};
closed = 1;
nodes = (
(249,200,l),
(249,730,l),
(35,730,l),
(35,200,l)
);
},
{
attr = {
gradient = {
colors = (
(
(64,255),
0
),
(
(191,255),
1
)
);
end = (0.2018,0.1525);
start = (0.4192,0.8964);
};
};
closed = 1;
nodes = (
(629,-4,l),
(842,193,l),
(842,526,l),
(628,526,l),
(628,-4,l)
);
}
);
width = 867;
},
{
anchors = (
{
name = stroke;
pos = (166,361);
},
{
name = top;
pos = (476,730);
}
);
attr = {
color = "1";
};
layerId = m003;
shapes = (
{
attr = {
gradient = {
colors = (
(
(64,255),
0
),
(
(191,255),
1
)
);
end = (0.8183,0.4624);
start = (0.0693,0.513);
};
};
closed = 1;
nodes = (
(922,486,l),
(922,487,l),
(720,730,l),
(289,730,l),
(289,486,l)
);
},
{
attr = {
gradient = {
colors = (
(
(191,255),
0
),
(
(64,255),
1
)
);
end = (0.8878,0.5878);
start = (0.0693,0.513);
};
};
closed = 1;
nodes = (
(668,-4,l),
(668,240,l),
(35,240,l),
(35,-4,l)
);
},
{
attr = {
gradient = {
colors = (
(
(64,255),
0
),
(
(191,255),
1
)
);
end = (0.4877,0.9217);
start = (0.4098,0.0603);
};
};
closed = 1;
nodes = (
(289,240,l),
(289,730,l),
(35,730,l),
(35,240,l)
);
},
{
attr = {
gradient = {
colors = (
(
(64,255),
0
),
(
(191,255),
1
)
);
end = (0.2039,0.1594);
start = (0.4192,0.8964);
};
};
closed = 1;
nodes = (
(669,-4,l),
(922,193,l),
(922,486,l),
(668,486,l),
(668,-4,l)
);
}
);
width = 947;
},
{
anchors = (
{
name = stroke;
pos = (82,364);
},
{
name = top;
pos = (186,705);
}
);
attr = {
color = "1";
};
layerId = "B297D401-77A1-4CCB-A385-A5DBDDA4353D";
shapes = (
{
attr = {
gradient = {
colors = (
(
(64,255),
0
),
(
(191,255),
1
)
);
end = (0.8558,0.2922);
start = (0.0725,0.3902);
};
};
closed = 1;
nodes = (
(325,651,l),
(325,652,l),
(279,705,l),
(106,705,l),
(106,651,l)
);
},
{
attr = {
gradient = {
colors = (
(
(191,255),
0
),
(
(64,255),
1
)
);
end = (0.8878,0.5878);
start = (0.0693,0.513);
};
};
closed = 1;
nodes = (
(270,-1,l),
(270,53,l),
(50,53,l),
(50,-1,l)
);
},
{
attr = {
gradient = {
colors = (
(
(64,255),
0
),
(
(191,255),
1
)
);
end = (0.4877,0.9217);
start = (0.4366,0.0236);
};
};
closed = 1;
nodes = (
(106,53,l),
(106,705,l),
(50,705,l),
(50,53,l)
);
},
{
attr = {
gradient = {
colors = (
(
(64,255),
0
),
(
(191,255),
1
)
);
end = (0.4056,0.1204);
start = (0.4192,0.8964);
};
};
closed = 1;
nodes = (
(271,-1,l),
(325,51,l),
(325,651,l),
(270,651,l),
(270,-1,l)
);
}
);
width = 373.66667;
},
{
anchors = (
{
name = stroke;
pos = (99,363);
},
{
name = top;
pos = (234,710);
}
);
attr = {
color = "1";
};
layerId = "68348742-A108-42ED-B86C-DC367B3F2871";
shapes = (
{
attr = {
gradient = {
colors = (
(
(64,255),
0
),
(
(191,255),
1
)
);
end = (0.8542,0.3891);
start = (0.0693,0.513);
};
};
closed = 1;
nodes = (
(428,626,l),
(428,627,l),
(359,710,l),
(135,710,l),
(135,626,l)
);
},
{
attr = {
gradient = {
colors = (
(
(191,255),
0
),
(
(64,255),
1
)
);
end = (0.8878,0.5878);
start = (0.0693,0.513);
};
};
closed = 1;
nodes = (
(342,-2,l),
(342,82,l),
(47,82,l),
(47,-2,l)
);
},
{
attr = {
gradient = {
colors = (
(
(64,255),
0
),
(
(191,255),
1
)
);
end = (0.4877,0.9217);
start = (0.3976,0.0179);
};
};
closed = 1;
nodes = (
(135,82,l),
(135,710,l),
(47,710,l),
(47,82,l)
);
},
{
attr = {
gradient = {
colors = (
(
(64,255),
0
),
(
(191,255),
1
)
);
end = (0.4056,0.1204);
start = (0.4192,0.8964);
};
};
closed = 1;
nodes = (
(343,-2,l),
(428,79,l),
(428,626,l),
(342,626,l),
(342,-2,l)
);
}
);
width = 472.33333;
},
{
anchors = (
{
name = stroke;
pos = (116,363);
},
{
name = top;
pos = (282,715);
}
);
attr = {
color = "1";
};
layerId = "0A98D1B9-7B82-4B4E-AB5F-E1C30C6E6C41";
shapes = (
{
attr = {
gradient = {
colors = (
(
(64,255),
0
),
(
(191,255),
1
)
);
end = (0.8486,0.3703);
start = (0.0693,0.513);
};
};
closed = 1;
nodes = (
(532,601,l),
(532,602,l),
(439,715,l),
(164,715,l),
(164,601,l)
);
},
{
attr = {
gradient = {
colors = (
(
(191,255),
0
),
(
(64,255),
1
)
);
end = (0.8878,0.5878);
start = (0.0693,0.513);
};
};
closed = 1;
nodes = (
(414,-2,l),
(414,112,l),
(44,112,l),
(44,-2,l)
);
},
{
attr = {
gradient = {
colors = (
(
(64,255),
0
),
(
(191,255),
1
)
);
end = (0.4877,0.9217);
start = (0.4014,0.0165);
};
};
closed = 1;
nodes = (
(164,112,l),
(164,715,l),
(44,715,l),
(44,112,l)
);
},
{
attr = {
gradient = {
colors = (
(
(64,255),
0
),
(
(191,255),
1
)
);
end = (0.4056,0.1204);
start = (0.4192,0.8964);
};
};
closed = 1;
nodes = (
(415,-2,l),
(532,108,l),
(532,601,l),
(414,601,l),
(414,-2,l)
);
}
);
width = 571;
},
{
anchors = (
{
name = stroke;
pos = (124,363);
},
{
name = top;
pos = (306,718);
}
);
attr = {
color = "1";
};
layerId = "7599F073-2954-4FFC-B8EF-B2010DD53262";
shapes = (
{
attr = {
gradient = {
colors = (
(
(64,255),
0
),
(
(191,255),
1
)
);
end = (0.8275,0.3761);
start = (0.0693,0.513);
};
};
closed = 1;
nodes = (
(584,589,l),
(584,590,l),
(479,718,l),
(178,718,l),
(178,589,l)
);
},
{
attr = {
gradient = {
colors = (
(
(191,255),
0
),
(
(64,255),
1
)
);
end = (0.8878,0.5878);
start = (0.0693,0.513);
};
};
closed = 1;
nodes = (
(450,-2,l),
(450,127,l),
(43,127,l),
(43,-2,l)
);
},
{
attr = {
gradient = {
colors = (
(
(64,255),
0
),
(
(191,255),
1
)
);
end = (0.4877,0.9217);
start = (0.41,0.0378);
};
};
closed = 1;
nodes = (
(178,127,l),
(178,718,l),
(43,718,l),
(43,127,l)
);
},
{
attr = {
gradient = {
colors = (
(
(64,255),
0
),
(
(191,255),
1
)
);
end = (0.4056,0.1204);
start = (0.4192,0.8964);
};
};
closed = 1;
nodes = (
(451,-2,l),
(584,122,l),
(584,589,l),
(450,589,l),
(450,-2,l)
);
}
);
width = 620.33333;
},
{
anchors = (
{
name = stroke;
pos = (141,362);
},
{
name = top;
pos = (354,723);
}
);
attr = {
color = "1";
};
layerId = "5E49A2BD-5AA6-4751-9DCC-F05514CFF0B0";
shapes = (
{
attr = {
gradient = {
colors = (
(
(64,255),
0
),
(
(191,255),
1
)
);
end = (0.8651,0.2639);
start = (0.0693,0.513);
};
};
closed = 1;
nodes = (
(687,564,l),
(687,565,l),
(559,723,l),
(206,723,l),
(206,564,l)
);
},
{
attr = {
gradient = {
colors = (
(
(191,255),
0
),
(
(64,255),
1
)
);
end = (0.8878,0.5878);
start = (0.0693,0.513);
};
};
closed = 1;
nodes = (
(521,-3,l),
(521,156,l),
(40,156,l),
(40,-3,l)
);
},
{
attr = {
gradient = {
colors = (
(
(64,255),
0
),
(
(191,255),
1
)
);
end = (0.4877,0.9217);
start = (0.3791,0.0279);
};
};
closed = 1;
nodes = (
(206,156,l),
(206,723,l),
(40,723,l),
(40,156,l)
);
},
{
attr = {
gradient = {
colors = (
(
(64,255),
0
),
(
(191,255),
1
)
);
end = (0.2975,0.1442);
start = (0.4192,0.8964);
};
};
closed = 1;
nodes = (
(522,-3,l),
(687,150,l),
(687,564,l),
(521,564,l),
(521,-3,l)
);
}
);
width = 719;
}
);
unicode = 68;
},
{
glyphname = E;
kernLeft = U;
lastChange = "2022-07-15 12:10:08 +0000";
layers = (
{
anchors = (
{
name = bottom;
pos = (135,0);
},
{
name = top;
pos = (138,700);
}
);
attr = {
color = "1";
};
layerId = "33AE93C6-B8B3-427A-A53B-F24970E840CE";
shapes = (
{
attr = {
gradient = {
colors = (
(
(64,255),
0
),
(
(191,255),
1
)
);
end = (0.0726,0.8409);
start = (0.9727,0.513);
};
};
closed = 1;
nodes = (
(220,0,l),
(220,24,l),
(53,24,l),
(53,23,l),
(77,0,l)
);
},
{
attr = {
gradient = {
colors = (
(
(64,255),
0
),
(
(191,255),
1
)
);
end = (0.5603,0.9888);
start = (0.4654,0.007);
};
};
closed = 1;
nodes = (
(77,24,l),
(77,700,l),
(53,700,l),
(53,24,l)
);
},
{
attr = {
gradient = {
colors = (
(
(64,255),
0
),
(
(191,255),
1
)
);
end = (0.9395,0.824);
start = (0.0304,0.1025);
};
};
closed = 1;
nodes = (
(196,353,l),
(196,377,l),
(77,377,l),
(77,353,l)
);
},
{
attr = {
gradient = {
colors = (
(
(64,255),
0
),
(
(191,255),
1
)
);
end = (0.9219,0.702);
start = (0.0502,0.2276);
};
};
closed = 1;
nodes = (
(197,676,l),
(220,699,l),
(220,700,l),
(77,700,l),
(77,676,l)
);
}
);
width = 240;
},
{
anchors = (
{
name = bottom;
pos = (462,0);
},
{
name = top;
pos = (426,730);
}
);
attr = {
color = "1";
};
layerId = "E87239EE-82B8-404C-B23A-53843E270889";
shapes = (
{
attr = {
gradient = {
colors = (
(
(64,255),
0
),
(
(191,255),
1
)
);
end = (0.082,0.9228);
start = (0.9659,0.1);
};
};
closed = 1;
nodes = (
(761,0,l),
(761,204,l),
(35,204,l),
(35,203,l),
(237,0,l)
);
},
{
attr = {
gradient = {
colors = (
(
(64,255),
0
),
(
(191,255),
1
)
);
end = (0.4877,0.9217);
start = (0.5389,0.033);
};
};
closed = 1;
nodes = (
(249,204,l),
(249,730,l),
(35,730,l),
(35,204,l)
);
},
{
attr = {
gradient = {
colors = (
(
(64,255),
0
),
(
(191,255),
1
)
);
end = (0.8437,0.8454);
start = (0.0849,0.1153);
};
};
closed = 1;
nodes = (
(658,283,l),
(658,447,l),
(249,447,l),
(249,283,l)
);
},
{
attr = {
gradient = {
colors = (
(
(64,255),
0
),
(
(191,255),
1
)
);
end = (0.713,0.9264);
start = (0.0306,0.307);
};
};
closed = 1;
nodes = (
(610,526,l),
(812,729,l),
(812,730,l),
(249,730,l),
(249,526,l)
);
}
);
width = 792;
},
{
anchors = (
{
name = bottom;
pos = (442,0);
},
{
name = top;
pos = (456,730);
}
);
attr = {
color = "1";
};
layerId = m003;
shapes = (
{
attr = {
gradient = {
colors = (
(
(64,255),
0
),
(
(191,255),
1
)
);
end = (0.082,0.9228);
start = (0.9659,0.1);
};
};
closed = 1;
nodes = (
(801,0,l),
(801,244,l),
(35,244,l),
(35,243,l),
(237,0,l)
);
},
{
attr = {
gradient = {
colors = (
(
(64,255),
0
),
(
(191,255),
1
)
);
end = (0.4877,0.9217);
start = (0.5389,0.033);
};
};
closed = 1;
nodes = (
(289,244,l),
(289,730,l),
(35,730,l),
(35,244,l)
);
},
{
attr = {
gradient = {
colors = (
(
(64,255),
0
),
(
(191,255),
1
)
);
end = (0.8437,0.8454);
start = (0.0849,0.1153);
};
};
closed = 1;
nodes = (
(698,263,l),
(698,467,l),
(289,467,l),
(289,263,l)
);
},
{
attr = {
gradient = {
colors = (
(
(64,255),
0
),
(
(191,255),
1
)
);
end = (0.713,0.9264);
start = (0.0306,0.307);
};
};
closed = 1;
nodes = (
(650,486,l),
(852,729,l),
(852,730,l),
(289,730,l),
(289,486,l)
);
}
);
width = 832;
},
{
anchors = (
{
name = bottom;
pos = (190,0);
},
{
name = top;
pos = (186,705);
}
);
attr = {
color = "1";
};
layerId = "B297D401-77A1-4CCB-A385-A5DBDDA4353D";
shapes = (
{
attr = {
gradient = {
colors = (
(
(64,255),
0
),
(
(191,255),
1
)
);
end = (0.0726,0.8409);
start = (0.9727,0.513);
};
};
closed = 1;
nodes = (
(310,0,l),
(310,54,l),
(50,54,l),
(50,53,l),
(104,0,l)
);
},
{
attr = {
gradient = {
colors = (
(
(64,255),
0
),
(
(191,255),
1
)
);
end = (0.5603,0.9888);
start = (0.4654,0.007);
};
};
closed = 1;
nodes = (
(106,54,l),
(106,705,l),
(50,705,l),
(50,54,l)
);
},
{
attr = {
gradient = {
colors = (
(
(64,255),
0
),
(
(191,255),
1
)
);
end = (0.9395,0.824);
start = (0.0304,0.1025);
};
};
closed = 1;
nodes = (
(273,341,l),
(273,389,l),
(106,389,l),
(106,341,l)
);
},
{
attr = {
gradient = {
colors = (
(
(64,255),
0
),
(
(191,255),
1
)
);
end = (0.9219,0.702);
start = (0.0502,0.2276);
};
};
closed = 1;
nodes = (
(266,651,l),
(319,704,l),
(319,705,l),
(106,705,l),
(106,651,l)
);
}
);
width = 332;
},
{
anchors = (
{
name = bottom;
pos = (244,0);
},
{
name = top;
pos = (234,710);
}
);
attr = {
color = "1";
};
layerId = "68348742-A108-42ED-B86C-DC367B3F2871";
shapes = (
{
attr = {
gradient = {
colors = (
(
(64,255),
0
),
(
(191,255),
1
)
);
end = (0.082,0.9228);
start = (0.9659,0.1);
};
};
closed = 1;
nodes = (
(400,0,l),
(400,84,l),
(47,84,l),
(47,83,l),
(131,0,l)
);
},
{
attr = {
gradient = {
colors = (
(
(64,255),
0
),
(
(191,255),
1
)
);
end = (0.4877,0.9217);
start = (0.5389,0.033);
};
};
closed = 1;
nodes = (
(135,84,l),
(135,710,l),
(47,710,l),
(47,84,l)
);
},
{
attr = {
gradient = {
colors = (
(
(64,255),
0
),
(
(191,255),
1
)
);
end = (0.8437,0.8454);
start = (0.0849,0.1153);
};
};
closed = 1;
nodes = (
(350,329,l),
(350,401,l),
(135,401,l),
(135,329,l)
);
},
{
attr = {
gradient = {
colors = (
(
(64,255),
0
),
(
(191,255),
1
)
);
end = (0.713,0.9264);
start = (0.0306,0.307);
};
};
closed = 1;
nodes = (
(335,626,l),
(418,709,l),
(418,710,l),
(135,710,l),
(135,626,l)
);
}
);
width = 424;
},
{
anchors = (
{
name = bottom;
pos = (299,0);
},
{
name = top;
pos = (282,715);
}
);
attr = {
color = "1";
};
layerId = "0A98D1B9-7B82-4B4E-AB5F-E1C30C6E6C41";
shapes = (
{
attr = {
gradient = {
colors = (
(
(64,255),
0
),
(
(191,255),
1
)
);
end = (0.082,0.9228);
start = (0.9659,0.1);
};
};
closed = 1;
nodes = (
(490,0,l),
(490,114,l),
(44,114,l),
(44,113,l),
(158,0,l)
);
},
{
attr = {
gradient = {
colors = (
(
(64,255),
0
),
(
(191,255),
1
)
);
end = (0.4877,0.9217);
start = (0.5389,0.033);
};
};
closed = 1;
nodes = (
(164,114,l),
(164,715,l),
(44,715,l),
(44,114,l)
);
},
{
attr = {
gradient = {
colors = (
(
(64,255),
0
),
(
(191,255),
1
)
);
end = (0.8437,0.8454);
start = (0.0849,0.1153);
};
};
closed = 1;
nodes = (
(427,318,l),
(427,413,l),
(164,413,l),
(164,318,l)
);
},
{
attr = {
gradient = {
colors = (
(
(64,255),
0
),
(
(191,255),
1
)
);
end = (0.713,0.9264);
start = (0.0306,0.307);
};
};
closed = 1;
nodes = (
(404,601,l),
(517,714,l),
(517,715,l),
(164,715,l),
(164,601,l)
);
}
);
width = 516;
},
{
anchors = (
{
name = bottom;
pos = (326,0);
},
{
name = top;
pos = (306,718);
}
);
attr = {
color = "1";
};
layerId = "7599F073-2954-4FFC-B8EF-B2010DD53262";
shapes = (
{
attr = {
gradient = {
colors = (
(
(64,255),
0
),
(
(191,255),
1
)
);
end = (0.082,0.9228);
start = (0.9659,0.1);
};
};
closed = 1;
nodes = (
(535,0,l),
(535,129,l),
(43,129,l),
(43,128,l),
(171,0,l)
);
},
{
attr = {
gradient = {
colors = (
(
(64,255),
0
),
(
(191,255),
1
)
);
end = (0.4877,0.9217);
start = (0.5389,0.033);
};
};
closed = 1;
nodes = (
(178,129,l),
(178,718,l),
(43,718,l),
(43,129,l)
);
},
{
attr = {
gradient = {
colors = (
(
(64,255),
0
),
(
(191,255),
1
)
);
end = (0.8437,0.8454);
start = (0.0849,0.1153);
};
};
closed = 1;
nodes = (
(466,312,l),
(466,419,l),
(178,419,l),
(178,312,l)
);
},
{
attr = {
gradient = {
colors = (
(
(64,255),
0
),
(
(191,255),
1
)
);
end = (0.713,0.9264);
start = (0.0306,0.307);
};
};
closed = 1;
nodes = (
(438,589,l),
(566,717,l),
(566,718,l),
(178,718,l),
(178,589,l)
);
}
);
width = 562;
},
{
anchors = (
{
name = bottom;
pos = (380,0);
},
{
name = top;
pos = (354,723);
}
);
attr = {
color = "1";
};
layerId = "5E49A2BD-5AA6-4751-9DCC-F05514CFF0B0";
shapes = (
{
attr = {
gradient = {
colors = (
(
(64,255),
0
),
(
(191,255),
1
)
);
end = (0.082,0.9228);
start = (0.9659,0.1);
};
};
closed = 1;
nodes = (
(625,0,l),
(625,159,l),
(40,159,l),
(40,158,l),
(197,0,l)
);
},
{
attr = {
gradient = {
colors = (
(
(64,255),
0
),
(
(191,255),
1
)
);
end = (0.4877,0.9217);
start = (0.5389,0.033);
};
};
closed = 1;
nodes = (
(206,159,l),
(206,723,l),
(40,723,l),
(40,159,l)
);
},
{
attr = {
gradient = {
colors = (
(
(64,255),
0
),
(
(191,255),
1
)
);
end = (0.8437,0.8454);
start = (0.0849,0.1153);
};
};
closed = 1;
nodes = (
(543,300,l),
(543,430,l),
(206,430,l),
(206,300,l)
);
},
{
attr = {
gradient = {
colors = (
(
(64,255),
0
),
(
(191,255),
1
)
);
end = (0.713,0.9264);
start = (0.0306,0.307);
};
};
closed = 1;
nodes = (
(507,564,l),
(664,722,l),
(664,723,l),
(206,723,l),
(206,564,l)
);
}
);
width = 654;
}
);
unicode = 69;
},
{
glyphname = Schwa;
kernRight = O;
lastChange = "2022-07-15 13:20:02 +0000";
layers = (
{
attr = {
color = "1";
};
layerId = "33AE93C6-B8B3-427A-A53B-F24970E840CE";
shapes = (
{
attr = {
gradient = {
colors = (
(
(64,255),
0
),
(
(191,255),
1
)
);
end = (0.9022,0.4068);
start = (0.0925,0.2157);
};
};
closed = 1;
nodes = (
(200,676,l),
(200,677,l),
(176,700,l),
(56,700,l),
(33,677,l),
(33,676,l)
);
},
{
attr = {
gradient = {
colors = (
(
(64,255),
0
),
(
(191,255),
1
)
);
end = (0.0917,0.866);
start = (0.8996,0.6391);
};
};
closed = 1;
nodes = (
(176,0,l),
(176,24,l),
(33,24,l),
(33,23,l),
(56,0,l)
);
},
{
attr = {
gradient = {
colors = (
(
(64,255),
0
),
(
(191,255),
1
)
);
end = (0.4736,0.8942);
start = (0.4745,0.0713);
};
};
closed = 1;
nodes = (
(57,24,l),
(57,347,l),
(56,347,l),
(33,324,l),
(33,24,l)
);
},
{
attr = {
gradient = {
colors = (
(
(64,255),
0
),
(
(191,255),
1
)
);
end = (0.8878,0.5878);
start = (0.0693,0.513);
};
};
closed = 1;
nodes = (
(176,323,l),
(176,347,l),
(57,347,l),
(57,323,l)
);
},
{
attr = {
gradient = {
colors = (
(
(64,255),
0
),
(
(191,255),
1
)
);
end = (0.4596,0.0641);
start = (0.5433,0.9659);
};
};
closed = 1;
nodes = (
(177,0,l),
(200,24,l),
(200,676,l),
(176,676,l),
(176,0,l)
);
}
);
width = 253;
},
{
attr = {
color = "1";
};
layerId = "E87239EE-82B8-404C-B23A-53843E270889";
shapes = (
{
attr = {
gradient = {
colors = (
(
(64,255),
0
),
(
(191,255),
1
)
);
end = (0.7686,0.6388);
start = (0.0583,0.0502);
};
};
closed = 1;
nodes = (
(711,526,l),
(711,527,l),
(509,730,l),
(227,730,l),
(25,527,l),
(25,526,l)
);
},
{
attr = {
gradient = {
colors = (
(
(64,255),
0
),
(
(191,255),
1
)
);
end = (0.3541,0.2122);
start = (0.9654,0.9119);
};
};
closed = 1;
nodes = (
(497,0,l),
(497,204,l),
(25,204,l),
(25,203,l),
(227,0,l)
);
},
{
attr = {
gradient = {
colors = (
(
(64,255),
0
),
(
(191,255),
1
)
);
end = (0.9291,0.8367);
start = (0.1107,0.0655);
};
};
closed = 1;
nodes = (
(239,204,l),
(239,467,l),
(238,467,l),
(25,265,l),
(25,204,l)
);
},
{
attr = {
gradient = {
colors = (
(
(64,255),
0
),
(
(191,255),
1
)
);
end = (0.9313,0.1669);
start = (0.0923,0.8678);
};
};
closed = 1;
nodes = (
(497,263,l),
(497,467,l),
(239,467,l),
(239,263,l)
);
},
{
attr = {
gradient = {
colors = (
(
(64,255),
0
),
(
(191,255),
1
)
);
end = (0.6652,0.3427);
start = (0.1474,0.954);
};
};
closed = 1;
nodes = (
(498,0,l),
(711,202,l),
(711,526,l),
(497,526,l),
(497,0,l)
);
}
);
width = 736;
},
{
attr = {
color = "1";
};
layerId = m003;
shapes = (
{
attr = {
gradient = {
colors = (
(
(64,255),
0
),
(
(191,255),
1
)
);
end = (0.7478,0.8617);
start = (0.0583,0.0502);
};
};
closed = 1;
nodes = (
(791,486,l),
(791,487,l),
(589,730,l),
(227,730,l),
(25,487,l),
(25,486,l)
);
},
{
attr = {
gradient = {
colors = (
(
(64,255),
0
),
(
(191,255),
1
)
);
end = (0.3541,0.2122);
start = (0.9654,0.9119);
};
};
closed = 1;
nodes = (
(537,0,l),
(537,244,l),
(25,244,l),
(25,243,l),
(227,0,l)
);
},
{
attr = {
gradient = {
colors = (
(
(64,255),
0
),
(
(191,255),
1
)
);
end = (0.9291,0.8367);
start = (0.1107,0.0655);
};
};
closed = 1;
nodes = (
(279,244,l),
(279,467,l),
(278,467,l),
(25,265,l),
(25,244,l)
);
},
{
attr = {
gradient = {
colors = (
(
(64,255),
0
),
(
(191,255),
1
)
);
end = (0.9313,0.1669);
start = (0.0923,0.8678);
};
};
closed = 1;
nodes = (
(537,263,l),
(537,467,l),
(279,467,l),
(279,263,l)
);
},
{
attr = {
gradient = {
colors = (
(
(64,255),
0
),
(
(191,255),
1
)
);
end = (0.6652,0.3427);
start = (0.1474,0.954);
};
};
closed = 1;
nodes = (
(538,0,l),
(791,202,l),
(791,486,l),
(537,486,l),
(537,0,l)
);
}
);
width = 816;
},
{
attr = {
color = "1";
};
layerId = "B297D401-77A1-4CCB-A385-A5DBDDA4353D";
shapes = (
{
attr = {
gradient = {
colors = (
(
(64,255),
0
),
(
(191,255),
1
)
);
end = (0.9022,0.4068);
start = (0.0925,0.2157);
};
};
closed = 1;
nodes = (
(285,651,l),
(285,652,l),
(232,705,l),
(85,705,l),
(32,652,l),
(32,651,l)
);
},
{
attr = {
gradient = {
colors = (
(
(64,255),
0
),
(
(191,255),
1
)
);
end = (0.1881,0.7085);
start = (0.9386,0.5539);
};
};
closed = 1;
nodes = (
(230,0,l),
(230,54,l),
(32,54,l),
(32,53,l),
(85,0,l)
);
},
{
attr = {
gradient = {
colors = (
(
(64,255),
0
),
(
(191,255),
1
)
);
end = (0.4736,0.8942);
start = (0.4745,0.0713);
};
};
closed = 1;
nodes = (
(87,54,l),
(87,367,l),
(86,367,l),
(32,314,l),
(32,54,l)
);
},
{
attr = {
gradient = {
colors = (
(
(64,255),
0
),
(
(191,255),
1
)
);
end = (0.8878,0.5878);
start = (0.0693,0.513);
};
};
closed = 1;
nodes = (
(230,313,l),
(230,367,l),
(87,367,l),
(87,313,l)
);
},
{
attr = {
gradient = {
colors = (
(
(64,255),
0
),
(
(191,255),
1
)
);
end = (0.4596,0.0641);
start = (0.5433,0.9659);
};
};
closed = 1;
nodes = (
(231,0,l),
(285,54,l),
(285,651,l),
(230,651,l),
(230,0,l)
);
}
);
width = 333.5;
},
{
attr = {
color = "1";
};
layerId = "68348742-A108-42ED-B86C-DC367B3F2871";
shapes = (
{
attr = {
gradient = {
colors = (
(
(64,255),
0
),
(
(191,255),
1
)
);
end = (0.7686,0.6388);
start = (0.0583,0.0502);
};
};
closed = 1;
nodes = (
(370,626,l),
(370,627,l),
(287,710,l),
(113,710,l),
(31,627,l),
(31,626,l)
);
},
{
attr = {
gradient = {
colors = (
(
(64,255),
0
),
(
(191,255),
1
)
);
end = (0.3541,0.2122);
start = (0.9654,0.9119);
};
};
closed = 1;
nodes = (
(283,0,l),
(283,84,l),
(31,84,l),
(31,83,l),
(113,0,l)
);
},
{
attr = {
gradient = {
colors = (
(
(64,255),
0
),
(
(191,255),
1
)
);
end = (0.9291,0.8367);
start = (0.1107,0.0655);
};
};
closed = 1;
nodes = (
(117,84,l),
(117,387,l),
(116,387,l),
(31,304,l),
(31,84,l)
);
},
{
attr = {
gradient = {
colors = (
(
(64,255),
0
),
(
(191,255),
1
)
);
end = (0.9313,0.1669);
start = (0.0923,0.8678);
};
};
closed = 1;
nodes = (
(283,303,l),
(283,387,l),
(117,387,l),
(117,303,l)
);
},
{
attr = {
gradient = {
colors = (
(
(64,255),
0
),
(
(191,255),
1
)
);
end = (0.6652,0.3427);
start = (0.1474,0.954);
};
};
closed = 1;
nodes = (
(284,0,l),
(370,84,l),
(370,626,l),
(283,626,l),
(283,0,l)
);
}
);
width = 414;
},
{
attr = {
color = "1";
};
layerId = "0A98D1B9-7B82-4B4E-AB5F-E1C30C6E6C41";
shapes = (
{
attr = {
gradient = {
colors = (
(
(64,255),
0
),
(
(191,255),
1
)
);
end = (0.7686,0.6388);
start = (0.0583,0.0502);
};
};
closed = 1;
nodes = (
(455,601,l),
(455,602,l),
(343,715,l),
(142,715,l),
(30,602,l),
(30,601,l)
);
},
{
attr = {
gradient = {
colors = (
(
(64,255),
0
),
(
(191,255),
1
)
);
end = (0.3541,0.2122);
start = (0.9654,0.9119);
};
};
closed = 1;
nodes = (
(337,0,l),
(337,114,l),
(30,114,l),
(30,113,l),
(142,0,l)
);
},
{
attr = {
gradient = {
colors = (
(
(64,255),
0
),
(
(191,255),
1
)
);
end = (0.9291,0.8367);
start = (0.1107,0.0655);
};
};
closed = 1;
nodes = (
(148,114,l),
(148,407,l),
(147,407,l),
(30,294,l),
(30,114,l)
);
},
{
attr = {
gradient = {
colors = (
(
(64,255),
0
),
(
(191,255),
1
)
);
end = (0.9313,0.1669);
start = (0.0923,0.8678);
};
};
closed = 1;
nodes = (
(337,293,l),
(337,407,l),
(148,407,l),
(148,293,l)
);
},
{
attr = {
gradient = {
colors = (
(
(64,255),
0
),
(
(191,255),
1
)
);
end = (0.6652,0.3427);
start = (0.1474,0.954);
};
};
closed = 1;
nodes = (
(338,0,l),
(455,114,l),
(455,601,l),
(337,601,l),
(337,0,l)
);
}
);
width = 494.5;
},
{
attr = {
color = "1";
};
layerId = "7599F073-2954-4FFC-B8EF-B2010DD53262";
shapes = (
{
attr = {
gradient = {
colors = (
(
(64,255),
0
),
(
(191,255),
1
)
);
end = (0.7686,0.6388);
start = (0.0583,0.0502);
};
};
closed = 1;
nodes = (
(498,589,l),
(498,590,l),
(371,718,l),
(156,718,l),
(29,590,l),
(29,589,l)
);
},
{
attr = {
gradient = {
colors = (
(
(64,255),
0
),
(
(191,255),
1
)
);
end = (0.3541,0.2122);
start = (0.9654,0.9119);
};
};
closed = 1;
nodes = (
(364,0,l),
(364,129,l),
(29,129,l),
(29,128,l),
(156,0,l)
);
},
{
attr = {
gradient = {
colors = (
(
(64,255),
0
),
(
(191,255),
1
)
);
end = (0.9291,0.8367);
start = (0.1107,0.0655);
};
};
closed = 1;
nodes = (
(163,129,l),
(163,417,l),
(162,417,l),
(29,289,l),
(29,129,l)
);
},
{
attr = {
gradient = {
colors = (
(
(64,255),
0
),
(
(191,255),
1
)
);
end = (0.9313,0.1669);
start = (0.0923,0.8678);
};
};
closed = 1;
nodes = (
(364,288,l),
(364,417,l),
(163,417,l),
(163,288,l)
);
},
{
attr = {
gradient = {
colors = (
(
(64,255),
0
),
(
(191,255),
1
)
);
end = (0.6652,0.3427);
start = (0.1474,0.954);
};
};
closed = 1;
nodes = (
(365,0,l),
(498,129,l),
(498,589,l),
(364,589,l),
(364,0,l)
);
}
);
width = 534.75;
},
{
attr = {
color = "1";
};
layerId = "5E49A2BD-5AA6-4751-9DCC-F05514CFF0B0";
shapes = (
{
attr = {
gradient = {
colors = (
(
(64,255),
0
),
(
(191,255),
1
)
);
end = (0.7686,0.6388);
start = (0.0583,0.0502);
};
};
closed = 1;
nodes = (
(583,564,l),
(583,565,l),
(426,723,l),
(184,723,l),
(27,565,l),
(27,564,l)
);
},
{
attr = {
gradient = {
colors = (
(
(64,255),
0
),
(
(191,255),
1
)
);
end = (0.3541,0.2122);
start = (0.9654,0.9119);
};
};
closed = 1;
nodes = (
(417,0,l),
(417,159,l),
(27,159,l),
(27,158,l),
(184,0,l)
);
},
{
attr = {
gradient = {
colors = (
(
(64,255),
0
),
(
(191,255),
1
)
);
end = (0.9291,0.8367);
start = (0.1107,0.0655);
};
};
closed = 1;
nodes = (
(193,159,l),
(193,437,l),
(192,437,l),
(27,279,l),
(27,159,l)
);
},
{
attr = {
gradient = {
colors = (
(
(64,255),
0
),
(
(191,255),
1
)
);
end = (0.9313,0.1669);
start = (0.0923,0.8678);
};
};
closed = 1;
nodes = (
(417,278,l),
(417,437,l),
(193,437,l),
(193,278,l)
);
},
{
attr = {
gradient = {
colors = (
(
(64,255),
0
),
(
(191,255),
1
)
);
end = (0.6652,0.3427);
start = (0.1474,0.954);
};
};
closed = 1;
nodes = (
(418,0,l),
(583,158,l),
(583,564,l),
(417,564,l),
(417,0,l)
);
}
);
width = 615.25;
}
);
unicode = 399;
},
{
glyphname = F;
kernLeft = H;
lastChange = "2022-07-15 12:10:08 +0000";
layers = (
{
attr = {
color = "1";
};
layerId = "33AE93C6-B8B3-427A-A53B-F24970E840CE";
shapes = (
{
attr = {
gradient = {
colors = (
(
(64,255),
0
),
(
(191,255),
1
)
);
end = (0.8878,0.5878);
start = (0.0693,0.513);
};
};
closed = 1;
nodes = (
(197,676,l),
(220,699,l),
(220,700,l),
(77,700,l),
(77,676,l)
);
},
{
attr = {
gradient = {
colors = (
(
(64,255),
0
),
(
(191,255),
1
)
);
end = (0.2075,0.9607);
start = (0.6091,0.0797);
};
};
closed = 1;
nodes = (
(77,0,l),
(77,353,l),
(53,376,l),
(53,0,l)
);
},
{
attr = {
gradient = {
colors = (
(
(64,255),
0
),
(
(191,255),
1
)
);
end = (0.1309,0.7659);
start = (0.904,0.5091);
};
};
closed = 1;
nodes = (
(196,353,l),
(196,377,l),
(53,377,l),
(53,376,l),
(77,353,l)
);
},
{
attr = {
gradient = {
colors = (
(
(64,255),
0
),
(
(191,255),
1
)
);
end = (0.5074,0.9658);
start = (0.6091,0.0797);
};
};
closed = 1;
nodes = (
(77,377,l),
(77,700,l),
(53,700,l),
(53,377,l)
);
}
);
width = 220;
},
{
attr = {
color = "1";
};
layerId = "E87239EE-82B8-404C-B23A-53843E270889";
shapes = (
{
attr = {
gradient = {
colors = (
(
(64,255),
0
),
(
(191,255),
1
)
);
end = (0.713,0.9264);
start = (0.0306,0.307);
};
};
closed = 1;
nodes = (
(590,526,l),
(792,729,l),
(792,730,l),
(249,730,l),
(249,526,l)
);
},
{
attr = {
gradient = {
colors = (
(
(64,255),
0
),
(
(191,255),
1
)
);
end = (0.0701,0.8818);
start = (0.8303,0.1058);
};
};
closed = 1;
nodes = (
(249,0,l),
(249,193,l),
(35,396,l),
(35,0,l)
);
},
{
attr = {
gradient = {
colors = (
(
(64,255),
0
),
(
(191,255),
1
)
);
end = (0.1643,0.8838);
start = (0.9403,0.2295);
};
};
closed = 1;
nodes = (
(638,193,l),
(638,397,l),
(35,397,l),
(35,396,l),
(249,193,l)
);
},
{
attr = {
gradient = {
colors = (
(
(64,255),
0
),
(
(191,255),
1
)
);
end = (0.4877,0.9217);
start = (0.3734,0.0517);
};
};
closed = 1;
nodes = (
(249,397,l),
(249,730,l),
(35,730,l),
(35,397,l)
);
}
);
width = 787;
},
{
attr = {
color = "1";
};
layerId = m003;
shapes = (
{
attr = {
gradient = {
colors = (
(
(64,255),
0
),
(
(191,255),
1
)
);
end = (0.713,0.9264);
start = (0.0306,0.307);
};
};
closed = 1;
nodes = (
(630,486,l),
(832,729,l),
(832,730,l),
(289,730,l),
(289,486,l)
);
},
{
attr = {
gradient = {
colors = (
(
(64,255),
0
),
(
(191,255),
1
)
);
end = (0.0533,0.9289);
start = (0.896,0.1068);
};
};
closed = 1;
nodes = (
(289,0,l),
(289,212,l),
(35,415,l),
(35,0,l)
);
},
{
attr = {
gradient = {
colors = (
(
(64,255),
0
),
(
(191,255),
1
)
);
end = (0.2375,0.8411);
start = (0.9403,0.2295);
};
};
closed = 1;
nodes = (
(678,212,l),
(678,416,l),
(35,416,l),
(35,415,l),
(289,212,l)
);
},
{
attr = {
gradient = {
colors = (
(
(64,255),
0
),
(
(191,255),
1
)
);
end = (0.4877,0.9217);
start = (0.3698,0.0603);
};
};
closed = 1;
nodes = (
(289,416,l),
(289,730,l),
(35,730,l),
(35,416,l)
);
}
);
width = 827;
},
{
attr = {
color = "1";
};
layerId = "B297D401-77A1-4CCB-A385-A5DBDDA4353D";
shapes = (
{
attr = {
gradient = {
colors = (
(
(64,255),
0
),
(
(191,255),
1
)
);
end = (0.8878,0.5878);
start = (0.0693,0.513);
};
};
closed = 1;
nodes = (
(263,651,l),
(315,704,l),
(315,705,l),
(106,705,l),
(106,651,l)
);
},
{
attr = {
gradient = {
colors = (
(
(64,255),
0
),
(
(191,255),
1
)
);
end = (0.2075,0.9607);
start = (0.6091,0.0797);
};
};
closed = 1;
nodes = (
(106,0,l),
(106,326,l),
(50,379,l),
(50,0,l)
);
},
{
attr = {
gradient = {
colors = (
(
(64,255),
0
),
(
(191,255),
1
)
);
end = (0.1309,0.7659);
start = (0.904,0.5091);
};
};
closed = 1;
nodes = (
(270,326,l),
(270,380,l),
(50,380,l),
(50,379,l),
(106,326,l)
);
},
{
attr = {
gradient = {
colors = (
(
(64,255),
0
),
(
(191,255),
1
)
);
end = (0.5074,0.9658);
start = (0.6091,0.0797);
};
};
closed = 1;
nodes = (
(106,380,l),
(106,705,l),
(50,705,l),
(50,380,l)
);
}
);
width = 314.5;
},
{
attr = {
color = "1";
};
layerId = "68348742-A108-42ED-B86C-DC367B3F2871";
shapes = (
{
attr = {
gradient = {
colors = (
(
(64,255),
0
),
(
(191,255),
1
)
);
end = (0.713,0.9264);
start = (0.0306,0.307);
};
};
closed = 1;
nodes = (
(328,626,l),
(410,709,l),
(410,710,l),
(135,710,l),
(135,626,l)
);
},
{
attr = {
gradient = {
colors = (
(
(64,255),
0
),
(
(191,255),
1
)
);
end = (0.0701,0.8818);
start = (0.8303,0.1058);
};
};
closed = 1;
nodes = (
(135,0,l),
(135,299,l),
(47,382,l),
(47,0,l)
);
},
{
attr = {
gradient = {
colors = (
(
(64,255),
0
),
(
(191,255),
1
)
);
end = (0.1643,0.8838);
start = (0.9403,0.2295);
};
};
closed = 1;
nodes = (
(344,299,l),
(344,383,l),
(47,383,l),
(47,382,l),
(135,299,l)
);
},
{
attr = {
gradient = {
colors = (
(
(64,255),
0
),
(
(191,255),
1
)
);
end = (0.4877,0.9217);
start = (0.3734,0.0517);
};
};
closed = 1;
nodes = (
(135,383,l),
(135,710,l),
(47,710,l),
(47,383,l)
);
}
);
width = 409;
},
{
attr = {
color = "1";
};
layerId = "0A98D1B9-7B82-4B4E-AB5F-E1C30C6E6C41";
shapes = (
{
attr = {
gradient = {
colors = (
(
(64,255),
0
),
(
(191,255),
1
)
);
end = (0.713,0.9264);
start = (0.0306,0.307);
};
};
closed = 1;
nodes = (
(394,601,l),
(506,714,l),
(506,715,l),
(164,715,l),
(164,601,l)
);
},
{
attr = {
gradient = {
colors = (
(
(64,255),
0
),
(
(191,255),
1
)
);
end = (0.0701,0.8818);
start = (0.8303,0.1058);
};
};
closed = 1;
nodes = (
(164,0,l),
(164,273,l),
(44,386,l),
(44,0,l)
);
},
{
attr = {
gradient = {
colors = (
(
(64,255),
0
),
(
(191,255),
1
)
);
end = (0.1643,0.8838);
start = (0.9403,0.2295);
};
};
closed = 1;
nodes = (
(418,273,l),
(418,387,l),
(44,387,l),
(44,386,l),
(164,273,l)
);
},
{
attr = {
gradient = {
colors = (
(
(64,255),
0
),
(
(191,255),
1
)
);
end = (0.4877,0.9217);
start = (0.3734,0.0517);
};
};
closed = 1;
nodes = (
(164,387,l),
(164,715,l),
(44,715,l),
(44,387,l)
);
}
);
width = 503.5;
},
{
attr = {
color = "1";
};
layerId = "7599F073-2954-4FFC-B8EF-B2010DD53262";
shapes = (
{
attr = {
gradient = {
colors = (
(
(64,255),
0
),
(
(191,255),
1
)
);
end = (0.713,0.9264);
start = (0.0306,0.307);
};
};
closed = 1;
nodes = (
(427,589,l),
(554,717,l),
(554,718,l),
(178,718,l),
(178,589,l)
);
},
{
attr = {
gradient = {
colors = (
(
(64,255),
0
),
(
(191,255),
1
)
);
end = (0.0701,0.8818);
start = (0.8303,0.1058);
};
};
closed = 1;
nodes = (
(178,0,l),
(178,260,l),
(43,388,l),
(43,0,l)
);
},
{
attr = {
gradient = {
colors = (
(
(64,255),
0
),
(
(191,255),
1
)
);
end = (0.1643,0.8838);
start = (0.9403,0.2295);
};
};
closed = 1;
nodes = (
(455,260,l),
(455,389,l),
(43,389,l),
(43,388,l),
(178,260,l)
);
},
{
attr = {
gradient = {
colors = (
(
(64,255),
0
),
(
(191,255),
1
)
);
end = (0.4877,0.9217);
start = (0.3734,0.0517);
};
};
closed = 1;
nodes = (
(178,389,l),
(178,718,l),
(43,718,l),
(43,389,l)
);
}
);
width = 550.75;
},
{
attr = {
color = "1";
};
layerId = "5E49A2BD-5AA6-4751-9DCC-F05514CFF0B0";
shapes = (
{
attr = {
gradient = {
colors = (
(
(64,255),
0
),
(
(191,255),
1
)
);
end = (0.713,0.9264);
start = (0.0306,0.307);
};
};
closed = 1;
nodes = (
(492,564,l),
(649,722,l),
(649,723,l),
(206,723,l),
(206,564,l)
);
},
{
attr = {
gradient = {
colors = (
(
(64,255),
0
),
(
(191,255),
1
)
);
end = (0.0701,0.8818);
start = (0.8303,0.1058);
};
};
closed = 1;
nodes = (
(206,0,l),
(206,233,l),
(40,391,l),
(40,0,l)
);
},
{
attr = {
gradient = {
colors = (
(
(64,255),
0
),
(
(191,255),
1
)
);
end = (0.1643,0.8838);
start = (0.9403,0.2295);
};
};
closed = 1;
nodes = (
(528,233,l),
(528,392,l),
(40,392,l),
(40,391,l),
(206,233,l)
);
},
{
attr = {
gradient = {
colors = (
(
(64,255),
0
),
(
(191,255),
1
)
);
end = (0.4877,0.9217);
start = (0.3734,0.0517);
};
};
closed = 1;
nodes = (
(206,392,l),
(206,723,l),
(40,723,l),
(40,392,l)
);
}
);
width = 645.25;
}
);
unicode = 70;
},
{
glyphname = G;
kernLeft = O;
lastChange = "2022-07-15 12:10:08 +0000";
layers = (
{
anchors = (
{
name = bottom;
pos = (146,0);
},
{
name = top;
pos = (138,700);
}
);
attr = {
color = "1";
};
layerId = "33AE93C6-B8B3-427A-A53B-F24970E840CE";
shapes = (
{
attr = {
gradient = {
colors = (
(
(64,255),
0
),
(
(191,255),
1
)
);
end = (0.8562,0.2904);
start = (0.0693,0.513);
};
};
closed = 1;
nodes = (
(220,676,l),
(220,677,l),
(197,700,l),
(77,700,l),
(77,676,l)
);
},
{
attr = {
gradient = {
colors = (
(
(191,255),
0
),
(
(64,255),
1
)
);
end = (0.8878,0.5878);
start = (0.1247,0.7286);
};
};
closed = 1;
nodes = (
(196,0,l),
(196,24,l),
(53,24,l),
(53,23,l),
(76,0,l)
);
},
{
attr = {
gradient = {
colors = (
(
(64,255),
0
),
(
(191,255),
1
)
);
end = (0.4877,0.9217);
start = (0.4333,0.0197);
};
};
closed = 1;
nodes = (
(77,24,l),
(77,700,l),
(76,700,l),
(53,677,l),
(53,24,l)
);
},
{
attr = {
gradient = {
colors = (
(
(191,255),
0
),
(
(64,255),
1
)
);
end = (0.9111,0.3057);
start = (0.0868,0.6251);
};
};
closed = 1;
nodes = (
(196,353,l),
(196,377,l),
(123,377,l),
(123,353,l)
);
},
{
attr = {
gradient = {
colors = (
(
(64,255),
0.01851
),
(
(191,255),
1
)
);
end = (0.4794,0.2384);
start = (0.2737,0.9568);
};
};
closed = 1;
nodes = (
(197,0,l),
(220,24,l),
(220,353,l),
(197,377,l),
(196,377,l),
(196,0,l)
);
}
);
width = 263;
},
{
anchors = (
{
name = bottom;
pos = (495,0);
},
{
name = top;
pos = (483,730);
}
);
attr = {
color = "1";
};
layerId = "E87239EE-82B8-404C-B23A-53843E270889";
shapes = (
{
attr = {
gradient = {
colors = (
(
(64,255),
0
),
(
(191,255),
1
)
);
end = (0.8994,0.2091);
start = (0.0693,0.513);
};
};
closed = 1;
nodes = (
(902,526,l),
(902,527,l),
(700,730,l),
(239,730,l),
(239,526,l)
);
},
{
attr = {
gradient = {
colors = (
(
(191,255),
0
),
(
(64,255),
1
)
);
end = (0.8878,0.5878);
start = (0.0972,0.8461);
};
};
closed = 1;
nodes = (
(688,0,l),
(688,204,l),
(25,204,l),
(25,203,l),
(227,0,l)
);
},
{
attr = {
gradient = {
colors = (
(
(64,255),
0
),
(
(191,255),
1
)
);
end = (0.886,0.8843);
start = (0.4155,0.0354);
};
};
closed = 1;
nodes = (
(239,204,l),
(239,730,l),
(238,730,l),
(25,523,l),
(25,204,l)
);
},
{
attr = {
gradient = {
colors = (
(
(191,255),
0
),
(
(64,255),
1
)
);
end = (0.9409,0.3651);
start = (0.0373,0.848);
};
};
closed = 1;
nodes = (
(688,263,l),
(688,467,l),
(298,467,l),
(298,263,l)
);
},
{
attr = {
gradient = {
colors = (
(
(64,255),
0
),
(
(191,255),
1
)
);
end = (0.059,0.1786);
start = (0.926,0.5836);
};
};
closed = 1;
nodes = (
(689,0,l),
(902,197,l),
(902,274,l),
(689,467,l),
(688,467,l),
(688,0,l)
);
}
);
width = 927;
},
{
anchors = (
{
name = bottom;
pos = (535,0);
},
{
name = top;
pos = (523,730);
}
);
attr = {
color = "1";
};
layerId = m003;
shapes = (
{
attr = {
gradient = {
colors = (
(
(64,255),
0
),
(
(191,255),
1
)
);
end = (0.9021,0.1753);
start = (0.0362,0.2212);
};
};
closed = 1;
nodes = (
(982,486,l),
(982,487,l),
(780,730,l),
(279,730,l),
(279,486,l)
);
},
{
attr = {
gradient = {
colors = (
(
(191,255),
0
),
(
(64,255),
1
)
);
end = (0.8878,0.5878);
start = (0.0987,0.8239);
};
};
closed = 1;
nodes = (
(728,0,l),
(728,244,l),
(25,244,l),
(25,243,l),
(227,0,l)
);
},
{
attr = {
gradient = {
colors = (
(
(64,255),
0
),
(
(191,255),
1
)
);
end = (0.9238,0.9109);
start = (0.4151,0.0326);
};
};
closed = 1;
nodes = (
(279,244,l),
(279,730,l),
(278,730,l),
(25,523,l),
(25,244,l)
);
},
{
attr = {
gradient = {
colors = (
(
(191,255),
0
),
(
(64,255),
1
)
);
end = (0.9081,0.4266);
start = (0.0373,0.848);
};
};
closed = 1;
nodes = (
(728,263,l),
(728,467,l),
(299,466,l),
(299,263,l)
);
},
{
attr = {
gradient = {
colors = (
(
(64,255),
0
),
(
(191,255),
1
)
);
end = (0.087,0.1686);
start = (0.8888,0.549);
};
};
closed = 1;
nodes = (
(729,0,l),
(982,197,l),
(982,254,l),
(729,467,l),
(728,467,l),
(728,0,l)
);
}
);
width = 1007;
},
{
anchors = (
{
name = bottom;
pos = (204,0);
},
{
name = top;
pos = (196,705);
}
);
attr = {
color = "1";
};
layerId = "B297D401-77A1-4CCB-A385-A5DBDDA4353D";
shapes = (
{
attr = {
gradient = {
colors = (
(
(64,255),
0
),
(
(191,255),
1
)
);
end = (0.8562,0.2904);
start = (0.0693,0.513);
};
};
closed = 1;
nodes = (
(334,651,l),
(334,652,l),
(281,705,l),
(104,705,l),
(104,651,l)
);
},
{
attr = {
gradient = {
colors = (
(
(191,255),
0
),
(
(64,255),
1
)
);
end = (0.8878,0.5878);
start = (0.1247,0.7286);
};
};
closed = 1;
nodes = (
(278,0,l),
(278,54,l),
(48,54,l),
(48,53,l),
(101,0,l)
);
},
{
attr = {
gradient = {
colors = (
(
(64,255),
0
),
(
(191,255),
1
)
);
end = (0.4877,0.9217);
start = (0.4333,0.0197);
};
};
closed = 1;
nodes = (
(104,54,l),
(104,705,l),
(103,705,l),
(48,651,l),
(48,54,l)
);
},
{
attr = {
gradient = {
colors = (
(
(191,255),
0
),
(
(64,255),
1
)
);
end = (0.9111,0.3057);
start = (0.0868,0.6251);
};
};
closed = 1;
nodes = (
(278,338,l),
(278,392,l),
(152,392,l),
(152,338,l)
);
},
{
attr = {
gradient = {
colors = (
(
(64,255),
0.01851
),
(
(191,255),
1
)
);
end = (0.4794,0.2384);
start = (0.2737,0.9568);
};
};
closed = 1;
nodes = (
(279,0,l),
(334,53,l),
(334,340,l),
(279,392,l),
(278,392,l),
(278,0,l)
);
}
);
width = 373.66667;
},
{
anchors = (
{
name = bottom;
pos = (262,0);
},
{
name = top;
pos = (253,710);
}
);
attr = {
color = "1";
};
layerId = "68348742-A108-42ED-B86C-DC367B3F2871";
shapes = (
{
attr = {
gradient = {
colors = (
(
(64,255),
0
),
(
(191,255),
1
)
);
end = (0.8994,0.2091);
start = (0.0693,0.513);
};
};
closed = 1;
nodes = (
(448,626,l),
(448,627,l),
(365,710,l),
(131,710,l),
(131,626,l)
);
},
{
attr = {
gradient = {
colors = (
(
(191,255),
0
),
(
(64,255),
1
)
);
end = (0.8878,0.5878);
start = (0.0972,0.8461);
};
};
closed = 1;
nodes = (
(360,0,l),
(360,84,l),
(43,84,l),
(43,83,l),
(126,0,l)
);
},
{
attr = {
gradient = {
colors = (
(
(64,255),
0
),
(
(191,255),
1
)
);
end = (0.886,0.8843);
start = (0.4155,0.0354);
};
};
closed = 1;
nodes = (
(131,84,l),
(131,710,l),
(130,710,l),
(43,625,l),
(43,84,l)
);
},
{
attr = {
gradient = {
colors = (
(
(191,255),
0
),
(
(64,255),
1
)
);
end = (0.9409,0.3651);
start = (0.0373,0.848);
};
};
closed = 1;
nodes = (
(360,323,l),
(360,407,l),
(181,407,l),
(181,323,l)
);
},
{
attr = {
gradient = {
colors = (
(
(64,255),
0
),
(
(191,255),
1
)
);
end = (0.059,0.1786);
start = (0.926,0.5836);
};
};
closed = 1;
nodes = (
(361,0,l),
(448,82,l),
(448,327,l),
(361,407,l),
(360,407,l),
(360,0,l)
);
}
);
width = 484.33333;
},
{
anchors = (
{
name = bottom;
pos = (320,0);
},
{
name = top;
pos = (311,715);
}
);
attr = {
color = "1";
};
layerId = "0A98D1B9-7B82-4B4E-AB5F-E1C30C6E6C41";
shapes = (
{
attr = {
gradient = {
colors = (
(
(64,255),
0
),
(
(191,255),
1
)
);
end = (0.8994,0.2091);
start = (0.0693,0.513);
};
};
closed = 1;
nodes = (
(562,601,l),
(562,602,l),
(449,715,l),
(158,715,l),
(158,601,l)
);
},
{
attr = {
gradient = {
colors = (
(
(191,255),
0
),
(
(64,255),
1
)
);
end = (0.8878,0.5878);
start = (0.0972,0.8461);
};
};
closed = 1;
nodes = (
(442,0,l),
(442,114,l),
(39,114,l),
(39,113,l),
(151,0,l)
);
},
{
attr = {
gradient = {
colors = (
(
(64,255),
0
),
(
(191,255),
1
)
);
end = (0.886,0.8843);
start = (0.4155,0.0354);
};
};
closed = 1;
nodes = (
(158,114,l),
(158,715,l),
(157,715,l),
(39,600,l),
(39,114,l)
);
},
{
attr = {
gradient = {
colors = (
(
(191,255),
0
),
(
(64,255),
1
)
);
end = (0.9409,0.3651);
start = (0.0373,0.848);
};
};
closed = 1;
nodes = (
(442,308,l),
(442,422,l),
(210,422,l),
(210,308,l)
);
},
{
attr = {
gradient = {
colors = (
(
(64,255),
0
),
(
(191,255),
1
)
);
end = (0.059,0.1786);
start = (0.926,0.5836);
};
};
closed = 1;
nodes = (
(443,0,l),
(562,111,l),
(562,314,l),
(443,422,l),
(442,422,l),
(442,0,l)
);
}
);
width = 595;
},
{
anchors = (
{
name = bottom;
pos = (349,0);
},
{
name = top;
pos = (340,718);
}
);
attr = {
color = "1";
};
layerId = "7599F073-2954-4FFC-B8EF-B2010DD53262";
shapes = (
{
attr = {
gradient = {
colors = (
(
(64,255),
0
),
(
(191,255),
1
)
);
end = (0.8994,0.2091);
start = (0.0693,0.513);
};
};
closed = 1;
nodes = (
(619,589,l),
(619,590,l),
(491,718,l),
(172,718,l),
(172,589,l)
);
},
{
attr = {
gradient = {
colors = (
(
(191,255),
0
),
(
(64,255),
1
)
);
end = (0.8878,0.5878);
start = (0.0972,0.8461);
};
};
closed = 1;
nodes = (
(483,0,l),
(483,129,l),
(37,129,l),
(37,128,l),
(164,0,l)
);
},
{
attr = {
gradient = {
colors = (
(
(64,255),
0
),
(
(191,255),
1
)
);
end = (0.886,0.8843);
start = (0.4155,0.0354);
};
};
closed = 1;
nodes = (
(172,129,l),
(172,718,l),
(171,718,l),
(37,587,l),
(37,129,l)
);
},
{
attr = {
gradient = {
colors = (
(
(191,255),
0
),
(
(64,255),
1
)
);
end = (0.9409,0.3651);
start = (0.0373,0.848);
};
};
closed = 1;
nodes = (
(483,301,l),
(483,430,l),
(225,430,l),
(225,301,l)
);
},
{
attr = {
gradient = {
colors = (
(
(64,255),
0
),
(
(191,255),
1
)
);
end = (0.059,0.1786);
start = (0.926,0.5836);
};
};
closed = 1;
nodes = (
(484,0,l),
(619,125,l),
(619,307,l),
(484,430,l),
(483,430,l),
(483,0,l)
);
}
);
width = 650.33333;
},
{
anchors = (
{
name = bottom;
pos = (407,0);
},
{
name = top;
pos = (397,723);
}
);
attr = {
color = "1";
};
layerId = "5E49A2BD-5AA6-4751-9DCC-F05514CFF0B0";
shapes = (
{
attr = {
gradient = {
colors = (
(
(64,255),
0
),
(
(191,255),
1
)
);
end = (0.8994,0.2091);
start = (0.0693,0.513);
};
};
closed = 1;
nodes = (
(732,564,l),
(732,565,l),
(575,723,l),
(199,723,l),
(199,564,l)
);
},
{
attr = {
gradient = {
colors = (
(
(191,255),
0
),
(
(64,255),
1
)
);
end = (0.8878,0.5878);
start = (0.0972,0.8461);
};
};
closed = 1;
nodes = (
(565,0,l),
(565,159,l),
(32,159,l),
(32,158,l),
(189,0,l)
);
},
{
attr = {
gradient = {
colors = (
(
(64,255),
0
),
(
(191,255),
1
)
);
end = (0.886,0.8843);
start = (0.4155,0.0354);
};
};
closed = 1;
nodes = (
(199,159,l),
(199,723,l),
(198,723,l),
(32,561,l),
(32,159,l)
);
},
{
attr = {
gradient = {
colors = (
(
(191,255),
0
),
(
(64,255),
1
)
);
end = (0.9409,0.3651);
start = (0.0373,0.848);
};
};
closed = 1;
nodes = (
(565,286,l),
(565,445,l),
(254,445,l),
(254,286,l)
);
},
{
attr = {
gradient = {
colors = (
(
(64,255),
0
),
(
(191,255),
1
)
);
end = (0.059,0.1786);
start = (0.926,0.5836);
};
};
closed = 1;
nodes = (
(566,0,l),
(732,154,l),
(732,294,l),
(566,445,l),
(565,445,l),
(565,0,l)
);
}
);
width = 761;
}
);
unicode = 71;
},
{
glyphname = H;
lastChange = "2022-07-15 12:10:08 +0000";
layers = (
{
anchors = (
{
name = top;
pos = (146,700);
}
);
attr = {
color = "1";
};
layerId = "33AE93C6-B8B3-427A-A53B-F24970E840CE";
shapes = (
{
attr = {
gradient = {
colors = (
(
(64,255),
0
),
(
(191,255),
1
)
);
end = (0.4897,0.017);
start = (0.6619,0.9472);
};
};
closed = 1;
nodes = (
(240,0,l),
(240,700,l),
(216,700,l),
(216,0,l)
);
},
{
attr = {
gradient = {
colors = (
(
(64,255),
0
),
(
(191,255),
1
)
);
end = (0.3778,0.9756);
start = (0.5036,0.0521);
};
};
closed = 1;
nodes = (
(77,0,l),
(77,700,l),
(53,700,l),
(53,0,l)
);
},
{
attr = {
gradient = {
colors = (
(
(191,255),
0
),
(
(64,255),
1
)
);
end = (0.9392,0.4464);
start = (0.1037,0.4143);
};
};
closed = 1;
nodes = (
(216,353,l),
(216,377,l),
(77,377,l),
(77,353,l)
);
}
);
width = 293;
},
{
anchors = (
{
name = top;
pos = (426,730);
}
);
attr = {
color = "1";
};
layerId = "E87239EE-82B8-404C-B23A-53843E270889";
shapes = (
{
attr = {
gradient = {
colors = (
(
(64,255),
0
),
(
(191,255),
1
)
);
end = (0.4056,0.1204);
start = (0.4192,0.8964);
};
};
closed = 1;
nodes = (
(812,0,l),
(812,730,l),
(598,730,l),
(598,0,l)
);
},
{
attr = {
gradient = {
colors = (
(
(64,255),
0
),
(
(191,255),
1
)
);
end = (0.4877,0.9217);
start = (0.4188,0.0314);
};
};
closed = 1;
nodes = (
(249,0,l),
(249,730,l),
(35,730,l),
(35,0,l)
);
},
{
attr = {
gradient = {
colors = (
(
(191,255),
0
),
(
(64,255),
1
)
);
end = (0.9664,0.121);
start = (0.0258,0.9291);
};
};
closed = 1;
nodes = (
(598,263,l),
(598,467,l),
(249,467,l),
(249,263,l)
);
}
);
width = 847;
},
{
anchors = (
{
name = top;
pos = (466,730);
}
);
attr = {
color = "1";
};
layerId = m003;
shapes = (
{
attr = {
gradient = {
colors = (
(
(64,255),
0
),
(
(191,255),
1
)
);
end = (0.4056,0.1204);
start = (0.4192,0.8964);
};
};
closed = 1;
nodes = (
(892,0,l),
(892,730,l),
(638,730,l),
(638,0,l)
);
},
{
attr = {
gradient = {
colors = (
(
(64,255),
0
),
(
(191,255),
1
)
);
end = (0.4877,0.9217);
start = (0.41,0.0317);
};
};
closed = 1;
nodes = (
(289,0,l),
(289,730,l),
(35,730,l),
(35,0,l)
);
},
{
attr = {
gradient = {
colors = (
(
(191,255),
0
),
(
(64,255),
1
)
);
end = (0.9564,0.0975);
start = (0.0635,0.8418);
};
};
closed = 1;
nodes = (
(638,243,l),
(638,487,l),
(289,487,l),
(289,243,l)
);
}
);
width = 927;
},
{
anchors = (
{
name = top;
pos = (193,705);
}
);
attr = {
color = "1";
};
layerId = "B297D401-77A1-4CCB-A385-A5DBDDA4353D";
shapes = (
{
attr = {
gradient = {
colors = (
(
(64,255),
0
),
(
(191,255),
1
)
);
end = (0.4897,0.017);
start = (0.6619,0.9472);
};
};
closed = 1;
nodes = (
(335,0,l),
(335,705,l),
(280,705,l),
(280,0,l)
);
},
{
attr = {
gradient = {
colors = (
(
(64,255),
0
),
(
(191,255),
1
)
);
end = (0.3778,0.9756);
start = (0.5036,0.0521);
};
};
closed = 1;
nodes = (
(106,0,l),
(106,705,l),
(50,705,l),
(50,0,l)
);
},
{
attr = {
gradient = {
colors = (
(
(191,255),
0
),
(
(64,255),
1
)
);
end = (0.9392,0.4464);
start = (0.1037,0.4143);
};
};
closed = 1;
nodes = (
(280,338,l),
(280,392,l),
(106,392,l),
(106,338,l)
);
}
);
width = 385.33333;
},
{
anchors = (
{
name = top;
pos = (240,710);
}
);
attr = {
color = "1";
};
layerId = "68348742-A108-42ED-B86C-DC367B3F2871";
shapes = (
{
attr = {
gradient = {
colors = (
(
(64,255),
0
),
(
(191,255),
1
)
);
end = (0.4056,0.1204);
start = (0.4192,0.8964);
};
};
closed = 1;
nodes = (
(430,0,l),
(430,710,l),
(344,710,l),
(344,0,l)
);
},
{
attr = {
gradient = {
colors = (
(
(64,255),
0
),
(
(191,255),
1
)
);
end = (0.4877,0.9217);
start = (0.4188,0.0314);
};
};
closed = 1;
nodes = (
(135,0,l),
(135,710,l),
(47,710,l),
(47,0,l)
);
},
{
attr = {
gradient = {
colors = (
(
(191,255),
0
),
(
(64,255),
1
)
);
end = (0.9664,0.121);
start = (0.0258,0.9291);
};
};
closed = 1;
nodes = (
(344,323,l),
(344,407,l),
(135,407,l),
(135,323,l)
);
}
);
width = 477.66667;
},
{
anchors = (
{
name = top;
pos = (287,715);
}
);
attr = {
color = "1";
};
layerId = "0A98D1B9-7B82-4B4E-AB5F-E1C30C6E6C41";
shapes = (
{
attr = {
gradient = {
colors = (
(
(64,255),
0
),
(
(191,255),
1
)
);
end = (0.4056,0.1204);
start = (0.4192,0.8964);
};
};
closed = 1;
nodes = (
(526,0,l),
(526,715,l),
(408,715,l),
(408,0,l)
);
},
{
attr = {
gradient = {
colors = (
(
(64,255),
0
),
(
(191,255),
1
)
);
end = (0.4877,0.9217);
start = (0.4188,0.0314);
};
};
closed = 1;
nodes = (
(164,0,l),
(164,715,l),
(44,715,l),
(44,0,l)
);
},
{
attr = {
gradient = {
colors = (
(
(191,255),
0
),
(
(64,255),
1
)
);
end = (0.9664,0.121);
start = (0.0258,0.9291);
};
};
closed = 1;
nodes = (
(408,308,l),
(408,422,l),
(164,422,l),
(164,308,l)
);
}
);
width = 570;
},
{
anchors = (
{
name = top;
pos = (310,718);
}
);
attr = {
color = "1";
};
layerId = "7599F073-2954-4FFC-B8EF-B2010DD53262";
shapes = (
{
attr = {
gradient = {
colors = (
(
(64,255),
0
),
(
(191,255),
1
)
);
end = (0.4056,0.1204);
start = (0.4192,0.8964);
};
};
closed = 1;
nodes = (
(574,0,l),
(574,718,l),
(440,718,l),
(440,0,l)
);
},
{
attr = {
gradient = {
colors = (
(
(64,255),
0
),
(
(191,255),
1
)
);
end = (0.4877,0.9217);
start = (0.4188,0.0314);
};
};
closed = 1;
nodes = (
(178,0,l),
(178,718,l),
(43,718,l),
(43,0,l)
);
},
{
attr = {
gradient = {
colors = (
(
(191,255),
0
),
(
(64,255),
1
)
);
end = (0.9664,0.121);
start = (0.0258,0.9291);
};
};
closed = 1;
nodes = (
(440,301,l),
(440,430,l),
(178,430,l),
(178,301,l)
);
}
);
width = 616.16667;
},
{
anchors = (
{
name = top;
pos = (356,723);
}
);
attr = {
color = "1";
};
layerId = "5E49A2BD-5AA6-4751-9DCC-F05514CFF0B0";
shapes = (
{
attr = {
gradient = {
colors = (
(
(64,255),
0
),
(
(191,255),
1
)
);
end = (0.4056,0.1204);
start = (0.4192,0.8964);
};
};
closed = 1;
nodes = (
(669,0,l),
(669,723,l),
(503,723,l),
(503,0,l)
);
},
{
attr = {
gradient = {
colors = (
(
(64,255),
0
),
(
(191,255),
1
)
);
end = (0.4877,0.9217);
start = (0.4188,0.0314);
};
};
closed = 1;
nodes = (
(206,0,l),
(206,723,l),
(40,723,l),
(40,0,l)
);
},
{
attr = {
gradient = {
colors = (
(
(191,255),
0
),
(
(64,255),
1
)
);
end = (0.9664,0.121);
start = (0.0258,0.9291);
};
};
closed = 1;
nodes = (
(503,286,l),
(503,445,l),
(206,445,l),
(206,286,l)
);
}
);
width = 708.5;
}
);
unicode = 72;
},
{
glyphname = Hbar;
lastChange = "2022-07-15 12:10:08 +0000";
layers = (
{
attr = {
color = "1";
};
layerId = "33AE93C6-B8B3-427A-A53B-F24970E840CE";
shapes = (
{
attr = {
gradient = {
colors = (
(
(128,255),
0
),
(
(64,255),
0.22474
),
(
(191,255),
1
)
);
end = (0.9313,0.7093);
start = (0.0288,0.5148);
};
identifier = ID0x60000049aa00;
};
closed = 1;
nodes = (
(283,483,l),
(283,507,l),
(10,507,l),
(10,483,l)
);
},
{
ref = H;
}
);
width = 293;
},
{
attr = {
color = "1";
};
layerId = "E87239EE-82B8-404C-B23A-53843E270889";
shapes = (
{
attr = {
gradient = {
colors = (
(
(128,255),
0
),
(
(64,255),
0.13458
),
(
(191,255),
1
)
);
end = (0.9619,0.4344);
start = (0.0116,0.5009);
};
identifier = ID0x600000498620;
};
closed = 1;
nodes = (
(917,529,l),
(917,653,l),
(20,653,l),
(20,529,l)
);
},
{
pos = (55,0);
ref = H;
}
);
width = 937;
},
{
attr = {
color = "1";
};
layerId = m003;
shapes = (
{
attr = {
gradient = {
colors = (
(
(128,255),
0
),
(
(64,255),
0.23247
),
(
(191,255),
1
)
);
end = (0.7409,0.4211);
start = (0.0119,0.4201);
};
identifier = ID0x600000498620;
};
closed = 1;
nodes = (
(997,519,l),
(997,693,l),
(20,693,l),
(20,519,l)
);
},
{
pos = (55,0);
ref = H;
}
);
width = 1017;
},
{
attr = {
color = "1";
};
layerId = "B297D401-77A1-4CCB-A385-A5DBDDA4353D";
shapes = (
{
attr = {
gradient = {
colors = (
(
(128,255),
0
),
(
(64,255),
0.22474
),
(
(191,255),
1
)
);
end = (0.9313,0.7093);
start = (0.0288,0.5148);
};
identifier = ID0x60000049aa00;
};
closed = 1;
nodes = (
(389,491,l),
(389,531,l),
(12,531,l),
(12,491,l)
);
},
{
alignment = -1;
pos = (9,0);
ref = H;
}
);
width = 400.33333;
},
{
attr = {
color = "1";
};
layerId = "68348742-A108-42ED-B86C-DC367B3F2871";
shapes = (
{
attr = {
gradient = {
colors = (
(
(128,255),
0
),
(
(64,255),
0.13458
),
(
(191,255),
1
)
);
end = (0.9619,0.4344);
start = (0.0116,0.5009);
};
identifier = ID0x600000498620;
};
closed = 1;
nodes = (
(495,499,l),
(495,555,l),
(14,555,l),
(14,499,l)
);
},
{
alignment = -1;
pos = (18,0);
ref = H;
}
);
width = 507.66667;
},
{
attr = {
color = "1";
};
layerId = "0A98D1B9-7B82-4B4E-AB5F-E1C30C6E6C41";
shapes = (
{
attr = {
gradient = {
colors = (
(
(128,255),
0
),
(
(64,255),
0.13458
),
(
(191,255),
1
)
);
end = (0.9619,0.4344);
start = (0.0116,0.5009);
};
identifier = ID0x600000498620;
};
closed = 1;
nodes = (
(601,507,l),
(601,580,l),
(16,580,l),
(16,507,l)
);
},
{
alignment = -1;
pos = (27,0);
ref = H;
}
);
width = 615;
},
{
attr = {
color = "1";
};
layerId = "7599F073-2954-4FFC-B8EF-B2010DD53262";
shapes = (
{
attr = {
gradient = {
colors = (
(
(128,255),
0
),
(
(64,255),
0.13458
),
(
(191,255),
1
)
);
end = (0.9619,0.4344);
start = (0.0116,0.5009);
};
identifier = ID0x600000498620;
};
closed = 1;
nodes = (
(654,511,l),
(654,592,l),
(17,592,l),
(17,511,l)
);
},
{
alignment = -1;
pos = (32,0);
ref = H;
}
);
width = 668.66667;
},
{
attr = {
color = "1";
};
layerId = "5E49A2BD-5AA6-4751-9DCC-F05514CFF0B0";
shapes = (
{
attr = {
gradient = {
colors = (
(
(128,255),
0
),
(
(64,255),
0.13458
),
(
(191,255),
1
)
);
end = (0.9619,0.4344);
start = (0.0116,0.5009);
};
identifier = ID0x600000498620;
};
closed = 1;
nodes = (
(759,518,l),
(759,616,l),
(18,616,l),
(18,518,l)
);
},
{
alignment = -1;
pos = (41,0);
ref = H;
}
);
width = 776;
}
);
unicode = 294;
},
{
glyphname = I;
lastChange = "2022-07-15 12:14:14 +0000";
layers = (
{
anchors = (
{
name = bottom;
pos = (112,0);
},
{
name = top;
pos = (115,700);
}
);
attr = {
color = "1";
};
layerId = "33AE93C6-B8B3-427A-A53B-F24970E840CE";
shapes = (
{
attr = {
gradient = {
colors = (
(
(64,255),
0.01
),
(
(191,255),
1
)
);
end = (0.5356,0.9736);
start = (0.4095,0.0317);
};
};
closed = 1;
nodes = (
(102,0,l),
(125,24,l),
(125,700,l),
(124,700,l),
(101,676,l),
(101,0,l)
);
},
{
attr = {
gradient = {
colors = (
(
(64,255),
0
),
(
(191,255),
1
)
);
end = (0.0936,0.4983);
start = (0.9139,0.567);
};
};
closed = 1;
nodes = (
(101,0,l),
(101,24,l),
(21,24,l),
(21,0,l)
);
},
{
attr = {
gradient = {
colors = (
(
(64,255),
0
),
(
(191,255),
1
)
);
end = (0.9322,0.6034);
start = (0.1137,0.2133);
};
};
closed = 1;
nodes = (
(206,0,l),
(206,24,l),
(125,24,l),
(102,0,l)
);
},
{
attr = {
gradient = {
colors = (
(
(64,255),
0
),
(
(191,255),
1
)
);
end = (0.8476,0.6978);
start = (0.089,0.1962);
};
};
closed = 1;
nodes = (
(101,676,l),
(124,700,l),
(20,700,l),
(20,676,l)
);
},
{
attr = {
gradient = {
colors = (
(
(64,255),
0
),
(
(191,255),
1
)
);
end = (0.8283,0.4913);
start = (0.0822,0.3298);
};
};
closed = 1;
nodes = (
(205,676,l),
(205,700,l),
(125,700,l),
(125,676,l)
);
}
);
width = 226;
},
{
anchors = (
{
name = bottom;
pos = (340,0);
},
{
name = top;
pos = (341,730);
}
);
attr = {
color = "1";
};
layerId = "E87239EE-82B8-404C-B23A-53843E270889";
shapes = (
{
attr = {
gradient = {
colors = (
(
(64,255),
0
),
(
(191,255),
1
)
);
end = (0.8395,0.9642);
start = (0.1458,0.0239);
};
};
closed = 1;
nodes = (
(298,0,l),
(460,204,l),
(460,730,l),
(408,730,l),
(246,526,l),
(246,0,l)
);
},
{
attr = {
gradient = {
colors = (
(
(64,255),
0
),
(
(191,255),
1
)
);
end = (0.0939,0.8409);
start = (0.9303,0.2015);
};
};
closed = 1;
nodes = (
(245,0,l),
(246,204,l),
(25,204,l),
(25,0,l)
);
},
{
attr = {
gradient = {
colors = (
(
(64,255),
0
),
(
(191,255),
1
)
);
end = (0.9654,0.8784);
start = (0.1441,0.0899);
};
};
closed = 1;
nodes = (
(632,0,l),
(632,204,l),
(460,204,l),
(298,0,l)
);
},
{
attr = {
gradient = {
colors = (
(
(64,255),
0
),
(
(191,255),
1
)
);
end = (0.8937,0.9164);
start = (0.0295,0.395);
};
};
closed = 1;
nodes = (
(246,526,l),
(408,730,l),
(25,730,l),
(25,526,l)
);
},
{
attr = {
gradient = {
colors = (
(
(64,255),
0
),
(
(191,255),
1
)
);
end = (1.0519,0.9246);
start = (0.0112,0.2467);
};
};
closed = 1;
nodes = (
(631,526,l),
(631,730,l),
(460,730,l),
(460,526,l)
);
}
);
width = 657;
},
{
anchors = (
{
name = bottom;
pos = (340,0);
},
{
name = top;
pos = (351,730);
}
);
attr = {
color = "1";
};
layerId = m003;
shapes = (
{
attr = {
gradient = {
colors = (
(
(64,255),
0
),
(
(191,255),
1
)
);
end = (0.8981,0.9816);
start = (0.1139,0.0308);
};
};
closed = 1;
nodes = (
(298,0,l),
(500,244,l),
(500,730,l),
(448,730,l),
(246,486,l),
(246,0,l)
);
},
{
attr = {
gradient = {
colors = (
(
(64,255),
0
),
(
(191,255),
1
)
);
end = (0.064,0.9092);
start = (0.9468,0.0961);
};
};
closed = 1;
nodes = (
(246,0,l),
(246,244,l),
(25,244,l),
(25,0,l)
);
},
{
attr = {
gradient = {
colors = (
(
(64,255),
0
),
(
(191,255),
1
)
);
end = (0.9274,0.8435);
start = (0.0931,0.0721);
};
};
closed = 1;
nodes = (
(672,0,l),
(672,244,l),
(500,244,l),
(298,0,l)
);
},
{
attr = {
gradient = {
colors = (
(
(64,255),
0
),
(
(191,255),
1
)
);
end = (0.873,0.8624);
start = (0.0295,0.395);
};
};
closed = 1;
nodes = (
(246,486,l),
(448,730,l),
(25,730,l),
(25,486,l)
);
},
{
attr = {
gradient = {
colors = (
(
(64,255),
0
),
(
(191,255),
1
)
);
end = (0.872,0.9158);
start = (0.1029,0.1117);
};
};
closed = 1;
nodes = (
(671,486,l),
(671,730,l),
(500,730,l),
(500,486,l)
);
}
);
width = 697;
},
{
anchors = (
{
name = bottom;
pos = (150,0);
},
{
name = top;
pos = (153,705);
}
);
attr = {
color = "1";
};
layerId = "B297D401-77A1-4CCB-A385-A5DBDDA4353D";
shapes = (
{
attr = {
gradient = {
colors = (
(
(64,255),
0.01
),
(
(191,255),
1
)
);
end = (0.5356,0.9736);
start = (0.4095,0.0317);
};
};
closed = 1;
nodes = (
(135,0,l),
(181,54,l),
(181,705,l),
(171,705,l),
(125,651,l),
(125,0,l)
);
},
{
attr = {
gradient = {
colors = (
(
(64,255),
0
),
(
(191,255),
1
)
);
end = (0.0936,0.4983);
start = (0.9139,0.567);
};
};
closed = 1;
nodes = (
(125,0,l),
(125,54,l),
(22,54,l),
(22,0,l)
);
},
{
attr = {
gradient = {
colors = (
(
(64,255),
0
),
(
(191,255),
1
)
);
end = (0.9322,0.6034);
start = (0.1137,0.2133);
};
};
closed = 1;
nodes = (
(277,0,l),
(277,54,l),
(181,54,l),
(135,0,l)
);
},
{
attr = {
gradient = {
colors = (
(
(64,255),
0
),
(
(191,255),
1
)
);
end = (0.8476,0.6978);
start = (0.089,0.1962);
};
};
closed = 1;
nodes = (
(125,651,l),
(171,705,l),
(21,705,l),
(21,651,l)
);
},
{
attr = {
gradient = {
colors = (
(
(64,255),
0
),
(
(191,255),
1
)
);
end = (0.8283,0.4913);
start = (0.0822,0.3298);
};
};
closed = 1;
nodes = (
(276,651,l),
(276,705,l),
(181,705,l),
(181,651,l)
);
}
);
width = 297.83333;
},
{
anchors = (
{
name = bottom;
pos = (188,0);
},
{
name = top;
pos = (191,710);
}
);
attr = {
color = "1";
};
layerId = "68348742-A108-42ED-B86C-DC367B3F2871";
shapes = (
{
attr = {
gradient = {
colors = (
(
(64,255),
0
),
(
(191,255),
1
)
);
end = (0.8395,0.9642);
start = (0.1458,0.0239);
};
};
closed = 1;
nodes = (
(168,0,l),
(237,84,l),
(237,710,l),
(218,710,l),
(149,626,l),
(149,0,l)
);
},
{
attr = {
gradient = {
colors = (
(
(64,255),
0
),
(
(191,255),
1
)
);
end = (0.0939,0.8409);
start = (0.9303,0.2015);
};
};
closed = 1;
nodes = (
(149,0,l),
(149,84,l),
(23,84,l),
(23,0,l)
);
},
{
attr = {
gradient = {
colors = (
(
(64,255),
0
),
(
(191,255),
1
)
);
end = (0.9654,0.8784);
start = (0.1441,0.0899);
};
};
closed = 1;
nodes = (
(348,0,l),
(348,84,l),
(237,84,l),
(168,0,l)
);
},
{
attr = {
gradient = {
colors = (
(
(64,255),
0
),
(
(191,255),
1
)
);
end = (0.8937,0.9164);
start = (0.0295,0.395);
};
};
closed = 1;
nodes = (
(149,626,l),
(218,710,l),
(22,710,l),
(22,626,l)
);
},
{
attr = {
gradient = {
colors = (
(
(64,255),
0
),
(
(191,255),
1
)
);
end = (1.0519,0.9246);
start = (0.0112,0.2467);
};
};
closed = 1;
nodes = (
(347,626,l),
(347,710,l),
(237,710,l),
(237,626,l)
);
}
);
width = 369.66667;
},
{
anchors = (
{
name = bottom;
pos = (226,0);
},
{
name = top;
pos = (229,715);
}
);
attr = {
color = "1";
};
layerId = "0A98D1B9-7B82-4B4E-AB5F-E1C30C6E6C41";
shapes = (
{
attr = {
gradient = {
colors = (
(
(64,255),
0
),
(
(191,255),
1
)
);
end = (0.8395,0.9642);
start = (0.1458,0.0239);
};
};
closed = 1;
nodes = (
(201,0,l),
(293,114,l),
(293,715,l),
(266,715,l),
(173,601,l),
(173,0,l)
);
},
{
attr = {
gradient = {
colors = (
(
(64,255),
0
),
(
(191,255),
1
)
);
end = (0.0939,0.8409);
start = (0.9303,0.2015);
};
};
closed = 1;
nodes = (
(173,0,l),
(173,114,l),
(24,114,l),
(24,0,l)
);
},
{
attr = {
gradient = {
colors = (
(
(64,255),
0
),
(
(191,255),
1
)
);
end = (0.9654,0.8784);
start = (0.1441,0.0899);
};
};
closed = 1;
nodes = (
(419,0,l),
(419,114,l),
(293,114,l),
(201,0,l)
);
},
{
attr = {
gradient = {
colors = (
(
(64,255),
0
),
(
(191,255),
1
)
);
end = (0.8937,0.9164);
start = (0.0295,0.395);
};
};
closed = 1;
nodes = (
(173,601,l),
(266,715,l),
(23,715,l),
(23,601,l)
);
},
{
attr = {
gradient = {
colors = (
(
(64,255),
0
),
(
(191,255),
1
)
);
end = (1.0519,0.9246);
start = (0.0112,0.2467);
};
};
closed = 1;
nodes = (
(418,601,l),
(418,715,l),
(293,715,l),
(293,601,l)
);
}
);
width = 441.5;
},
{
anchors = (
{
name = bottom;
pos = (245,0);
},
{
name = top;
pos = (248,718);
}
);
attr = {
color = "1";
};
layerId = "7599F073-2954-4FFC-B8EF-B2010DD53262";
shapes = (
{
attr = {
gradient = {
colors = (
(
(64,255),
0
),
(
(191,255),
1
)
);
end = (0.8395,0.9642);
start = (0.1458,0.0239);
};
};
closed = 1;
nodes = (
(217,0,l),
(321,129,l),
(321,718,l),
(290,718,l),
(185,589,l),
(185,0,l)
);
},
{
attr = {
gradient = {
colors = (
(
(64,255),
0
),
(
(191,255),
1
)
);
end = (0.0939,0.8409);
start = (0.9303,0.2015);
};
};
closed = 1;
nodes = (
(185,0,l),
(185,129,l),
(24,129,l),
(24,0,l)
);
},
{
attr = {
gradient = {
colors = (
(
(64,255),
0
),
(
(191,255),
1
)
);
end = (0.9654,0.8784);
start = (0.1441,0.0899);
};
};
closed = 1;
nodes = (
(455,0,l),
(455,129,l),
(321,129,l),
(217,0,l)
);
},
{
attr = {
gradient = {
colors = (
(
(64,255),
0
),
(
(191,255),
1
)
);
end = (0.8937,0.9164);
start = (0.0295,0.395);
};
};
closed = 1;
nodes = (
(185,589,l),
(290,718,l),
(23,718,l),
(23,589,l)
);
},
{
attr = {
gradient = {
colors = (
(
(64,255),
0
),
(
(191,255),
1
)
);
end = (1.0519,0.9246);
start = (0.0112,0.2467);
};
};
closed = 1;
nodes = (
(454,589,l),
(454,718,l),
(321,718,l),
(321,589,l)
);
}
);
width = 478;
},
{
anchors = (
{
name = bottom;
pos = (283,0);
},
{
name = top;
pos = (285,723);
}
);
attr = {
color = "1";
};
layerId = "5E49A2BD-5AA6-4751-9DCC-F05514CFF0B0";
shapes = (
{
attr = {
gradient = {
colors = (
(
(64,255),
0
),
(
(191,255),
1
)
);
end = (0.8395,0.9642);
start = (0.1458,0.0239);
};
};
closed = 1;
nodes = (
(249,0,l),
(377,159,l),
(377,723,l),
(337,723,l),
(209,564,l),
(209,0,l)
);
},
{
attr = {
gradient = {
colors = (
(
(64,255),
0
),
(
(191,255),
1
)
);
end = (0.0939,0.8409);
start = (0.9303,0.2015);
};
};
closed = 1;
nodes = (
(209,0,l),
(209,159,l),
(24,159,l),
(24,0,l)
);
},
{
attr = {
gradient = {
colors = (
(
(64,255),
0
),
(
(191,255),
1
)
);
end = (0.9654,0.8784);
start = (0.1441,0.0899);
};
};
closed = 1;
nodes = (
(526,0,l),
(526,159,l),
(377,159,l),
(249,0,l)
);
},
{
attr = {
gradient = {
colors = (
(
(64,255),
0
),
(
(191,255),
1
)
);
end = (0.8937,0.9164);
start = (0.0295,0.395);
};
};
closed = 1;
nodes = (
(209,564,l),
(337,723,l),
(24,723,l),
(24,564,l)
);
},
{
attr = {
gradient = {
colors = (
(
(64,255),
0
),
(
(191,255),
1
)
);
end = (1.0519,0.9246);
start = (0.0112,0.2467);
};
};
closed = 1;
nodes = (
(525,564,l),
(525,723,l),
(377,723,l),
(377,564,l)
);
}
);
width = 550;
}
);
metricRight = "=|";
unicode = 73;
},
{
glyphname = J;
lastChange = "2022-07-15 12:10:08 +0000";
layers = (
{
anchors = (
{
name = top;
pos = (148,700);
}
);
attr = {
color = "1";
};
layerId = "33AE93C6-B8B3-427A-A53B-F24970E840CE";
shapes = (
{
attr = {
gradient = {
colors = (
(
(64,255),
0.01
),
(
(191,255),
1
)
);
end = (0.667,0.9813);
start = (0.4817,0.0124);
};
};
closed = 1;
nodes = (
(164,24,l),
(164,700,l),
(163,700,l),
(140,676,l),
(140,24,l)
);
},
{
attr = {
gradient = {
colors = (
(
(64,255),
0
),
(
(191,255),
1
)
);
end = (0.9178,0.8177);
start = (0.0375,0.4117);
};
};
closed = 1;
nodes = (
(140,0,l),
(164,23,l),
(164,24,l),
(20,24,l),
(20,0,l)
);
},
{
attr = {
gradient = {
colors = (
(
(64,255),
0.01332
),
(
(191,255),
1
)
);
end = (0.8506,0.5671);
start = (0.0634,0.53);
};
};
closed = 1;
nodes = (
(140,676,l),
(163,700,l),
(39,700,l),
(39,676,l)
);
},
{
attr = {
gradient = {
colors = (
(
(64,255),
0
),
(
(191,255),
1
)
);
end = (0.9233,0.428);
start = (0.0999,0.4684);
};
};
closed = 1;
nodes = (
(234,676,l),
(234,700,l),
(164,700,l),
(164,676,l)
);
}
);
width = 254;
},
{
anchors = (
{
name = top;
pos = (356,730);
}
);
attr = {
color = "1";
};
layerId = "E87239EE-82B8-404C-B23A-53843E270889";
shapes = (
{
attr = {
gradient = {
colors = (
(
(64,255),
0
),
(
(191,255),
1
)
);
end = (0.8762,0.9287);
start = (0.5087,0.0343);
};
};
closed = 1;
nodes = (
(520,200,l),
(520,730,l),
(468,730,l),
(306,526,l),
(306,200,l)
);
},
{
attr = {
gradient = {
colors = (
(
(64,255),
0
),
(
(191,255),
1
)
);
end = (0.7658,0.909);
start = (0.1245,0.1818);
};
};
closed = 1;
nodes = (
(358,-4,l),
(520,199,l),
(520,200,l),
(47,200,l),
(47,-4,l)
);
},
{
attr = {
gradient = {
colors = (
(
(64,255),
0
),
(
(191,255),
1
)
);
end = (0.861,0.8631);
start = (0.089,0.1962);
};
};
closed = 1;
nodes = (
(306,526,l),
(468,730,l),
(25,730,l),
(25,526,l)
);
},
{
attr = {
gradient = {
colors = (
(
(64,255),
0
),
(
(191,255),
1
)
);
end = (0.7658,0.909);
start = (0.21,0.0899);
};
};
closed = 1;
nodes = (
(631,526,l),
(631,730,l),
(520,730,l),
(520,526,l)
);
}
);
width = 657;
},
{
anchors = (
{
name = top;
pos = (366,730);
}
);
attr = {
color = "1";
};
layerId = m003;
shapes = (
{
attr = {
gradient = {
colors = (
(
(64,255),
0
),
(
(191,255),
1
)
);
end = (0.8955,0.9279);
start = (0.4882,0.0483);
};
};
closed = 1;
nodes = (
(500,240,l),
(500,730,l),
(448,730,l),
(246,486,l),
(246,240,l)
);
},
{
attr = {
gradient = {
colors = (
(
(64,255),
0
),
(
(191,255),
1
)
);
end = (0.8296,0.8888);
start = (0.1245,0.1818);
};
};
closed = 1;
nodes = (
(298,-4,l),
(500,239,l),
(500,240,l),
(47,240,l),
(47,-4,l)
);
},
{
attr = {
gradient = {
colors = (
(
(64,255),
0
),
(
(191,255),
1
)
);
end = (0.8285,0.8924);
start = (0.089,0.1962);
};
};
closed = 1;
nodes = (
(246,486,l),
(448,730,l),
(25,730,l),
(25,486,l)
);
},
{
attr = {
gradient = {
colors = (
(
(64,255),
0
),
(
(191,255),
1
)
);
end = (0.7658,0.909);
start = (0.21,0.0899);
};
};
closed = 1;
nodes = (
(671,486,l),
(671,730,l),
(500,730,l),
(500,486,l)
);
}
);
width = 697;
},
{
anchors = (
{
name = top;
pos = (183,705);
}
);
attr = {
color = "1";
};
layerId = "B297D401-77A1-4CCB-A385-A5DBDDA4353D";
shapes = (
{
attr = {
gradient = {
colors = (
(
(64,255),
0.01
),
(
(191,255),
1
)
);
end = (0.667,0.9813);
start = (0.4817,0.0124);
};
};
closed = 1;
nodes = (
(223,53,l),
(223,705,l),
(214,705,l),
(168,651,l),
(168,53,l)
);
},
{
attr = {
gradient = {
colors = (
(
(64,255),
0
),
(
(191,255),
1
)
);
end = (0.9178,0.8177);
start = (0.0375,0.4117);
};
};
closed = 1;
nodes = (
(176,-1,l),
(223,52,l),
(223,53,l),
(25,53,l),
(25,-1,l)
);
},
{
attr = {
gradient = {
colors = (
(
(64,255),
0.01332
),
(
(191,255),
1
)
);
end = (0.8506,0.5671);
start = (0.0634,0.53);
};
};
closed = 1;
nodes = (
(168,651,l),
(214,705,l),
(37,705,l),
(37,651,l)
);
},
{
attr = {
gradient = {
colors = (
(
(64,255),
0
),
(
(191,255),
1
)
);
end = (0.9233,0.428);
start = (0.0999,0.4684);
};
};
closed = 1;
nodes = (
(300,651,l),
(300,705,l),
(223,705,l),
(223,651,l)
);
}
);
width = 321.16667;
},
{
anchors = (
{
name = top;
pos = (218,710);
}
);
attr = {
color = "1";
};
layerId = "68348742-A108-42ED-B86C-DC367B3F2871";
shapes = (
{
attr = {
gradient = {
colors = (
(
(64,255),
0
),
(
(191,255),
1
)
);
end = (0.8762,0.9287);
start = (0.5087,0.0343);
};
};
closed = 1;
nodes = (
(282,82,l),
(282,710,l),
(265,710,l),
(196,626,l),
(196,82,l)
);
},
{
attr = {
gradient = {
colors = (
(
(64,255),
0
),
(
(191,255),
1
)
);
end = (0.7658,0.909);
start = (0.1245,0.1818);
};
};
closed = 1;
nodes = (
(212,-2,l),
(282,81,l),
(282,82,l),
(29,82,l),
(29,-2,l)
);
},
{
attr = {
gradient = {
colors = (
(
(64,255),
0
),
(
(191,255),
1
)
);
end = (0.861,0.8631);
start = (0.089,0.1962);
};
};
closed = 1;
nodes = (
(196,626,l),
(265,710,l),
(35,710,l),
(35,626,l)
);
},
{
attr = {
gradient = {
colors = (
(
(64,255),
0
),
(
(191,255),
1
)
);
end = (0.7658,0.909);
start = (0.21,0.0899);
};
};
closed = 1;
nodes = (
(366,626,l),
(366,710,l),
(282,710,l),
(282,626,l)
);
}
);
width = 388.33333;
},
{
anchors = (
{
name = top;
pos = (253,715);
}
);
attr = {
color = "1";
};
layerId = "0A98D1B9-7B82-4B4E-AB5F-E1C30C6E6C41";
shapes = (
{
attr = {
gradient = {
colors = (
(
(64,255),
0
),
(
(191,255),
1
)
);
end = (0.8762,0.9287);
start = (0.5087,0.0343);
};
};
closed = 1;
nodes = (
(342,112,l),
(342,715,l),
(316,715,l),
(224,601,l),
(224,112,l)
);
},
{
attr = {
gradient = {
colors = (
(
(64,255),
0
),
(
(191,255),
1
)
);
end = (0.7658,0.909);
start = (0.1245,0.1818);
};
};
closed = 1;
nodes = (
(249,-2,l),
(342,111,l),
(342,112,l),
(34,112,l),
(34,-2,l)
);
},
{
attr = {
gradient = {
colors = (
(
(64,255),
0
),
(
(191,255),
1
)
);
end = (0.861,0.8631);
start = (0.089,0.1962);
};
};
closed = 1;
nodes = (
(224,601,l),
(316,715,l),
(33,715,l),
(33,601,l)
);
},
{
attr = {
gradient = {
colors = (
(
(64,255),
0
),
(
(191,255),
1
)
);
end = (0.7658,0.909);
start = (0.21,0.0899);
};
};
closed = 1;
nodes = (
(432,601,l),
(432,715,l),
(342,715,l),
(342,601,l)
);
}
);
width = 455.5;
},
{
anchors = (
{
name = top;
pos = (270,718);
}
);
attr = {
color = "1";
};
layerId = "7599F073-2954-4FFC-B8EF-B2010DD53262";
shapes = (
{
attr = {
gradient = {
colors = (
(
(64,255),
0
),
(
(191,255),
1
)
);
end = (0.8762,0.9287);
start = (0.5087,0.0343);
};
};
closed = 1;
nodes = (
(372,127,l),
(372,718,l),
(341,718,l),
(238,589,l),
(238,127,l)
);
},
{
attr = {
gradient = {
colors = (
(
(64,255),
0
),
(
(191,255),
1
)
);
end = (0.7658,0.909);
start = (0.1245,0.1818);
};
};
closed = 1;
nodes = (
(267,-2,l),
(372,126,l),
(372,127,l),
(36,127,l),
(36,-2,l)
);
},
{
attr = {
gradient = {
colors = (
(
(64,255),
0
),
(
(191,255),
1
)
);
end = (0.861,0.8631);
start = (0.089,0.1962);
};
};
closed = 1;
nodes = (
(238,589,l),
(341,718,l),
(32,718,l),
(32,589,l)
);
},
{
attr = {
gradient = {
colors = (
(
(64,255),
0
),
(
(191,255),
1
)
);
end = (0.7658,0.909);
start = (0.21,0.0899);
};
};
closed = 1;
nodes = (
(465,589,l),
(465,718,l),
(372,718,l),
(372,589,l)
);
}
);
width = 489.08333;
},
{
anchors = (
{
name = top;
pos = (304,723);
}
);
attr = {
color = "1";
};
layerId = "5E49A2BD-5AA6-4751-9DCC-F05514CFF0B0";
shapes = (
{
attr = {
gradient = {
colors = (
(
(64,255),
0
),
(
(191,255),
1
)
);
end = (0.8762,0.9287);
start = (0.5087,0.0343);
};
};
closed = 1;
nodes = (
(431,156,l),
(431,723,l),
(392,723,l),
(265,564,l),
(265,156,l)
);
},
{
attr = {
gradient = {
colors = (
(
(64,255),
0
),
(
(191,255),
1
)
);
end = (0.7658,0.909);
start = (0.1245,0.1818);
};
};
closed = 1;
nodes = (
(303,-3,l),
(431,155,l),
(431,156,l),
(40,156,l),
(40,-3,l)
);
},
{
attr = {
gradient = {
colors = (
(
(64,255),
0
),
(
(191,255),
1
)
);
end = (0.861,0.8631);
start = (0.089,0.1962);
};
};
closed = 1;
nodes = (
(265,564,l),
(392,723,l),
(29,723,l),
(29,564,l)
);
},
{
attr = {
gradient = {
colors = (
(
(64,255),
0
),
(
(191,255),
1
)
);
end = (0.7658,0.909);
start = (0.21,0.0899);
};
};
closed = 1;
nodes = (
(531,564,l),
(531,723,l),
(431,723,l),
(431,564,l)
);
}
);
width = 556.25;
}
);
unicode = 74;
},
{
glyphname = K;
kernLeft = H;
lastChange = "2022-07-15 13:27:59 +0000";
layers = (
{
anchors = (
{
name = bottom;
pos = (152,0);
}
);
attr = {
color = "1";
};
layerId = "33AE93C6-B8B3-427A-A53B-F24970E840CE";
shapes = (
{
attr = {
gradient = {
colors = (
(
(191,255),
0
),
(
(64,255),
1
)
);
end = (0.1697,0.8725);
start = (0.8535,0.0385);
};
};
closed = 1;
nodes = (
(273,0,l),
(273,1,l),
(183,373,l),
(163,353,l),
(247,0,l)
);
},
{
attr = {
gradient = {
colors = (
(
(64,255),
0
),
(
(191,255),
1
)
);
end = (0.3983,0.968);
start = (0.4359,0.0251);
};
};
closed = 1;
nodes = (
(77,0,l),
(77,700,l),
(53,700,l),
(53,0,l)
);
},
{
attr = {
gradient = {
colors = (
(
(64,255),
0
),
(
(191,255),
0.5
),
(
(64,255),
1
)
);
end = (0.0587,0.1922);
start = (0.973,0.54);
};
};
closed = 1;
nodes = (
(196,353,l),
(196,377,l),
(77,377,l),
(77,353,l)
);
},
{
attr = {
gradient = {
colors = (
(
(64,255),
0
),
(
(191,255),
1
)
);
end = (0.3795,0.0792);
start = (0.4852,0.9879);
};
};
closed = 1;
nodes = (
(197,353,l),
(220,376,l),
(220,700,l),
(196,700,l),
(196,353,l)
);
}
);
width = 296;
},
{
anchors = (
{
name = bottom;
pos = (415,0);
}
);
attr = {
color = "1";
};
layerId = "E87239EE-82B8-404C-B23A-53843E270889";
shapes = (
{
attr = {
gradient = {
colors = (
(
(191,255),
0
),
(
(64,255),
1
)
);
end = (0.3248,0.6736);
start = (0.7312,0.0748);
};
};
closed = 1;
nodes = (
(871,0,l),
(871,1,l),
(598,373,l),
(424,250,l),
(600,0,l)
);
},
{
attr = {
gradient = {
colors = (
(
(64,255),
0
),
(
(191,255),
1
)
);
end = (0.4877,0.9217);
start = (0.4139,0.0382);
};
};
closed = 1;
nodes = (
(249,0,l),
(249,730,l),
(35,730,l),
(35,0,l)
);
},
{
attr = {
gradient = {
colors = (
(
(64,255),
0
),
(
(191,255),
0.5
),
(
(64,255),
1
)
);
end = (0.0587,0.1922);
start = (0.9557,0.8904);
};
};
closed = 1;
nodes = (
(548,243,l),
(548,447,l),
(249,447,l),
(249,243,l)
);
},
{
attr = {
gradient = {
colors = (
(
(64,255),
0
),
(
(191,255),
1
)
);
end = (0.2746,0.29);
start = (0.4923,0.9573);
};
};
closed = 1;
nodes = (
(549,243,l),
(762,420,l),
(762,730,l),
(548,730,l),
(548,243,l)
);
}
);
width = 871;
},
{
anchors = (
{
name = bottom;
pos = (435,0);
}
);
attr = {
color = "1";
};
layerId = m003;
shapes = (
{
attr = {
gradient = {
colors = (
(
(191,255),
0
),
(
(64,255),
1
)
);
end = (0.322,0.6301);
start = (0.7324,0.0443);
};
};
closed = 1;
nodes = (
(951,0,l),
(951,1,l),
(678,363,l),
(464,240,l),
(640,0,l)
);
},
{
attr = {
gradient = {
colors = (
(
(64,255),
0
),
(
(191,255),
1
)
);
end = (0.4877,0.9217);
start = (0.4181,0.0297);
};
};
closed = 1;
nodes = (
(289,0,l),
(289,730,l),
(35,730,l),
(35,0,l)
);
},
{
attr = {
gradient = {
colors = (
(
(64,255),
0
),
(
(191,255),
0.5
),
(
(64,255),
1
)
);
end = (0.0587,0.1922);
start = (0.9587,0.9427);
};
};
closed = 1;
nodes = (
(588,223,l),
(588,467,l),
(289,467,l),
(289,223,l)
);
},
{
attr = {
gradient = {
colors = (
(
(64,255),
0
),
(
(191,255),
1
)
);
end = (0.2746,0.29);
start = (0.4852,0.9879);
};
};
closed = 1;
nodes = (
(589,223,l),
(842,420,l),
(842,730,l),
(588,730,l),
(588,223,l)
);
}
);
width = 951;
},
{
anchors = (
{
name = bottom;
pos = (196,0);
}
);
attr = {
color = "1";
};
layerId = "B297D401-77A1-4CCB-A385-A5DBDDA4353D";
shapes = (
{
attr = {
gradient = {
colors = (
(
(191,255),
0
),
(
(64,255),
1
)
);
end = (0.1745,0.8534);
start = (0.8186,0.0322);
};
};
closed = 1;
nodes = (
(373,0,l),
(373,1,l),
(252,373,l),
(207,336,l),
(306,0,l)
);
},
{
attr = {
gradient = {
colors = (
(
(64,255),
0
),
(
(191,255),
1
)
);
end = (0.3983,0.968);
start = (0.4359,0.0251);
};
};
closed = 1;
nodes = (
(106,0,l),
(106,705,l),
(50,705,l),
(50,0,l)
);
},
{
attr = {
gradient = {
colors = (
(
(64,255),
0
),
(
(191,255),
0.5
),
(
(64,255),
1
)
);
end = (0.0587,0.1922);
start = (0.973,0.54);
};
};
closed = 1;
nodes = (
(255,335,l),
(255,389,l),
(106,389,l),
(106,335,l)
);
},
{
attr = {
gradient = {
colors = (
(
(64,255),
0
),
(
(191,255),
1
)
);
end = (0.3795,0.0792);
start = (0.4852,0.9879);
};
};
closed = 1;
nodes = (
(256,335,l),
(310,383,l),
(310,705,l),
(255,705,l),
(255,335,l)
);
}
);
width = 391.83333;
},
{
anchors = (
{
name = bottom;
pos = (240,0);
}
);
attr = {
color = "1";
};
layerId = "68348742-A108-42ED-B86C-DC367B3F2871";
shapes = (
{
attr = {
gradient = {
colors = (
(
(191,255),
0
),
(
(64,255),
1
)
);
end = (0.3248,0.6736);
start = (0.7312,0.0748);
};
};
closed = 1;
nodes = (
(473,0,l),
(473,1,l),
(321,373,l),
(250,319,l),
(365,0,l)
);
},
{
attr = {
gradient = {
colors = (
(
(64,255),
0
),
(
(191,255),
1
)
);
end = (0.4877,0.9217);
start = (0.4139,0.0382);
};
};
closed = 1;
nodes = (
(135,0,l),
(135,710,l),
(47,710,l),
(47,0,l)
);
},
{
attr = {
gradient = {
colors = (
(
(64,255),
0
),
(
(191,255),
0.5
),
(
(64,255),
1
)
);
end = (0.0587,0.1922);
start = (0.9557,0.8904);
};
};
closed = 1;
nodes = (
(314,317,l),
(314,401,l),
(135,401,l),
(135,317,l)
);
},
{
attr = {
gradient = {
colors = (
(
(64,255),
0
),
(
(191,255),
1
)
);
end = (0.2746,0.29);
start = (0.4923,0.9573);
};
};
closed = 1;
nodes = (
(315,317,l),
(400,390,l),
(400,710,l),
(314,710,l),
(314,317,l)
);
}
);
width = 487.66667;
},
{
anchors = (
{
name = bottom;
pos = (284,0);
}
);
attr = {
color = "1";
};
layerId = "0A98D1B9-7B82-4B4E-AB5F-E1C30C6E6C41";
shapes = (
{
attr = {
gradient = {
colors = (
(
(191,255),
0
),
(
(64,255),
1
)
);
end = (0.3248,0.6736);
start = (0.7312,0.0748);
};
};
closed = 1;
nodes = (
(573,0,l),
(573,1,l),
(390,373,l),
(294,302,l),
(424,0,l)
);
},
{
attr = {
gradient = {
colors = (
(
(64,255),
0
),
(
(191,255),
1
)
);
end = (0.4877,0.9217);
start = (0.4139,0.0382);
};
};
closed = 1;
nodes = (
(164,0,l),
(164,715,l),
(44,715,l),
(44,0,l)
);
},
{
attr = {
gradient = {
colors = (
(
(64,255),
0
),
(
(191,255),
0.5
),
(
(64,255),
1
)
);
end = (0.0587,0.1922);
start = (0.9557,0.8904);
};
};
closed = 1;
nodes = (
(373,299,l),
(373,413,l),
(164,413,l),
(164,299,l)
);
},
{
attr = {
gradient = {
colors = (
(
(64,255),
0
),
(
(191,255),
1
)
);
end = (0.2746,0.29);
start = (0.4923,0.9573);
};
};
closed = 1;
nodes = (
(374,299,l),
(491,398,l),
(491,715,l),
(373,715,l),
(373,299,l)
);
}
);
width = 583.5;
},
{
anchors = (
{
name = bottom;
pos = (306,0);
}
);
attr = {
color = "1";
};
layerId = "7599F073-2954-4FFC-B8EF-B2010DD53262";
shapes = (
{
attr = {
gradient = {
colors = (
(
(191,255),
0
),
(
(64,255),
1
)
);
end = (0.3248,0.6736);
start = (0.7312,0.0748);
};
};
closed = 1;
nodes = (
(623,0,l),
(623,1,l),
(425,373,l),
(316,293,l),
(453,0,l)
);
},
{
attr = {
gradient = {
colors = (
(
(64,255),
0
),
(
(191,255),
1
)
);
end = (0.4877,0.9217);
start = (0.4139,0.0382);
};
};
closed = 1;
nodes = (
(178,0,l),
(178,718,l),
(43,718,l),
(43,0,l)
);
},
{
attr = {
gradient = {
colors = (
(
(64,255),
0
),
(
(191,255),
0.5
),
(
(64,255),
1
)
);
end = (0.0587,0.1922);
start = (0.9557,0.8904);
};
};
closed = 1;
nodes = (
(402,290,l),
(402,419,l),
(178,419,l),
(178,290,l)
);
},
{
attr = {
gradient = {
colors = (
(
(64,255),
0
),
(
(191,255),
1
)
);
end = (0.2746,0.29);
start = (0.4923,0.9573);
};
};
closed = 1;
nodes = (
(403,290,l),
(536,402,l),
(536,718,l),
(402,718,l),
(402,290,l)
);
}
);
width = 631.41667;
},
{
anchors = (
{
name = bottom;
pos = (350,0);
}
);
attr = {
color = "1";
};
layerId = "5E49A2BD-5AA6-4751-9DCC-F05514CFF0B0";
shapes = (
{
attr = {
gradient = {
colors = (
(
(191,255),
0
),
(
(64,255),
1
)
);
end = (0.3248,0.6736);
start = (0.7312,0.0748);
};
};
closed = 1;
nodes = (
(722,0,l),
(722,1,l),
(494,373,l),
(359,276,l),
(512,0,l)
);
},
{
attr = {
gradient = {
colors = (
(
(64,255),
0
),
(
(191,255),
1
)
);
end = (0.4877,0.9217);
start = (0.4139,0.0382);
};
};
closed = 1;
nodes = (
(206,0,l),
(206,723,l),
(40,723,l),
(40,0,l)
);
},
{
attr = {
gradient = {
colors = (
(
(64,255),
0
),
(
(191,255),
0.5
),
(
(64,255),
1
)
);
end = (0.0587,0.1922);
start = (0.9557,0.8904);
};
};
closed = 1;
nodes = (
(460,271,l),
(460,430,l),
(206,430,l),
(206,271,l)
);
},
{
attr = {
gradient = {
colors = (
(
(64,255),
0
),
(
(191,255),
1
)
);
end = (0.2746,0.29);
start = (0.4923,0.9573);
};
};
closed = 1;
nodes = (
(461,271,l),
(626,409,l),
(626,723,l),
(460,723,l),
(460,271,l)
);
}
);
width = 727.25;
}
);
unicode = 75;
},
{
glyphname = L;
kernLeft = U;
lastChange = "2022-07-15 12:10:08 +0000";
layers = (
{
anchors = (
{
name = bottom;
pos = (152,0);
},
{
name = top;
pos = (73,700);
}
);
attr = {
color = "1";
};
layerId = "33AE93C6-B8B3-427A-A53B-F24970E840CE";
shapes = (
{
attr = {
gradient = {
colors = (
(
(191,255),
0
),
(
(64,255),
1
)
);
end = (0.8878,0.5878);
start = (0.094,0.7367);
};
};
closed = 1;
nodes = (
(256,0,l),
(256,24,l),
(53,24,l),
(53,23,l),
(76,0,l)
);
},
{
attr = {
gradient = {
colors = (
(
(64,255),
0
),
(
(191,255),
1
)
);
end = (0.4877,0.9217);
start = (0.4416,0.0083);
};
};
closed = 1;
nodes = (
(77,24,l),
(77,700,l),
(53,700,l),
(53,24,l)
);
}
);
width = 256;
},
{
anchors = (
{
name = bottom;
pos = (405,0);
},
{
name = top;
pos = (173,730);
}
);
attr = {
color = "1";
};
layerId = "E87239EE-82B8-404C-B23A-53843E270889";
shapes = (
{
attr = {
gradient = {
colors = (
(
(191,255),
0
),
(
(64,255),
1
)
);
end = (0.8878,0.5878);
start = (0.1218,0.8315);
};
};
closed = 1;
nodes = (
(728,0,l),
(728,204,l),
(35,204,l),
(35,203,l),
(237,0,l)
);
},
{
attr = {
gradient = {
colors = (
(
(64,255),
0
),
(
(191,255),
1
)
);
end = (0.4877,0.8996);
start = (0.4546,0.0703);
};
};
closed = 1;
nodes = (
(249,204,l),
(249,730,l),
(35,730,l),
(35,204,l)
);
}
);
width = 753;
},
{
anchors = (
{
name = bottom;
pos = (445,0);
},
{
name = top;
pos = (173,730);
}
);
attr = {
color = "1";
};
layerId = m003;
shapes = (
{
attr = {
gradient = {
colors = (
(
(191,255),
0
),
(
(64,255),
1
)
);
end = (0.8878,0.5878);
start = (0.0929,0.8646);
};
};
closed = 1;
nodes = (
(768,1,l),
(768,245,l),
(35,245,l),
(35,244,l),
(237,1,l)
);
},
{
attr = {
gradient = {
colors = (
(
(64,255),
0
),
(
(191,255),
1
)
);
end = (0.4877,0.8996);
start = (0.3886,0.0761);
};
};
closed = 1;
nodes = (
(289,245,l),
(289,730,l),
(35,730,l),
(35,245,l)
);
}
);
width = 793;
},
{
anchors = (
{
name = bottom;
pos = (194,0);
},
{
name = top;
pos = (90,705);
}
);
attr = {
color = "1";
};
layerId = "B297D401-77A1-4CCB-A385-A5DBDDA4353D";
shapes = (
{
attr = {
gradient = {
colors = (
(
(191,255),
0
),
(
(64,255),
1
)
);
end = (0.8878,0.5878);
start = (0.094,0.7367);
};
};
closed = 1;
nodes = (
(335,0,l),
(335,54,l),
(50,54,l),
(50,53,l),
(103,0,l)
);
},
{
attr = {
gradient = {
colors = (
(
(64,255),
0
),
(
(191,255),
1
)
);
end = (0.4877,0.9217);
start = (0.4416,0.0083);
};
};
closed = 1;
nodes = (
(106,54,l),
(106,705,l),
(50,705,l),
(50,54,l)
);
}
);
width = 338.83333;
},
{
anchors = (
{
name = bottom;
pos = (236,0);
},
{
name = top;
pos = (107,710);
}
);
attr = {
color = "1";
};
layerId = "68348742-A108-42ED-B86C-DC367B3F2871";
shapes = (
{
attr = {
gradient = {
colors = (
(
(191,255),
0
),
(
(64,255),
1
)
);
end = (0.8878,0.5878);
start = (0.1218,0.8315);
};
};
closed = 1;
nodes = (
(414,0,l),
(414,84,l),
(47,84,l),
(47,83,l),
(130,0,l)
);
},
{
attr = {
gradient = {
colors = (
(
(64,255),
0
),
(
(191,255),
1
)
);
end = (0.4877,0.8996);
start = (0.4546,0.0703);
};
};
closed = 1;
nodes = (
(135,84,l),
(135,710,l),
(47,710,l),
(47,84,l)
);
}
);
width = 421.66667;
},
{
anchors = (
{
name = bottom;
pos = (278,0);
},
{
name = top;
pos = (124,715);
}
);
attr = {
color = "1";
};
layerId = "0A98D1B9-7B82-4B4E-AB5F-E1C30C6E6C41";
shapes = (
{
attr = {
gradient = {
colors = (
(
(191,255),
0
),
(
(64,255),
1
)
);
end = (0.8878,0.5878);
start = (0.1218,0.8315);
};
};
closed = 1;
nodes = (
(493,0,l),
(493,114,l),
(44,114,l),
(44,113,l),
(157,0,l)
);
},
{
attr = {
gradient = {
colors = (
(
(64,255),
0
),
(
(191,255),
1
)
);
end = (0.4877,0.8996);
start = (0.4546,0.0703);
};
};
closed = 1;
nodes = (
(164,114,l),
(164,715,l),
(44,715,l),
(44,114,l)
);
}
);
width = 504.5;
},
{
anchors = (
{
name = bottom;
pos = (299,0);
},
{
name = top;
pos = (132,718);
}
);
attr = {
color = "1";
};
layerId = "7599F073-2954-4FFC-B8EF-B2010DD53262";
shapes = (
{
attr = {
gradient = {
colors = (
(
(191,255),
0
),
(
(64,255),
1
)
);
end = (0.8878,0.5878);
start = (0.1218,0.8315);
};
};
closed = 1;
nodes = (
(532,0,l),
(532,129,l),
(43,129,l),
(43,128,l),
(170,0,l)
);
},
{
attr = {
gradient = {
colors = (
(
(64,255),
0
),
(
(191,255),
1
)
);
end = (0.4877,0.8996);
start = (0.4546,0.0703);
};
};
closed = 1;
nodes = (
(178,129,l),
(178,718,l),
(43,718,l),
(43,129,l)
);
}
);
width = 545.91667;
},
{
anchors = (
{
name = bottom;
pos = (341,0);
},
{
name = top;
pos = (148,723);
}
);
attr = {
color = "1";
};
layerId = "5E49A2BD-5AA6-4751-9DCC-F05514CFF0B0";
shapes = (
{
attr = {
gradient = {
colors = (
(
(191,255),
0
),
(
(64,255),
1
)
);
end = (0.8878,0.5878);
start = (0.1218,0.8315);
};
};
closed = 1;
nodes = (
(610,0,l),
(610,159,l),
(40,159,l),
(40,158,l),
(197,0,l)
);
},
{
attr = {
gradient = {
colors = (
(
(64,255),
0
),
(
(191,255),
1
)
);
end = (0.4877,0.8996);
start = (0.4546,0.0703);
};
};
closed = 1;
nodes = (
(206,159,l),
(206,723,l),
(40,723,l),
(40,159,l)
);
}
);
width = 628.75;
}
);
unicode = 76;
},
{
glyphname = Lslash;
kernRight = L;
lastChange = "2022-07-15 12:10:08 +0000";
layers = (
{
attr = {
color = "1";
};
layerId = "33AE93C6-B8B3-427A-A53B-F24970E840CE";
shapes = (
{
attr = {
gradient = {
colors = (
(
(128,255),
0.03599
),
(
(64,255),
0.5044
),
(
(191,255),
1
)
);
end = (0.8839,0.9048);
start = (0.1039,0.0921);
};
identifier = ID0x60000049aa00;
};
closed = 1;
nodes = (
(166,423,l),
(166,424,l),
(150,441,l),
(43,312,l),
(43,311,l),
(59,294,l)
);
},
{
pos = (30,0);
ref = L;
}
);
width = 309;
},
{
attr = {
color = "1";
};
layerId = "E87239EE-82B8-404C-B23A-53843E270889";
shapes = (
{
attr = {
gradient = {
colors = (
(
(128,255),
0
),
(
(64,255),
0.51565
),
(
(191,255),
1
)
);
end = (0.9498,0.912);
start = (0.0904,0.1467);
};
identifier = ID0x600000498620;
};
closed = 1;
nodes = (
(572,548,l),
(572,549,l),
(496,689,l),
(0,413,l),
(0,412,l),
(75,273,l)
);
},
{
pos = (105,0);
ref = L;
}
);
width = 888;
},
{
attr = {
color = "1";
};
layerId = m003;
shapes = (
{
attr = {
gradient = {
colors = (
(
(128,255),
0
),
(
(64,255),
0.51565
),
(
(191,255),
1
)
);
end = (0.9498,0.912);
start = (0.0904,0.1467);
};
identifier = ID0x600000498620;
};
closed = 1;
nodes = (
(592,558,l),
(592,559,l),
(516,699,l),
(0,413,l),
(0,412,l),
(75,273,l)
);
},
{
pos = (105,0);
ref = L;
}
);
width = 888;
},
{
attr = {
color = "1";
};
layerId = "B297D401-77A1-4CCB-A385-A5DBDDA4353D";
shapes = (
{
attr = {
gradient = {
colors = (
(
(128,255),
0.03599
),
(
(64,255),
0.5044
),
(
(191,255),
1
)
);
end = (0.8839,0.9048);
start = (0.1039,0.0921);
};
identifier = ID0x60000049aa00;
};
closed = 1;
nodes = (
(234,444,l),
(234,445,l),
(208,482,l),
(36,329,l),
(36,328,l),
(62,291,l)
);
},
{
alignment = -1;
pos = (43,0);
ref = L;
}
);
width = 405.5;
},
{
attr = {
color = "1";
};
layerId = "68348742-A108-42ED-B86C-DC367B3F2871";
shapes = (
{
attr = {
gradient = {
colors = (
(
(128,255),
0
),
(
(64,255),
0.51565
),
(
(191,255),
1
)
);
end = (0.9498,0.912);
start = (0.0904,0.1467);
};
identifier = ID0x600000498620;
};
closed = 1;
nodes = (
(302,465,l),
(302,466,l),
(266,523,l),
(29,346,l),
(29,345,l),
(65,287,l)
);
},
{
alignment = -1;
pos = (55,0);
ref = L;
}
);
width = 502;
},
{
attr = {
color = "1";
};
layerId = "0A98D1B9-7B82-4B4E-AB5F-E1C30C6E6C41";
shapes = (
{
attr = {
gradient = {
colors = (
(
(128,255),
0
),
(
(64,255),
0.51565
),
(
(191,255),
1
)
);
end = (0.9498,0.912);
start = (0.0904,0.1467);
};
identifier = ID0x600000498620;
};
closed = 1;
nodes = (
(370,486,l),
(370,487,l),
(324,565,l),
(22,363,l),
(22,362,l),
(68,284,l)
);
},
{
alignment = -1;
pos = (68,0);
ref = L;
}
);
width = 598.5;
},
{
attr = {
color = "1";
};
layerId = "7599F073-2954-4FFC-B8EF-B2010DD53262";
shapes = (
{
attr = {
gradient = {
colors = (
(
(128,255),
0
),
(
(64,255),
0.51565
),
(
(191,255),
1
)
);
end = (0.9498,0.912);
start = (0.0904,0.1467);
};
identifier = ID0x600000498620;
};
closed = 1;
nodes = (
(404,496,l),
(404,497,l),
(353,586,l),
(18,371,l),
(18,370,l),
(69,282,l)
);
},
{
alignment = -1;
pos = (74,0);
ref = L;
}
);
width = 646.75;
},
{
attr = {
color = "1";
};
layerId = "5E49A2BD-5AA6-4751-9DCC-F05514CFF0B0";
shapes = (
{
attr = {
gradient = {
colors = (
(
(128,255),
0
),
(
(64,255),
0.51565
),
(
(191,255),
1
)
);
end = (0.9498,0.912);
start = (0.0904,0.1467);
};
identifier = ID0x600000498620;
};
closed = 1;
nodes = (
(471,517,l),
(471,518,l),
(410,627,l),
(11,388,l),
(11,387,l),
(71,278,l)
);
},
{
alignment = -1;
pos = (86,0);
ref = L;
}
);
width = 743.25;
}
);
unicode = 321;
},
{
glyphname = M;
kernLeft = H;
kernRight = H;
lastChange = "2022-07-28 20:10:39 +0000";
layers = (
{
attr = {
color = "1";
};
layerId = "33AE93C6-B8B3-427A-A53B-F24970E840CE";
shapes = (
{
attr = {
gradient = {
colors = (
(
(64,255),
0
),
(
(191,255),
1
)
);
end = (0.1535,0.0956);
start = (0.7908,0.8237);
};
identifier = ID0x6000032b3f00;
};
closed = 1;
nodes = (
(222,-3,l),
(365,680,l),
(342,703,l),
(196,-3,l)
);
},
{
attr = {
gradient = {
colors = (
(
(64,255),
0
),
(
(191,255),
1
)
);
end = (0.4552,0.0101);
start = (0.4939,0.8363);
};
identifier = ID0x6000032b3f00;
};
closed = 1;
nodes = (
(77,0,l),
(77,655,l),
(53,679,l),
(53,0,l)
);
},
{
attr = {
gradient = {
colors = (
(
(64,255),
0
),
(
(191,255),
1
)
);
end = (0.1143,0.9602);
start = (0.8356,0.0842);
};
identifier = ID0x6000032b3f00;
};
closed = 1;
nodes = (
(222,-3,l),
(222,-2,l),
(77,703,l),
(76,703,l),
(53,679,l),
(196,-3,l)
);
},
{
attr = {
gradient = {
colors = (
(
(64,255),
0
),
(
(191,255),
1
)
);
end = (0.5275,0.9097);
start = (0.5198,0.0655);
};
identifier = ID0x6000032b3f00;
};
closed = 1;
nodes = (
(366,0,l),
(366,679,l),
(343,703,l),
(342,703,l),
(342,0,l)
);
}
);
width = 419;
},
{
attr = {
color = "1";
};
layerId = "E87239EE-82B8-404C-B23A-53843E270889";
shapes = (
{
attr = {
gradient = {
colors = (
(
(64,255),
0
),
(
(191,255),
1
)
);
end = (0.2217,0.103);
start = (0.501,0.7225);
};
};
closed = 1;
nodes = (
(649,-6,l),
(946,465,l),
(836,736,l),
(532,160,l)
);
},
{
attr = {
gradient = {
colors = (
(
(64,255),
0
),
(
(191,255),
1
)
);
end = (0.5869,0.0279);
start = (0.2669,0.7845);
};
};
closed = 1;
nodes = (
(249,0,l),
(249,358,l),
(35,736,l),
(35,0,l)
);
},
{
attr = {
gradient = {
colors = (
(
(64,255),
0
),
(
(191,255),
1
)
);
end = (0.3404,0.9774);
start = (0.8101,0.0503);
};
};
closed = 1;
nodes = (
(649,-6,l),
(649,-5,l),
(249,736,l),
(248,736,l),
(35,736,l),
(445,-6,l)
);
},
{
attr = {
gradient = {
colors = (
(
(64,255),
0
),
(
(191,255),
1
)
);
end = (0.4877,0.9217);
start = (0.4155,-0.0037);
};
};
closed = 1;
nodes = (
(1050,0,l),
(1060,736,l),
(837,736,l),
(836,736,l),
(836,0,l)
);
}
);
width = 1095;
},
{
attr = {
color = "1";
};
layerId = m003;
shapes = (
{
attr = {
gradient = {
colors = (
(
(64,255),
0
),
(
(191,255),
1
)
);
end = (0.3574,0.0672);
start = (0.6661,0.7801);
};
};
closed = 1;
nodes = (
(732,-6,l),
(1016,465,l),
(916,736,l),
(572,160,l)
);
},
{
attr = {
gradient = {
colors = (
(
(64,255),
0
),
(
(191,255),
1
)
);
end = (0.4857,0.026);
start = (0.3069,0.7383);
};
};
closed = 1;
nodes = (
(289,0,l),
(289,326,l),
(35,736,l),
(35,0,l)
);
},
{
attr = {
gradient = {
colors = (
(
(64,255),
0
),
(
(191,255),
1
)
);
end = (0.21,0.9718);
start = (0.7554,0.0226);
};
};
closed = 1;
nodes = (
(732,-6,l),
(732,-5,l),
(259,736,l),
(258,736,l),
(35,736,l),
(473,-6,l)
);
},
{
attr = {
gradient = {
colors = (
(
(64,255),
0
),
(
(191,255),
1
)
);
end = (0.4877,0.9217);
start = (0.4592,0.0534);
};
};
closed = 1;
nodes = (
(1170,0,l),
(1180,736,l),
(917,736,l),
(916,736,l),
(916,0,l)
);
}
);
width = 1215;
},
{
attr = {
color = "1";
};
layerId = "B297D401-77A1-4CCB-A385-A5DBDDA4353D";
shapes = (
{
attr = {
gradient = {
colors = (
(
(64,255),
0
),
(
(191,255),
1
)
);
end = (0.1535,0.0956);
start = (0.7908,0.8237);
};
identifier = ID0x6000032b3f00;
};
closed = 1;
nodes = (
(293,-3,l),
(462,644,l),
(424,709,l),
(252,24,l)
);
},
{
attr = {
gradient = {
colors = (
(
(64,255),
0
),
(
(191,255),
1
)
);
end = (0.4552,0.0101);
start = (0.4939,0.8363);
};
identifier = ID0x6000032b3f00;
};
closed = 1;
nodes = (
(106,0,l),
(106,606,l),
(50,689,l),
(50,0,l)
);
},
{
attr = {
gradient = {
colors = (
(
(64,255),
0
),
(
(191,255),
1
)
);
end = (0.1143,0.9602);
start = (0.8356,0.0842);
};
identifier = ID0x6000032b3f00;
};
closed = 1;
nodes = (
(293,-3,l),
(293,-2,l),
(106,709,l),
(105,709,l),
(50,689,l),
(238,-3,l)
);
},
{
attr = {
gradient = {
colors = (
(
(64,255),
0
),
(
(191,255),
1
)
);
end = (0.5275,0.9097);
start = (0.5198,0.0655);
};
identifier = ID0x6000032b3f00;
};
closed = 1;
nodes = (
(480,0,l),
(482,689,l),
(425,709,l),
(424,709,l),
(424,0,l)
);
}
);
width = 531.66667;
},
{
attr = {
color = "1";
};
layerId = "68348742-A108-42ED-B86C-DC367B3F2871";
shapes = (
{
attr = {
gradient = {
colors = (
(
(64,255),
0
),
(
(191,255),
1
)
);
end = (0.2217,0.103);
start = (0.6498,0.7442);
};
};
closed = 1;
nodes = (
(364,-4,l),
(559,608,l),
(506,714,l),
(308,51,l)
);
},
{
attr = {
gradient = {
colors = (
(
(64,255),
0
),
(
(191,255),
1
)
);
end = (0.5869,0.0279);
start = (0.2669,0.7845);
};
};
closed = 1;
nodes = (
(135,0,l),
(135,556,l),
(47,698,l),
(47,0,l)
);
},
{
attr = {
gradient = {
colors = (
(
(64,255),
0
),
(
(191,255),
1
)
);
end = (0.3404,0.9774);
start = (0.8101,0.0503);
};
};
closed = 1;
nodes = (
(364,-4,l),
(364,-3,l),
(135,714,l),
(134,714,l),
(47,698,l),
(279,-4,l)
);
},
{
attr = {
gradient = {
colors = (
(
(64,255),
0
),
(
(191,255),
1
)
);
end = (0.4877,0.9217);
start = (0.4155,-0.0037);
};
};
closed = 1;
nodes = (
(594,0,l),
(598,698,l),
(507,714,l),
(506,714,l),
(506,0,l)
);
}
);
width = 645;
},
{
attr = {
color = "1";
};
layerId = "0A98D1B9-7B82-4B4E-AB5F-E1C30C6E6C41";
shapes = (
{
attr = {
gradient = {
colors = (
(
(64,255),
0
),
(
(191,255),
1
)
);
end = (0.2217,0.103);
start = (0.6741,0.7655);
};
};
closed = 1;
nodes = (
(435,-4,l),
(656,572,l),
(589,720,l),
(364,78,l)
);
},
{
attr = {
gradient = {
colors = (
(
(64,255),
0
),
(
(191,255),
1
)
);
end = (0.5869,0.0279);
start = (0.2669,0.7845);
};
};
closed = 1;
nodes = (
(164,0,l),
(164,507,l),
(44,708,l),
(44,0,l)
);
},
{
attr = {
gradient = {
colors = (
(
(64,255),
0
),
(
(191,255),
1
)
);
end = (0.3404,0.9774);
start = (0.8101,0.0503);
};
};
closed = 1;
nodes = (
(435,-4,l),
(435,-3,l),
(164,720,l),
(163,720,l),
(44,708,l),
(321,-4,l)
);
},
{
attr = {
gradient = {
colors = (
(
(64,255),
0
),
(
(191,255),
1
)
);
end = (0.4877,0.9217);
start = (0.4155,-0.0037);
};
};
closed = 1;
nodes = (
(708,0,l),
(714,708,l),
(590,720,l),
(589,720,l),
(589,0,l)
);
}
);
width = 758;
},
{
attr = {
color = "1";
};
layerId = "7599F073-2954-4FFC-B8EF-B2010DD53262";
shapes = (
{
attr = {
gradient = {
colors = (
(
(64,255),
0
),
(
(191,255),
1
)
);
end = (0.2217,0.103);
start = (0.6529,0.7701);
};
};
closed = 1;
nodes = (
(471,-4,l),
(704,554,l),
(630,723,l),
(392,92,l)
);
},
{
attr = {
gradient = {
colors = (
(
(64,255),
0
),
(
(191,255),
1
)
);
end = (0.5869,0.0279);
start = (0.2669,0.7845);
};
};
closed = 1;
nodes = (
(178,0,l),
(178,482,l),
(43,713,l),
(43,0,l)
);
},
{
attr = {
gradient = {
colors = (
(
(64,255),
0
),
(
(191,255),
1
)
);
end = (0.3404,0.9774);
start = (0.8101,0.0503);
};
};
closed = 1;
nodes = (
(471,-4,l),
(471,-3,l),
(178,723,l),
(177,723,l),
(43,713,l),
(342,-4,l)
);
},
{
attr = {
gradient = {
colors = (
(
(64,255),
0
),
(
(191,255),
1
)
);
end = (0.4877,0.9217);
start = (0.4155,-0.0037);
};
};
closed = 1;
nodes = (
(765,0,l),
(772,713,l),
(631,723,l),
(630,723,l),
(630,0,l)
);
}
);
width = 815;
},
{
attr = {
color = "1";
};
layerId = "5E49A2BD-5AA6-4751-9DCC-F05514CFF0B0";
shapes = (
{
attr = {
gradient = {
colors = (
(
(64,255),
0
),
(
(191,255),
1
)
);
end = (0.2217,0.103);
start = (0.6448,0.7383);
};
};
closed = 1;
nodes = (
(542,-5,l),
(801,518,l),
(712,728,l),
(448,119,l)
);
},
{
attr = {
gradient = {
colors = (
(
(64,255),
0
),
(
(191,255),
1
)
);
end = (0.5869,0.0279);
start = (0.2669,0.7845);
};
};
closed = 1;
nodes = (
(206,0,l),
(206,432,l),
(40,722,l),
(40,0,l)
);
},
{
attr = {
gradient = {
colors = (
(
(64,255),
0
),
(
(191,255),
1
)
);
end = (0.3404,0.9774);
start = (0.8101,0.0503);
};
};
closed = 1;
nodes = (
(542,-5,l),
(542,-4,l),
(206,728,l),
(205,728,l),
(40,722,l),
(383,-5,l)
);
},
{
attr = {
gradient = {
colors = (
(
(64,255),
0
),
(
(191,255),
1
)
);
end = (0.4877,0.9217);
start = (0.4155,-0.0037);
};
};
closed = 1;
nodes = (
(879,0,l),
(887,722,l),
(713,728,l),
(712,728,l),
(712,0,l)
);
}
);
width = 927;
}
);
metricRight = "=|";
unicode = 77;
},
{
glyphname = N;
kernLeft = A;
kernRight = U;
lastChange = "2022-07-15 12:10:08 +0000";
layers = (
{
anchors = (
{
name = bottom;
pos = (165,0);
},
{
name = top;
pos = (168,700);
}
);
attr = {
color = "1";
};
layerId = "33AE93C6-B8B3-427A-A53B-F24970E840CE";
shapes = (
{
attr = {
gradient = {
colors = (
(
(64,255),
0
),
(
(191,255),
1
)
);
end = (0.5893,0.952);
start = (0.4027,0.1766);
};
};
closed = 1;
nodes = (
(260,700,l),
(236,700,l),
(236,46,l),
(260,22,l)
);
},
{
attr = {
gradient = {
colors = (
(
(64,255),
0
),
(
(191,255),
1
)
);
end = (0.5277,0.0483);
start = (0.4049,0.8356);
};
};
closed = 1;
nodes = (
(77,0,l),
(77,655,l),
(53,679,l),
(53,0,l)
);
},
{
attr = {
gradient = {
colors = (
(
(191,255),
0
),
(
(128,255),
0.50053
),
(
(191,255),
1
)
);
end = (0.0877,0.9608);
start = (0.9223,0.0402);
};
};
closed = 1;
nodes = (
(237,-3,l),
(260,21,l),
(260,22,l),
(77,703,l),
(76,703,l),
(53,680,l),
(53,679,l),
(236,-3,l)
);
}
);
width = 313;
},
{
anchors = (
{
name = bottom;
pos = (433,0);
},
{
name = top;
pos = (416,730);
}
);
attr = {
color = "1";
};
layerId = "E87239EE-82B8-404C-B23A-53843E270889";
shapes = (
{
attr = {
gradient = {
colors = (
(
(64,255),
0
),
(
(191,255),
1
)
);
end = (0.8068,0.953);
start = (0.1553,0.418);
};
};
closed = 1;
nodes = (
(782,730,l),
(568,730,l),
(568,362,l),
(782,152,l)
);
},
{
attr = {
gradient = {
colors = (
(
(64,255),
0
),
(
(191,255),
1
)
);
end = (0.289,0.0336);
start = (0.651,0.7045);
};
};
closed = 1;
nodes = (
(249,0,l),
(249,381,l),
(35,591,l),
(35,0,l)
);
},
{
attr = {
gradient = {
colors = (
(
(191,255),
0
),
(
(128,255),
0.37477
),
(
(191,255),
1
)
);
end = (0.2353,0.8711);
start = (0.8206,0.0367);
};
};
closed = 1;
nodes = (
(643,-6,l),
(782,151,l),
(782,152,l),
(188,736,l),
(187,736,l),
(35,592,l),
(35,591,l),
(642,-6,l)
);
}
);
width = 817;
},
{
anchors = (
{
name = bottom;
pos = (445,0);
},
{
name = top;
pos = (456,730);
}
);
attr = {
color = "1";
};
layerId = m003;
shapes = (
{
attr = {
gradient = {
colors = (
(
(64,255),
0
),
(
(191,255),
1
)
);
end = (0.8068,0.953);
start = (0.7184,0.2314);
};
};
closed = 1;
nodes = (
(862,730,l),
(608,730,l),
(608,397,l),
(862,172,l)
);
},
{
attr = {
gradient = {
colors = (
(
(64,255),
0
),
(
(191,255),
1
)
);
end = (0.3965,0.0184);
start = (0.404,0.7819);
};
};
closed = 1;
nodes = (
(289,0,l),
(289,345,l),
(35,571,l),
(35,0,l)
);
},
{
attr = {
gradient = {
colors = (
(
(191,255),
0
),
(
(128,255),
0.28166
),
(
(191,255),
1
)
);
end = (0.3193,0.8672);
start = (0.7846,0.0391);
};
};
closed = 1;
nodes = (
(683,-6,l),
(862,171,l),
(862,172,l),
(228,736,l),
(227,736,l),
(35,572,l),
(35,571,l),
(682,-6,l)
);
}
);
width = 897;
},
{
anchors = (
{
name = bottom;
pos = (210,0);
},
{
name = top;
pos = (209,705);
}
);
attr = {
color = "1";
};
layerId = "B297D401-77A1-4CCB-A385-A5DBDDA4353D";
shapes = (
{
attr = {
gradient = {
colors = (
(
(64,255),
0
),
(
(191,255),
1
)
);
end = (0.5893,0.952);
start = (0.4027,0.1766);
};
};
closed = 1;
nodes = (
(347,705,l),
(291,705,l),
(291,99,l),
(347,44,l)
);
},
{
attr = {
gradient = {
colors = (
(
(64,255),
0
),
(
(191,255),
1
)
);
end = (0.5277,0.0483);
start = (0.4049,0.8356);
};
};
closed = 1;
nodes = (
(106,0,l),
(106,609,l),
(50,664,l),
(50,0,l)
);
},
{
attr = {
gradient = {
colors = (
(
(191,255),
0
),
(
(128,255),
0.50053
),
(
(191,255),
1
)
);
end = (0.0877,0.9608);
start = (0.9223,0.0402);
};
};
closed = 1;
nodes = (
(305,-3,l),
(347,43,l),
(347,44,l),
(96,709,l),
(95,709,l),
(50,665,l),
(50,664,l),
(304,-3,l)
);
}
);
width = 397;
},
{
anchors = (
{
name = bottom;
pos = (255,0);
},
{
name = top;
pos = (250,710);
}
);
attr = {
color = "1";
};
layerId = "68348742-A108-42ED-B86C-DC367B3F2871";
shapes = (
{
attr = {
gradient = {
colors = (
(
(64,255),
0
),
(
(191,255),
1
)
);
end = (0.8068,0.953);
start = (0.1553,0.418);
};
};
closed = 1;
nodes = (
(434,710,l),
(346,710,l),
(346,152,l),
(434,66,l)
);
},
{
attr = {
gradient = {
colors = (
(
(64,255),
0
),
(
(191,255),
1
)
);
end = (0.289,0.0336);
start = (0.651,0.7045);
};
};
closed = 1;
nodes = (
(135,0,l),
(135,563,l),
(47,649,l),
(47,0,l)
);
},
{
attr = {
gradient = {
colors = (
(
(191,255),
0
),
(
(128,255),
0.37477
),
(
(191,255),
1
)
);
end = (0.2353,0.8711);
start = (0.8206,0.0367);
};
};
closed = 1;
nodes = (
(373,-4,l),
(434,65,l),
(434,66,l),
(114,714,l),
(113,714,l),
(47,650,l),
(47,649,l),
(372,-4,l)
);
}
);
width = 481;
},
{
anchors = (
{
name = bottom;
pos = (300,0);
},
{
name = top;
pos = (292,715);
}
);
attr = {
color = "1";
};
layerId = "0A98D1B9-7B82-4B4E-AB5F-E1C30C6E6C41";
shapes = (
{
attr = {
gradient = {
colors = (
(
(64,255),
0
),
(
(191,255),
1
)
);
end = (0.8068,0.953);
start = (0.1553,0.418);
};
};
closed = 1;
nodes = (
(521,715,l),
(402,715,l),
(402,205,l),
(521,88,l)
);
},
{
attr = {
gradient = {
colors = (
(
(64,255),
0
),
(
(191,255),
1
)
);
end = (0.289,0.0336);
start = (0.651,0.7045);
};
};
closed = 1;
nodes = (
(164,0,l),
(164,518,l),
(44,635,l),
(44,0,l)
);
},
{
attr = {
gradient = {
colors = (
(
(191,255),
0
),
(
(128,255),
0.37477
),
(
(191,255),
1
)
);
end = (0.2353,0.8711);
start = (0.8206,0.0367);
};
};
closed = 1;
nodes = (
(441,-4,l),
(521,87,l),
(521,88,l),
(133,720,l),
(132,720,l),
(44,636,l),
(44,635,l),
(440,-4,l)
);
}
);
width = 565;
},
{
anchors = (
{
name = bottom;
pos = (322,0);
},
{
name = top;
pos = (313,718);
}
);
attr = {
color = "1";
};
layerId = "7599F073-2954-4FFC-B8EF-B2010DD53262";
shapes = (
{
attr = {
gradient = {
colors = (
(
(64,255),
0
),
(
(191,255),
1
)
);
end = (0.8068,0.953);
start = (0.1553,0.418);
};
};
closed = 1;
nodes = (
(565,718,l),
(430,718,l),
(430,231,l),
(565,99,l)
);
},
{
attr = {
gradient = {
colors = (
(
(64,255),
0
),
(
(191,255),
1
)
);
end = (0.289,0.0336);
start = (0.651,0.7045);
};
};
closed = 1;
nodes = (
(178,0,l),
(178,495,l),
(43,628,l),
(43,0,l)
);
},
{
attr = {
gradient = {
colors = (
(
(191,255),
0
),
(
(128,255),
0.37477
),
(
(191,255),
1
)
);
end = (0.2353,0.8711);
start = (0.8206,0.0367);
};
};
closed = 1;
nodes = (
(475,-4,l),
(565,98,l),
(565,99,l),
(142,723,l),
(141,723,l),
(43,629,l),
(43,628,l),
(474,-4,l)
);
}
);
width = 607;
},
{
anchors = (
{
name = bottom;
pos = (366,0);
},
{
name = top;
pos = (354,723);
}
);
attr = {
color = "1";
};
layerId = "5E49A2BD-5AA6-4751-9DCC-F05514CFF0B0";
shapes = (
{
attr = {
gradient = {
colors = (
(
(64,255),
0
),
(
(191,255),
1
)
);
end = (0.8068,0.953);
start = (0.1553,0.418);
};
};
closed = 1;
nodes = (
(652,723,l),
(485,723,l),
(485,283,l),
(652,120,l)
);
},
{
attr = {
gradient = {
colors = (
(
(64,255),
0
),
(
(191,255),
1
)
);
end = (0.289,0.0336);
start = (0.651,0.7045);
};
};
closed = 1;
nodes = (
(206,0,l),
(206,449,l),
(40,613,l),
(40,0,l)
);
},
{
attr = {
gradient = {
colors = (
(
(191,255),
0
),
(
(128,255),
0.37477
),
(
(191,255),
1
)
);
end = (0.2353,0.8711);
start = (0.8206,0.0367);
};
};
closed = 1;
nodes = (
(542,-5,l),
(652,119,l),
(652,120,l),
(160,728,l),
(159,728,l),
(40,614,l),
(40,613,l),
(541,-5,l)
);
}
);
width = 691;
}
);
unicode = 78;
},
{
glyphname = Eng;
kernLeft = A;
kernRight = j;
lastChange = "2022-07-15 12:10:08 +0000";
layers = (
{
attr = {
color = "1";
};
layerId = "33AE93C6-B8B3-427A-A53B-F24970E840CE";
shapes = (
{
attr = {
gradient = {
colors = (
(
(64,255),
0
),
(
(191,255),
1
)
);
end = (0.2296,0.0026);
start = (0.3797,0.8177);
};
};
closed = 1;
nodes = (
(77,0,l),
(77,655,l),
(53,679,l),
(53,0,l)
);
},
{
attr = {
gradient = {
colors = (
(
(128,255),
0
),
(
(191,255),
1
)
);
end = (0.1743,0.8476);
start = (0.8115,0.1426);
};
};
closed = 1;
nodes = (
(237,-3,l),
(260,21,l),
(260,22,l),
(77,703,l),
(76,703,l),
(53,680,l),
(53,679,l),
(236,-3,l)
);
},
{
attr = {
gradient = {
colors = (
(
(64,255),
0
),
(
(191,255),
1
)
);
end = (0.4898,0.9532);
start = (0.4881,0.0072);
};
};
closed = 1;
nodes = (
(260,-176,l),
(260,700,l),
(236,700,l),
(236,-176,l)
);
},
{
attr = {
gradient = {
colors = (
(
(64,255),
0
),
(
(191,255),
1
)
);
end = (0.6641,0.8052);
start = (0.0668,0.3194);
};
};
closed = 1;
nodes = (
(236,-200,l),
(260,-177,l),
(260,-176,l),
(196,-176,l),
(196,-200,l)
);
}
);
width = 313;
},
{
attr = {
color = "1";
};
layerId = "E87239EE-82B8-404C-B23A-53843E270889";
shapes = (
{
attr = {
gradient = {
colors = (
(
(64,255),
0
),
(
(191,255),
1
)
);
end = (0.2296,0.0634);
start = (0.4096,0.7535);
};
};
closed = 1;
nodes = (
(279,0,l),
(279,345,l),
(25,571,l),
(25,0,l)
);
},
{
attr = {
gradient = {
colors = (
(
(128,255),
0
),
(
(191,255),
1
)
);
end = (0.2345,0.8885);
start = (0.6699,0.2464);
};
};
closed = 1;
nodes = (
(673,-6,l),
(852,171,l),
(852,172,l),
(218,736,l),
(217,736,l),
(25,572,l),
(25,571,l),
(672,-6,l)
);
},
{
attr = {
gradient = {
colors = (
(
(64,255),
0
),
(
(191,255),
1
)
);
end = (0.7861,0.9428);
start = (0.6994,0.0801);
};
};
closed = 1;
nodes = (
(852,-24,l),
(852,730,l),
(598,730,l),
(598,-24,l)
);
},
{
attr = {
gradient = {
colors = (
(
(64,255),
0
),
(
(191,255),
1
)
);
end = (0.7658,0.909);
start = (0.1245,0.1818);
};
};
closed = 1;
nodes = (
(650,-268,l),
(852,-25,l),
(852,-24,l),
(469,-24,l),
(469,-268,l)
);
}
);
width = 877;
},
{
attr = {
color = "1";
};
layerId = m003;
shapes = (
{
attr = {
gradient = {
colors = (
(
(64,255),
0
),
(
(191,255),
1
)
);
end = (0.2402,0.0285);
start = (0.8329,0.6117);
};
};
closed = 1;
nodes = (
(279,0,l),
(279,345,l),
(25,571,l),
(25,0,l)
);
},
{
attr = {
gradient = {
colors = (
(
(128,255),
0
),
(
(191,255),
1
)
);
end = (0.2213,0.9006);
start = (0.5818,0.3044);
};
};
closed = 1;
nodes = (
(673,-6,l),
(852,171,l),
(852,172,l),
(218,736,l),
(217,736,l),
(25,572,l),
(25,571,l),
(672,-6,l)
);
},
{
attr = {
gradient = {
colors = (
(
(64,255),
0
),
(
(191,255),
1
)
);
end = (0.8068,0.953);
start = (0.7362,0.1318);
};
};
closed = 1;
nodes = (
(852,-24,l),
(852,730,l),
(598,730,l),
(598,-24,l)
);
},
{
attr = {
gradient = {
colors = (
(
(64,255),
0
),
(
(191,255),
1
)
);
end = (0.9293,0.9316);
start = (0.1245,0.1818);
};
};
closed = 1;
nodes = (
(650,-268,l),
(852,-25,l),
(852,-24,l),
(469,-24,l),
(469,-268,l)
);
}
);
width = 877;
},
{
attr = {
color = "1";
};
layerId = "B297D401-77A1-4CCB-A385-A5DBDDA4353D";
shapes = (
{
attr = {
gradient = {
colors = (
(
(64,255),
0
),
(
(191,255),
1
)
);
end = (0.2296,0.0026);
start = (0.3797,0.8177);
};
};
closed = 1;
nodes = (
(111,0,l),
(111,603,l),
(48,661,l),
(48,0,l)
);
},
{
attr = {
gradient = {
colors = (
(
(128,255),
0
),
(
(191,255),
1
)
);
end = (0.1743,0.8476);
start = (0.8115,0.1426);
};
};
closed = 1;
nodes = (
(310,-3,l),
(359,46,l),
(359,47,l),
(101,709,l),
(100,709,l),
(48,662,l),
(48,661,l),
(309,-3,l)
);
},
{
attr = {
gradient = {
colors = (
(
(64,255),
0
),
(
(191,255),
1
)
);
end = (0.4898,0.9532);
start = (0.4881,0.0072);
};
};
closed = 1;
nodes = (
(359,-151,l),
(359,705,l),
(296,705,l),
(296,-151,l)
);
},
{
attr = {
gradient = {
colors = (
(
(64,255),
0
),
(
(191,255),
1
)
);
end = (0.6641,0.8052);
start = (0.0668,0.3194);
};
};
closed = 1;
nodes = (
(305,-211,l),
(359,-152,l),
(359,-151,l),
(242,-151,l),
(242,-211,l)
);
}
);
width = 407;
},
{
attr = {
color = "1";
};
layerId = "68348742-A108-42ED-B86C-DC367B3F2871";
shapes = (
{
attr = {
gradient = {
colors = (
(
(64,255),
0
),
(
(191,255),
1
)
);
end = (0.2296,0.0634);
start = (0.4096,0.7535);
};
};
closed = 1;
nodes = (
(145,0,l),
(145,551,l),
(43,643,l),
(43,0,l)
);
},
{
attr = {
gradient = {
colors = (
(
(128,255),
0
),
(
(191,255),
1
)
);
end = (0.2345,0.8885);
start = (0.6699,0.2464);
};
};
closed = 1;
nodes = (
(383,-4,l),
(458,71,l),
(458,72,l),
(124,714,l),
(123,714,l),
(43,644,l),
(43,643,l),
(382,-4,l)
);
},
{
attr = {
gradient = {
colors = (
(
(64,255),
0
),
(
(191,255),
1
)
);
end = (0.7861,0.9428);
start = (0.6994,0.0801);
};
};
closed = 1;
nodes = (
(458,-126,l),
(458,710,l),
(356,710,l),
(356,-126,l)
);
},
{
attr = {
gradient = {
colors = (
(
(64,255),
0
),
(
(191,255),
1
)
);
end = (0.7658,0.909);
start = (0.1245,0.1818);
};
};
closed = 1;
nodes = (
(374,-222,l),
(458,-127,l),
(458,-126,l),
(287,-126,l),
(287,-222,l)
);
}
);
width = 501;
},
{
attr = {
color = "1";
};
layerId = "0A98D1B9-7B82-4B4E-AB5F-E1C30C6E6C41";
shapes = (
{
attr = {
gradient = {
colors = (
(
(64,255),
0
),
(
(191,255),
1
)
);
end = (0.2296,0.0634);
start = (0.4096,0.7535);
};
};
closed = 1;
nodes = (
(179,0,l),
(179,500,l),
(39,625,l),
(39,0,l)
);
},
{
attr = {
gradient = {
colors = (
(
(128,255),
0
),
(
(191,255),
1
)
);
end = (0.2345,0.8885);
start = (0.6699,0.2464);
};
};
closed = 1;
nodes = (
(456,-4,l),
(557,96,l),
(557,97,l),
(148,720,l),
(147,720,l),
(39,626,l),
(39,625,l),
(455,-4,l)
);
},
{
attr = {
gradient = {
colors = (
(
(64,255),
0
),
(
(191,255),
1
)
);
end = (0.7861,0.9428);
start = (0.6994,0.0801);
};
};
closed = 1;
nodes = (
(557,-100,l),
(557,715,l),
(417,715,l),
(417,-100,l)
);
},
{
attr = {
gradient = {
colors = (
(
(64,255),
0
),
(
(191,255),
1
)
);
end = (0.7658,0.909);
start = (0.1245,0.1818);
};
};
closed = 1;
nodes = (
(443,-233,l),
(557,-101,l),
(557,-100,l),
(333,-100,l),
(333,-233,l)
);
}
);
width = 595;
},
{
attr = {
color = "1";
};
layerId = "7599F073-2954-4FFC-B8EF-B2010DD53262";
shapes = (
{
attr = {
gradient = {
colors = (
(
(64,255),
0
),
(
(191,255),
1
)
);
end = (0.2296,0.0634);
start = (0.4096,0.7535);
};
};
closed = 1;
nodes = (
(196,0,l),
(196,474,l),
(37,616,l),
(37,0,l)
);
},
{
attr = {
gradient = {
colors = (
(
(128,255),
0
),
(
(191,255),
1
)
);
end = (0.2345,0.8885);
start = (0.6699,0.2464);
};
};
closed = 1;
nodes = (
(492,-4,l),
(606,109,l),
(606,110,l),
(160,723,l),
(159,723,l),
(37,617,l),
(37,616,l),
(491,-4,l)
);
},
{
attr = {
gradient = {
colors = (
(
(64,255),
0
),
(
(191,255),
1
)
);
end = (0.7861,0.9428);
start = (0.6994,0.0801);
};
};
closed = 1;
nodes = (
(606,-87,l),
(606,718,l),
(447,718,l),
(447,-87,l)
);
},
{
attr = {
gradient = {
colors = (
(
(64,255),
0
),
(
(191,255),
1
)
);
end = (0.7658,0.909);
start = (0.1245,0.1818);
};
};
closed = 1;
nodes = (
(478,-239,l),
(606,-88,l),
(606,-87,l),
(356,-87,l),
(356,-239,l)
);
}
);
width = 642;
},
{
attr = {
color = "1";
};
layerId = "5E49A2BD-5AA6-4751-9DCC-F05514CFF0B0";
shapes = (
{
attr = {
gradient = {
colors = (
(
(64,255),
0
),
(
(191,255),
1
)
);
end = (0.2296,0.0634);
start = (0.4096,0.7535);
};
};
closed = 1;
nodes = (
(229,0,l),
(229,422,l),
(32,598,l),
(32,0,l)
);
},
{
attr = {
gradient = {
colors = (
(
(128,255),
0
),
(
(191,255),
1
)
);
end = (0.2345,0.8885);
start = (0.6699,0.2464);
};
};
closed = 1;
nodes = (
(564,-5,l),
(704,134,l),
(704,135,l),
(183,728,l),
(182,728,l),
(32,599,l),
(32,598,l),
(563,-5,l)
);
},
{
attr = {
gradient = {
colors = (
(
(64,255),
0
),
(
(191,255),
1
)
);
end = (0.7861,0.9428);
start = (0.6994,0.0801);
};
};
closed = 1;
nodes = (
(704,-62,l),
(704,723,l),
(507,723,l),
(507,-62,l)
);
},
{
attr = {
gradient = {
colors = (
(
(64,255),
0
),
(
(191,255),
1
)
);
end = (0.7658,0.909);
start = (0.1245,0.1818);
};
};
closed = 1;
nodes = (
(547,-251,l),
(704,-63,l),
(704,-62,l),
(401,-62,l),
(401,-251,l)
);
}
);
width = 736;
}
);
unicode = 330;
},
{
glyphname = O;
kernLeft = O;
kernRight = O;
lastChange = "2022-07-15 12:10:08 +0000";
layers = (
{
anchors = (
{
name = bottom;
pos = (142,0);
},
{
name = horn;
pos = (197,700);
},
{
name = top;
pos = (138,700);
}
);
attr = {
color = "1";
};
layerId = "33AE93C6-B8B3-427A-A53B-F24970E840CE";
shapes = (
{
attr = {
gradient = {
colors = (
(
(64,255),
0
),
(
(191,255),
1
)
);
end = (0.8257,0.4756);
start = (0.0693,0.513);
};
};
closed = 1;
nodes = (
(220,676,l),
(220,677,l),
(197,700,l),
(77,700,l),
(77,676,l)
);
},
{
attr = {
gradient = {
colors = (
(
(191,255),
0
),
(
(64,255),
1
)
);
end = (0.8878,0.5878);
start = (0.1177,0.5944);
};
};
closed = 1;
nodes = (
(196,0,l),
(196,24,l),
(53,24,l),
(53,23,l),
(76,0,l)
);
},
{
attr = {
gradient = {
colors = (
(
(64,255),
0
),
(
(191,255),
1
)
);
end = (0.4877,0.9217);
start = (0.4943,0.0237);
};
};
closed = 1;
nodes = (
(77,24,l),
(77,700,l),
(76,700,l),
(53,677,l),
(53,24,l)
);
},
{
attr = {
gradient = {
colors = (
(
(64,255),
0
),
(
(191,255),
1
)
);
end = (0.4166,0.0934);
start = (0.4192,0.8964);
};
};
closed = 1;
nodes = (
(197,0,l),
(220,23,l),
(220,676,l),
(196,676,l),
(196,0,l)
);
}
);
width = 273;
},
{
anchors = (
{
name = bottom;
pos = (412,0);
},
{
name = horn;
pos = (680,730);
},
{
name = top;
pos = (436,730);
}
);
attr = {
color = "1";
};
layerId = "E87239EE-82B8-404C-B23A-53843E270889";
shapes = (
{
attr = {
gradient = {
colors = (
(
(64,255),
0
),
(
(191,255),
1
)
);
end = (0.8568,0.2482);
start = (0.0693,0.513);
};
};
closed = 1;
nodes = (
(802,526,l),
(802,527,l),
(640,730,l),
(239,730,l),
(239,526,l)
);
},
{
attr = {
gradient = {
colors = (
(
(191,255),
0
),
(
(64,255),
1
)
);
end = (0.8878,0.5878);
start = (0.1677,0.7443);
};
};
closed = 1;
nodes = (
(588,0,l),
(588,204,l),
(25,204,l),
(25,203,l),
(227,0,l)
);
},
{
attr = {
gradient = {
colors = (
(
(64,255),
0
),
(
(191,255),
1
)
);
end = (0.7237,0.8287);
start = (0.4179,0.0797);
};
};
closed = 1;
nodes = (
(239,204,l),
(239,730,l),
(238,730,l),
(25,523,l),
(25,204,l)
);
},
{
attr = {
gradient = {
colors = (
(
(64,255),
0
),
(
(191,255),
1
)
);
end = (0.2228,0.1912);
start = (0.4192,0.8964);
};
};
closed = 1;
nodes = (
(589,0,l),
(802,207,l),
(802,526,l),
(588,526,l),
(588,0,l)
);
}
);
width = 827;
},
{
anchors = (
{
name = bottom;
pos = (452,0);
},
{
name = horn;
pos = (680,730);
},
{
name = top;
pos = (476,730);
}
);
attr = {
color = "1";
};
layerId = m003;
shapes = (
{
attr = {
gradient = {
colors = (
(
(64,255),
0
),
(
(191,255),
1
)
);
end = (0.8449,0.2743);
start = (0.0693,0.513);
};
};
closed = 1;
nodes = (
(882,486,l),
(882,487,l),
(680,730,l),
(279,730,l),
(279,486,l)
);
},
{
attr = {
gradient = {
colors = (
(
(191,255),
0
),
(
(64,255),
1
)
);
end = (0.8878,0.5878);
start = (0.1319,0.7967);
};
};
closed = 1;
nodes = (
(628,0,l),
(628,244,l),
(25,244,l),
(25,243,l),
(227,0,l)
);
},
{
attr = {
gradient = {
colors = (
(
(64,255),
0
),
(
(191,255),
1
)
);
end = (0.8353,0.8099);
start = (0.4124,0.0805);
};
};
closed = 1;
nodes = (
(279,244,l),
(279,730,l),
(278,730,l),
(25,523,l),
(25,244,l)
);
},
{
attr = {
gradient = {
colors = (
(
(64,255),
0
),
(
(191,255),
1
)
);
end = (0.1769,0.2019);
start = (0.4192,0.8964);
};
};
closed = 1;
nodes = (
(629,0,l),
(882,197,l),
(882,486,l),
(628,486,l),
(628,0,l)
);
}
);
width = 907;
},
{
anchors = (
{
name = bottom;
pos = (187,0);
},
{
name = horn;
pos = (278,705);
},
{
name = top;
pos = (188,705);
}
);
attr = {
color = "1";
};
layerId = "B297D401-77A1-4CCB-A385-A5DBDDA4353D";
shapes = (
{
attr = {
gradient = {
colors = (
(
(64,255),
0
),
(
(191,255),
1
)
);
end = (0.8257,0.4756);
start = (0.0693,0.513);
};
};
closed = 1;
nodes = (
(317,651,l),
(317,652,l),
(271,705,l),
(104,705,l),
(104,651,l)
);
},
{
attr = {
gradient = {
colors = (
(
(191,255),
0
),
(
(64,255),
1
)
);
end = (0.8878,0.5878);
start = (0.1177,0.5944);
};
};
closed = 1;
nodes = (
(261,0,l),
(261,54,l),
(48,54,l),
(48,53,l),
(101,0,l)
);
},
{
attr = {
gradient = {
colors = (
(
(64,255),
0
),
(
(191,255),
1
)
);
end = (0.4877,0.9217);
start = (0.4943,0.0237);
};
};
closed = 1;
nodes = (
(104,54,l),
(104,705,l),
(103,705,l),
(48,651,l),
(48,54,l)
);
},
{
attr = {
gradient = {
colors = (
(
(64,255),
0
),
(
(191,255),
1
)
);
end = (0.4166,0.0934);
start = (0.4192,0.8964);
};
};
closed = 1;
nodes = (
(262,0,l),
(317,54,l),
(317,651,l),
(261,651,l),
(261,0,l)
);
}
);
width = 365.33333;
},
{
anchors = (
{
name = bottom;
pos = (232,0);
},
{
name = horn;
pos = (358,710);
},
{
name = top;
pos = (238,710);
}
);
attr = {
color = "1";
};
layerId = "68348742-A108-42ED-B86C-DC367B3F2871";
shapes = (
{
attr = {
gradient = {
colors = (
(
(64,255),
0
),
(
(191,255),
1
)
);
end = (0.8568,0.2482);
start = (0.0693,0.513);
};
};
closed = 1;
nodes = (
(414,626,l),
(414,627,l),
(345,710,l),
(131,710,l),
(131,626,l)
);
},
{
attr = {
gradient = {
colors = (
(
(191,255),
0
),
(
(64,255),
1
)
);
end = (0.8878,0.5878);
start = (0.1677,0.7443);
};
};
closed = 1;
nodes = (
(326,0,l),
(326,84,l),
(43,84,l),
(43,83,l),
(126,0,l)
);
},
{
attr = {
gradient = {
colors = (
(
(64,255),
0
),
(
(191,255),
1
)
);
end = (0.7237,0.8287);
start = (0.4179,0.0797);
};
};
closed = 1;
nodes = (
(131,84,l),
(131,710,l),
(130,710,l),
(43,625,l),
(43,84,l)
);
},
{
attr = {
gradient = {
colors = (
(
(64,255),
0
),
(
(191,255),
1
)
);
end = (0.2228,0.1912);
start = (0.4192,0.8964);
};
};
closed = 1;
nodes = (
(327,0,l),
(414,85,l),
(414,626,l),
(326,626,l),
(326,0,l)
);
}
);
width = 457.66667;
},
{
anchors = (
{
name = bottom;
pos = (277,0);
},
{
name = horn;
pos = (439,715);
},
{
name = top;
pos = (288,715);
}
);
attr = {
color = "1";
};
layerId = "0A98D1B9-7B82-4B4E-AB5F-E1C30C6E6C41";
shapes = (
{
attr = {
gradient = {
colors = (
(
(64,255),
0
),
(
(191,255),
1
)
);
end = (0.8568,0.2482);
start = (0.0693,0.513);
};
};
closed = 1;
nodes = (
(511,601,l),
(511,602,l),
(419,715,l),
(158,715,l),
(158,601,l)
);
},
{
attr = {
gradient = {
colors = (
(
(191,255),
0
),
(
(64,255),
1
)
);
end = (0.8878,0.5878);
start = (0.1677,0.7443);
};
};
closed = 1;
nodes = (
(392,0,l),
(392,114,l),
(39,114,l),
(39,113,l),
(151,0,l)
);
},
{
attr = {
gradient = {
colors = (
(
(64,255),
0
),
(
(191,255),
1
)
);
end = (0.7237,0.8287);
start = (0.4179,0.0797);
};
};
closed = 1;
nodes = (
(158,114,l),
(158,715,l),
(157,715,l),
(39,600,l),
(39,114,l)
);
},
{
attr = {
gradient = {
colors = (
(
(64,255),
0
),
(
(191,255),
1
)
);
end = (0.2228,0.1912);
start = (0.4192,0.8964);
};
};
closed = 1;
nodes = (
(393,0,l),
(511,116,l),
(511,601,l),
(392,601,l),
(392,0,l)
);
}
);
width = 550;
},
{
anchors = (
{
name = bottom;
pos = (300,0);
},
{
name = horn;
pos = (479,718);
},
{
name = top;
pos = (313,718);
}
);
attr = {
color = "1";
};
layerId = "7599F073-2954-4FFC-B8EF-B2010DD53262";
shapes = (
{
attr = {
gradient = {
colors = (
(
(64,255),
0
),
(
(191,255),
1
)
);
end = (0.8568,0.2482);
start = (0.0693,0.513);
};
};
closed = 1;
nodes = (
(560,589,l),
(560,590,l),
(456,718,l),
(172,718,l),
(172,589,l)
);
},
{
attr = {
gradient = {
colors = (
(
(191,255),
0
),
(
(64,255),
1
)
);
end = (0.8878,0.5878);
start = (0.1677,0.7443);
};
};
closed = 1;
nodes = (
(425,0,l),
(425,129,l),
(37,129,l),
(37,128,l),
(164,0,l)
);
},
{
attr = {
gradient = {
colors = (
(
(64,255),
0
),
(
(191,255),
1
)
);
end = (0.7237,0.8287);
start = (0.4179,0.0797);
};
};
closed = 1;
nodes = (
(172,129,l),
(172,718,l),
(171,718,l),
(37,587,l),
(37,129,l)
);
},
{
attr = {
gradient = {
colors = (
(
(64,255),
0
),
(
(191,255),
1
)
);
end = (0.2228,0.1912);
start = (0.4192,0.8964);
};
};
closed = 1;
nodes = (
(426,0,l),
(560,131,l),
(560,589,l),
(425,589,l),
(425,0,l)
);
}
);
width = 596.16667;
},
{
anchors = (
{
name = bottom;
pos = (345,0);
},
{
name = horn;
pos = (559,723);
},
{
name = top;
pos = (362,723);
}
);
attr = {
color = "1";
};
layerId = "5E49A2BD-5AA6-4751-9DCC-F05514CFF0B0";
shapes = (
{
attr = {
gradient = {
colors = (
(
(64,255),
0
),
(
(191,255),
1
)
);
end = (0.8568,0.2482);
start = (0.0693,0.513);
};
};
closed = 1;
nodes = (
(657,564,l),
(657,565,l),
(530,723,l),
(199,723,l),
(199,564,l)
);
},
{
attr = {
gradient = {
colors = (
(
(191,255),
0
),
(
(64,255),
1
)
);
end = (0.8878,0.5878);
start = (0.1677,0.7443);
};
};
closed = 1;
nodes = (
(490,0,l),
(490,159,l),
(32,159,l),
(32,158,l),
(189,0,l)
);
},
{
attr = {
gradient = {
colors = (
(
(64,255),
0
),
(
(191,255),
1
)
);
end = (0.7237,0.8287);
start = (0.4179,0.0797);
};
};
closed = 1;
nodes = (
(199,159,l),
(199,723,l),
(198,723,l),
(32,561,l),
(32,159,l)
);
},
{
attr = {
gradient = {
colors = (
(
(64,255),
0
),
(
(191,255),
1
)
);
end = (0.2228,0.1912);
start = (0.4192,0.8964);
};
};
closed = 1;
nodes = (
(491,0,l),
(657,161,l),
(657,564,l),
(490,564,l),
(490,0,l)
);
}
);
width = 688.5;
}
);
unicode = 79;
},
{
glyphname = Oslash;
kernLeft = O;
kernRight = O;
lastChange = "2022-07-15 12:10:08 +0000";
layers = (
{
anchors = (
{
name = top;
pos = (138,700);
}
);
attr = {
color = "1";
};
layerId = "33AE93C6-B8B3-427A-A53B-F24970E840CE";
shapes = (
{
attr = {
gradient = {
colors = (
(
(128,255),
0
),
(
(191,255),
0.23101
),
(
(128,255),
1
)
);
end = (0.9324,0.978);
start = (0.0453,0.0148);
};
};
closed = 1;
nodes = (
(43,0,l),
(253,699,l),
(253,700,l),
(230,700,l),
(20,1,l),
(20,0,l)
);
},
{
attr = {
gradient = {
colors = (
(
(191,255),
0
),
(
(64,255),
1
)
);
end = (0.8878,0.5878);
start = (0.1494,0.6673);
};
};
closed = 1;
nodes = (
(196,0,l),
(196,24,l),
(53,24,l),
(53,23,l),
(76,0,l)
);
},
{
attr = {
gradient = {
colors = (
(
(64,255),
0
),
(
(191,255),
1
)
);
end = (0.3686,0.9567);
start = (0.5317,0.0142);
};
};
closed = 1;
nodes = (
(77,24,l),
(77,700,l),
(76,700,l),
(53,677,l),
(53,24,l)
);
},
{
attr = {
gradient = {
colors = (
(
(64,255),
0
),
(
(191,255),
1
)
);
end = (0.6063,0.0597);
start = (0.3197,0.9733);
};
};
closed = 1;
nodes = (
(197,0,l),
(220,23,l),
(220,676,l),
(196,676,l),
(196,0,l)
);
},
{
attr = {
gradient = {
colors = (
(
(64,255),
0
),
(
(191,255),
1
)
);
end = (0.8627,0.4084);
start = (0.0693,0.513);
};
};
closed = 1;
nodes = (
(220,676,l),
(220,677,l),
(197,700,l),
(77,700,l),
(77,676,l)
);
}
);
width = 273;
},
{
anchors = (
{
name = top;
pos = (478,730);
}
);
attr = {
color = "1";
};
layerId = "E87239EE-82B8-404C-B23A-53843E270889";
shapes = (
{
attr = {
gradient = {
colors = (
(
(128,255),
0
),
(
(191,255),
0.3076
),
(
(128,255),
1
)
);
end = (0.8526,0.7665);
start = (0.0966,0.0476);
};
};
closed = 1;
nodes = (
(155,0,l),
(825,729,l),
(825,730,l),
(712,730,l),
(42,2,l),
(42,0,l)
);
},
{
attr = {
gradient = {
colors = (
(
(191,255),
0
),
(
(64,255),
1
)
);
end = (0.8878,0.5878);
start = (0.1199,0.7783);
};
};
closed = 1;
nodes = (
(588,0,l),
(588,204,l),
(25,204,l),
(25,203,l),
(227,0,l)
);
},
{
attr = {
gradient = {
colors = (
(
(64,255),
0
),
(
(191,255),
1
)
);
end = (0.8526,0.8603);
start = (0.4155,0.0671);
};
};
closed = 1;
nodes = (
(239,204,l),
(239,730,l),
(238,730,l),
(25,523,l),
(25,204,l)
);
},
{
attr = {
gradient = {
colors = (
(
(64,255),
0
),
(
(191,255),
1
)
);
end = (0.1982,0.1846);
start = (0.4192,0.8964);
};
};
closed = 1;
nodes = (
(589,0,l),
(802,197,l),
(802,526,l),
(588,526,l),
(588,0,l)
);
},
{
attr = {
gradient = {
colors = (
(
(64,255),
0
),
(
(191,255),
1
)
);
end = (0.9048,0.7804);
start = (0.0693,0.513);
};
};
closed = 1;
nodes = (
(802,526,l),
(802,527,l),
(640,730,l),
(239,730,l),
(239,526,l)
);
}
);
width = 850;
},
{
anchors = (
{
name = top;
pos = (478,730);
}
);
attr = {
color = "1";
};
layerId = m003;
shapes = (
{
attr = {
gradient = {
colors = (
(
(128,255),
0
),
(
(191,255),
0.3076
),
(
(128,255),
1
)
);
end = (0.92,0.7151);
start = (0.0742,0.0315);
};
};
closed = 1;
nodes = (
(155,0,l),
(867,729,l),
(867,730,l),
(754,730,l),
(42,2,l),
(42,0,l)
);
},
{
attr = {
gradient = {
colors = (
(
(191,255),
0
),
(
(64,255),
1
)
);
end = (0.8878,0.5878);
start = (0.1153,0.846);
};
};
closed = 1;
nodes = (
(628,0,l),
(628,244,l),
(25,244,l),
(25,243,l),
(227,0,l)
);
},
{
attr = {
gradient = {
colors = (
(
(64,255),
0
),
(
(191,255),
1
)
);
end = (0.8842,0.8852);
start = (0.3297,0.0673);
};
};
closed = 1;
nodes = (
(279,244,l),
(279,730,l),
(278,730,l),
(25,523,l),
(25,244,l)
);
},
{
attr = {
gradient = {
colors = (
(
(64,255),
0
),
(
(191,255),
1
)
);
end = (0.1331,0.159);
start = (0.4192,0.8964);
};
};
closed = 1;
nodes = (
(629,0,l),
(882,197,l),
(882,486,l),
(628,486,l),
(628,0,l)
);
},
{
attr = {
gradient = {
colors = (
(
(64,255),
0
),
(
(191,255),
1
)
);
end = (0.8733,0.8518);
start = (0.0693,0.513);
};
};
closed = 1;
nodes = (
(882,486,l),
(882,487,l),
(680,730,l),
(279,730,l),
(279,486,l)
);
}
);
width = 907;
},
{
anchors = (
{
name = top;
pos = (195,705);
}
);
attr = {
color = "1";
};
layerId = "B297D401-77A1-4CCB-A385-A5DBDDA4353D";
shapes = (
{
attr = {
gradient = {
colors = (
(
(128,255),
0
),
(
(191,255),
0.23101
),
(
(128,255),
1
)
);
end = (0.9324,0.978);
start = (0.0453,0.0148);
};
};
closed = 1;
nodes = (
(62,0,l),
(348,704,l),
(348,705,l),
(310,705,l),
(24,1,l),
(24,0,l)
);
},
{
attr = {
gradient = {
colors = (
(
(191,255),
0
),
(
(64,255),
1
)
);
end = (0.8878,0.5878);
start = (0.1494,0.6673);
};
};
closed = 1;
nodes = (
(261,0,l),
(261,54,l),
(48,54,l),
(48,53,l),
(101,0,l)
);
},
{
attr = {
gradient = {
colors = (
(
(64,255),
0
),
(
(191,255),
1
)
);
end = (0.3686,0.9567);
start = (0.5317,0.0142);
};
};
closed = 1;
nodes = (
(104,54,l),
(104,705,l),
(103,705,l),
(48,651,l),
(48,54,l)
);
},
{
attr = {
gradient = {
colors = (
(
(64,255),
0
),
(
(191,255),
1
)
);
end = (0.6063,0.0597);
start = (0.3197,0.9733);
};
};
closed = 1;
nodes = (
(262,0,l),
(317,52,l),
(317,651,l),
(261,651,l),
(261,0,l)
);
},
{
attr = {
gradient = {
colors = (
(
(64,255),
0
),
(
(191,255),
1
)
);
end = (0.8627,0.4084);
start = (0.0693,0.513);
};
};
closed = 1;
nodes = (
(317,651,l),
(317,652,l),
(271,705,l),
(104,705,l),
(104,651,l)
);
}
);
width = 369.16667;
},
{
anchors = (
{
name = top;
pos = (252,710);
}
);
attr = {
color = "1";
};
layerId = "68348742-A108-42ED-B86C-DC367B3F2871";
shapes = (
{
attr = {
gradient = {
colors = (
(
(128,255),
0
),
(
(191,255),
0.3076
),
(
(128,255),
1
)
);
end = (0.8526,0.7665);
start = (0.0966,0.0476);
};
};
closed = 1;
nodes = (
(81,0,l),
(443,709,l),
(443,710,l),
(390,710,l),
(28,1,l),
(28,0,l)
);
},
{
attr = {
gradient = {
colors = (
(
(191,255),
0
),
(
(64,255),
1
)
);
end = (0.8878,0.5878);
start = (0.1199,0.7783);
};
};
closed = 1;
nodes = (
(326,0,l),
(326,84,l),
(43,84,l),
(43,83,l),
(126,0,l)
);
},
{
attr = {
gradient = {
colors = (
(
(64,255),
0
),
(
(191,255),
1
)
);
end = (0.8526,0.8603);
start = (0.4155,0.0671);
};
};
closed = 1;
nodes = (
(131,84,l),
(131,710,l),
(130,710,l),
(43,625,l),
(43,84,l)
);
},
{
attr = {
gradient = {
colors = (
(
(64,255),
0
),
(
(191,255),
1
)
);
end = (0.1982,0.1846);
start = (0.4192,0.8964);
};
};
closed = 1;
nodes = (
(327,0,l),
(414,81,l),
(414,626,l),
(326,626,l),
(326,0,l)
);
},
{
attr = {
gradient = {
colors = (
(
(64,255),
0
),
(
(191,255),
1
)
);
end = (0.9048,0.7804);
start = (0.0693,0.513);
};
};
closed = 1;
nodes = (
(414,626,l),
(414,627,l),
(345,710,l),
(131,710,l),
(131,626,l)
);
}
);
width = 465.33333;
},
{
anchors = (
{
name = top;
pos = (309,715);
}
);
attr = {
color = "1";
};
layerId = "0A98D1B9-7B82-4B4E-AB5F-E1C30C6E6C41";
shapes = (
{
attr = {
gradient = {
colors = (
(
(128,255),
0
),
(
(191,255),
0.3076
),
(
(128,255),
1
)
);
end = (0.8526,0.7665);
start = (0.0966,0.0476);
};
};
closed = 1;
nodes = (
(100,0,l),
(539,714,l),
(539,715,l),
(471,715,l),
(32,1,l),
(32,0,l)
);
},
{
attr = {
gradient = {
colors = (
(
(191,255),
0
),
(
(64,255),
1
)
);
end = (0.8878,0.5878);
start = (0.1199,0.7783);
};
};
closed = 1;
nodes = (
(392,0,l),
(392,114,l),
(39,114,l),
(39,113,l),
(151,0,l)
);
},
{
attr = {
gradient = {
colors = (
(
(64,255),
0
),
(
(191,255),
1
)
);
end = (0.8526,0.8603);
start = (0.4155,0.0671);
};
};
closed = 1;
nodes = (
(158,114,l),
(158,715,l),
(157,715,l),
(39,600,l),
(39,114,l)
);
},
{
attr = {
gradient = {
colors = (
(
(64,255),
0
),
(
(191,255),
1
)
);
end = (0.1982,0.1846);
start = (0.4192,0.8964);
};
};
closed = 1;
nodes = (
(393,0,l),
(511,110,l),
(511,601,l),
(392,601,l),
(392,0,l)
);
},
{
attr = {
gradient = {
colors = (
(
(64,255),
0
),
(
(191,255),
1
)
);
end = (0.9048,0.7804);
start = (0.0693,0.513);
};
};
closed = 1;
nodes = (
(511,601,l),
(511,602,l),
(419,715,l),
(158,715,l),
(158,601,l)
);
}
);
width = 561.5;
},
{
anchors = (
{
name = top;
pos = (337,718);
}
);
attr = {
color = "1";
};
layerId = "7599F073-2954-4FFC-B8EF-B2010DD53262";
shapes = (
{
attr = {
gradient = {
colors = (
(
(128,255),
0
),
(
(191,255),
0.3076
),
(
(128,255),
1
)
);
end = (0.8526,0.7665);
start = (0.0966,0.0476);
};
};
closed = 1;
nodes = (
(109,0,l),
(587,717,l),
(587,718,l),
(511,718,l),
(34,1,l),
(34,0,l)
);
},
{
attr = {
gradient = {
colors = (
(
(191,255),
0
),
(
(64,255),
1
)
);
end = (0.8878,0.5878);
start = (0.1199,0.7783);
};
};
closed = 1;
nodes = (
(425,0,l),
(425,129,l),
(37,129,l),
(37,128,l),
(164,0,l)
);
},
{
attr = {
gradient = {
colors = (
(
(64,255),
0
),
(
(191,255),
1
)
);
end = (0.8526,0.8603);
start = (0.4155,0.0671);
};
};
closed = 1;
nodes = (
(172,129,l),
(172,718,l),
(171,718,l),
(37,587,l),
(37,129,l)
);
},
{
attr = {
gradient = {
colors = (
(
(64,255),
0
),
(
(191,255),
1
)
);
end = (0.1982,0.1846);
start = (0.4192,0.8964);
};
};
closed = 1;
nodes = (
(426,0,l),
(560,125,l),
(560,589,l),
(425,589,l),
(425,0,l)
);
},
{
attr = {
gradient = {
colors = (
(
(64,255),
0
),
(
(191,255),
1
)
);
end = (0.9048,0.7804);
start = (0.0693,0.513);
};
};
closed = 1;
nodes = (
(560,589,l),
(560,590,l),
(456,718,l),
(172,718,l),
(172,589,l)
);
}
);
width = 609.58333;
},
{
anchors = (
{
name = top;
pos = (393,723);
}
);
attr = {
color = "1";
};
layerId = "5E49A2BD-5AA6-4751-9DCC-F05514CFF0B0";
shapes = (
{
attr = {
gradient = {
colors = (
(
(128,255),
0
),
(
(191,255),
0.3076
),
(
(128,255),
1
)
);
end = (0.8526,0.7665);
start = (0.0966,0.0476);
};
};
closed = 1;
nodes = (
(127,0,l),
(682,722,l),
(682,723,l),
(591,723,l),
(37,1,l),
(37,0,l)
);
},
{
attr = {
gradient = {
colors = (
(
(191,255),
0
),
(
(64,255),
1
)
);
end = (0.8878,0.5878);
start = (0.1199,0.7783);
};
};
closed = 1;
nodes = (
(490,0,l),
(490,159,l),
(32,159,l),
(32,158,l),
(189,0,l)
);
},
{
attr = {
gradient = {
colors = (
(
(64,255),
0
),
(
(191,255),
1
)
);
end = (0.8526,0.8603);
start = (0.4155,0.0671);
};
};
closed = 1;
nodes = (
(199,159,l),
(199,723,l),
(198,723,l),
(32,561,l),
(32,159,l)
);
},
{
attr = {
gradient = {
colors = (
(
(64,255),
0
),
(
(191,255),
1
)
);
end = (0.1982,0.1846);
start = (0.4192,0.8964);
};
};
closed = 1;
nodes = (
(491,0,l),
(657,154,l),
(657,564,l),
(490,564,l),
(490,0,l)
);
},
{
attr = {
gradient = {
colors = (
(
(64,255),
0
),
(
(191,255),
1
)
);
end = (0.9048,0.7804);
start = (0.0693,0.513);
};
};
closed = 1;
nodes = (
(657,564,l),
(657,565,l),
(530,723,l),
(199,723,l),
(199,564,l)
);
}
);
width = 705.75;
}
);
unicode = 216;
},
{
glyphname = Otildemacron;
kernLeft = O;
kernRight = O;
lastChange = "2022-07-15 12:10:08 +0000";
layers = (
{
attr = {
color = "1";
};
layerId = "33AE93C6-B8B3-427A-A53B-F24970E840CE";
shapes = (
{
ref = O;
},
{
attr = {
gradient = {
colors = (
(
(64,255),
0
),
(
(191,255),
1
)
);
end = (0.2296,0.0609);
start = (0.2638,0.7997);
};
identifier = ID0x600000c465a0;
};
closed = 1;
nodes = (
(94,749,l),
(94,801,l),
(70,800,l),
(70,749,l)
);
},
{
attr = {
gradient = {
colors = (
(
(64,255),
0
),
(
(191,255),
1
)
);
end = (0.8068,0.953);
start = (0.8358,0.1821);
};
identifier = ID0x600000c465a0;
};
closed = 1;
nodes = (
(189,758,l),
(189,810,l),
(165,810,l),
(165,758,l)
);
},
{
attr = {
gradient = {
colors = (
(
(191,255),
0
),
(
(64,255),
0.54765
),
(
(191,255),
1
)
);
end = (0.2125,0.9217);
start = (0.8187,0.0914);
};
identifier = ID0x600000c465a0;
};
closed = 1;
nodes = (
(167,748,l),
(189,757,l),
(189,758,l),
(93,810,l),
(92,810,l),
(70,801,l),
(70,800,l),
(166,748,l)
);
},
{
attr = {
gradient = {
colors = (
(
(191,255),
0
),
(
(64,255),
1
)
);
end = (0.935,0.5346);
start = (0.0779,0.428);
};
identifier = ID0x600000c46680;
};
closed = 1;
nodes = (
(209,848,l),
(209,872,l),
(59,872,l),
(59,848,l)
);
}
);
width = 273;
},
{
attr = {
color = "1";
};
layerId = "E87239EE-82B8-404C-B23A-53843E270889";
shapes = (
{
ref = O;
},
{
attr = {
gradient = {
colors = (
(
(64,255),
0
),
(
(191,255),
1
)
);
end = (0.9046,0.1295);
start = (0.0915,0.6397);
};
identifier = ID0x6000041910a0;
};
closed = 1;
nodes = (
(319,758,l),
(319,835,l),
(199,824,l),
(199,758,l)
);
},
{
attr = {
gradient = {
colors = (
(
(64,255),
0
),
(
(191,255),
1
)
);
end = (0.9257,0.9422);
start = (0.0908,0.6871);
};
identifier = ID0x6000041910a0;
};
closed = 1;
nodes = (
(628,796,l),
(628,870,l),
(508,870,l),
(508,777,l)
);
},
{
attr = {
gradient = {
colors = (
(
(191,255),
0
),
(
(64,255),
0.52095
),
(
(191,255),
1
)
);
end = (0.2444,0.9394);
start = (0.7904,0.088);
};
identifier = ID0x6000041910a0;
};
closed = 1;
nodes = (
(536,751,l),
(628,796,l),
(628,817,l),
(310,874,l),
(309,874,l),
(199,825,l),
(199,814,l),
(535,751,l)
);
},
{
attr = {
gradient = {
colors = (
(
(191,255),
0
),
(
(64,255),
1
)
);
end = (0.9468,0.6727);
start = (0.0842,0.1543);
};
identifier = ID0x60000065c0e0;
};
closed = 1;
nodes = (
(628,898,l),
(628,980,l),
(199,980,l),
(199,898,l)
);
}
);
width = 907;
},
{
attr = {
color = "1";
};
layerId = m003;
shapes = (
{
ref = O;
},
{
attr = {
gradient = {
colors = (
(
(64,255),
0
),
(
(191,255),
1
)
);
end = (0.9046,0.1295);
start = (0.0635,0.6246);
};
identifier = ID0x6000041910a0;
};
closed = 1;
nodes = (
(379,758,l),
(379,835,l),
(259,824,l),
(259,758,l)
);
},
{
attr = {
gradient = {
colors = (
(
(64,255),
0
),
(
(191,255),
1
)
);
end = (0.8916,0.8904);
start = (0.0709,0.7225);
};
identifier = ID0x6000041910a0;
};
closed = 1;
nodes = (
(688,796,l),
(688,870,l),
(568,870,l),
(568,777,l)
);
},
{
attr = {
gradient = {
colors = (
(
(191,255),
0
),
(
(64,255),
0.52095
),
(
(191,255),
1
)
);
end = (0.2442,0.9343);
start = (0.7928,0.0918);
};
identifier = ID0x6000041910a0;
};
closed = 1;
nodes = (
(596,751,l),
(688,796,l),
(688,817,l),
(370,874,l),
(369,874,l),
(259,825,l),
(259,814,l),
(595,751,l)
);
},
{
attr = {
gradient = {
colors = (
(
(191,255),
0
),
(
(64,255),
1
)
);
end = (0.9395,0.6479);
start = (0.0509,0.175);
};
identifier = ID0x60000065c0e0;
};
closed = 1;
nodes = (
(688,898,l),
(688,980,l),
(259,980,l),
(259,898,l)
);
}
);
width = 907;
},
{
attr = {
color = "1";
};
layerId = "B297D401-77A1-4CCB-A385-A5DBDDA4353D";
shapes = (
{
alignment = -1;
ref = O;
},
{
attr = {
gradient = {
colors = (
(
(64,255),
0
),
(
(191,255),
1
)
);
end = (0.2296,0.0609);
start = (0.2638,0.7997);
};
identifier = ID0x600000c465a0;
};
closed = 1;
nodes = (
(132,751,l),
(132,807,l),
(92,804,l),
(92,751,l)
);
},
{
attr = {
gradient = {
colors = (
(
(64,255),
0
),
(
(191,255),
1
)
);
end = (0.8068,0.953);
start = (0.8358,0.1821);
};
identifier = ID0x600000c465a0;
};
closed = 1;
nodes = (
(262,764,l),
(262,820,l),
(222,820,l),
(222,761,l)
);
},
{
attr = {
gradient = {
colors = (
(
(191,255),
0
),
(
(64,255),
0.54765
),
(
(191,255),
1
)
);
end = (0.2125,0.9217);
start = (0.8187,0.0914);
};
identifier = ID0x600000c465a0;
};
closed = 1;
nodes = (
(229,749,l),
(262,764,l),
(262,768,l),
(129,821,l),
(128,821,l),
(92,805,l),
(92,802,l),
(228,749,l)
);
},
{
attr = {
gradient = {
colors = (
(
(191,255),
0
),
(
(64,255),
1
)
);
end = (0.935,0.5346);
start = (0.0779,0.428);
};
identifier = ID0x600000c46680;
};
closed = 1;
nodes = (
(279,856,l),
(279,890,l),
(82,890,l),
(82,856,l)
);
}
);
width = 378.66667;
},
{
attr = {
color = "1";
};
layerId = "68348742-A108-42ED-B86C-DC367B3F2871";
shapes = (
{
alignment = -1;
ref = O;
},
{
attr = {
gradient = {
colors = (
(
(64,255),
0
),
(
(191,255),
1
)
);
end = (0.9046,0.1295);
start = (0.0915,0.6397);
};
identifier = ID0x6000041910a0;
};
closed = 1;
nodes = (
(169,752,l),
(169,813,l),
(113,808,l),
(113,752,l)
);
},
{
attr = {
gradient = {
colors = (
(
(64,255),
0
),
(
(191,255),
1
)
);
end = (0.9257,0.9422);
start = (0.0908,0.6871);
};
identifier = ID0x6000041910a0;
};
closed = 1;
nodes = (
(335,770,l),
(335,830,l),
(279,830,l),
(279,764,l)
);
},
{
attr = {
gradient = {
colors = (
(
(191,255),
0
),
(
(64,255),
0.52095
),
(
(191,255),
1
)
);
end = (0.2444,0.9394);
start = (0.7904,0.088);
};
identifier = ID0x6000041910a0;
};
closed = 1;
nodes = (
(290,749,l),
(335,770,l),
(335,778,l),
(165,832,l),
(164,832,l),
(113,809,l),
(113,804,l),
(289,749,l)
);
},
{
attr = {
gradient = {
colors = (
(
(191,255),
0
),
(
(64,255),
1
)
);
end = (0.9468,0.6727);
start = (0.0842,0.1543);
};
identifier = ID0x60000065c0e0;
};
closed = 1;
nodes = (
(349,864,l),
(349,908,l),
(105,908,l),
(105,864,l)
);
}
);
width = 484.33333;
},
{
attr = {
color = "1";
};
layerId = "0A98D1B9-7B82-4B4E-AB5F-E1C30C6E6C41";
shapes = (
{
alignment = -1;
ref = O;
},
{
attr = {
gradient = {
colors = (
(
(64,255),
0
),
(
(191,255),
1
)
);
end = (0.9046,0.1295);
start = (0.0915,0.6397);
};
identifier = ID0x6000041910a0;
};
closed = 1;
nodes = (
(207,754,l),
(207,819,l),
(135,812,l),
(135,754,l)
);
},
{
attr = {
gradient = {
colors = (
(
(64,255),
0
),
(
(191,255),
1
)
);
end = (0.9257,0.9422);
start = (0.0908,0.6871);
};
identifier = ID0x6000041910a0;
};
closed = 1;
nodes = (
(408,777,l),
(408,840,l),
(336,840,l),
(336,767,l)
);
},
{
attr = {
gradient = {
colors = (
(
(191,255),
0
),
(
(64,255),
0.52095
),
(
(191,255),
1
)
);
end = (0.2444,0.9394);
start = (0.7904,0.088);
};
identifier = ID0x6000041910a0;
};
closed = 1;
nodes = (
(352,750,l),
(408,777,l),
(408,788,l),
(201,843,l),
(200,843,l),
(135,813,l),
(135,807,l),
(351,750,l)
);
},
{
attr = {
gradient = {
colors = (
(
(191,255),
0
),
(
(64,255),
1
)
);
end = (0.9468,0.6727);
start = (0.0842,0.1543);
};
identifier = ID0x60000065c0e0;
};
closed = 1;
nodes = (
(419,873,l),
(419,926,l),
(129,926,l),
(129,873,l)
);
}
);
width = 590;
},
{
attr = {
color = "1";
};
layerId = "7599F073-2954-4FFC-B8EF-B2010DD53262";
shapes = (
{
alignment = -1;
ref = O;
},
{
attr = {
gradient = {
colors = (
(
(64,255),
0
),
(
(191,255),
1
)
);
end = (0.9046,0.1295);
start = (0.0915,0.6397);
};
identifier = ID0x6000041910a0;
};
closed = 1;
nodes = (
(226,755,l),
(226,822,l),
(146,814,l),
(146,755,l)
);
},
{
attr = {
gradient = {
colors = (
(
(64,255),
0
),
(
(191,255),
1
)
);
end = (0.9257,0.9422);
start = (0.0908,0.6871);
};
identifier = ID0x6000041910a0;
};
closed = 1;
nodes = (
(445,780,l),
(445,845,l),
(365,845,l),
(365,769,l)
);
},
{
attr = {
gradient = {
colors = (
(
(191,255),
0
),
(
(64,255),
0.52095
),
(
(191,255),
1
)
);
end = (0.2444,0.9394);
start = (0.7904,0.088);
};
identifier = ID0x6000041910a0;
};
closed = 1;
nodes = (
(383,750,l),
(445,780,l),
(445,793,l),
(219,848,l),
(218,848,l),
(146,815,l),
(146,808,l),
(382,750,l)
);
},
{
attr = {
gradient = {
colors = (
(
(191,255),
0
),
(
(64,255),
1
)
);
end = (0.9468,0.6727);
start = (0.0842,0.1543);
};
identifier = ID0x60000065c0e0;
};
closed = 1;
nodes = (
(454,877,l),
(454,935,l),
(141,935,l),
(141,877,l)
);
}
);
width = 642.83333;
},
{
attr = {
color = "1";
};
layerId = "5E49A2BD-5AA6-4751-9DCC-F05514CFF0B0";
shapes = (
{
alignment = -1;
ref = O;
},
{
attr = {
gradient = {
colors = (
(
(64,255),
0
),
(
(191,255),
1
)
);
end = (0.9046,0.1295);
start = (0.0915,0.6397);
};
identifier = ID0x6000041910a0;
};
closed = 1;
nodes = (
(263,756,l),
(263,827,l),
(167,818,l),
(167,756,l)
);
},
{
attr = {
gradient = {
colors = (
(
(64,255),
0
),
(
(191,255),
1
)
);
end = (0.9257,0.9422);
start = (0.0908,0.6871);
};
identifier = ID0x6000041910a0;
};
closed = 1;
nodes = (
(518,786,l),
(518,855,l),
(422,855,l),
(422,772,l)
);
},
{
attr = {
gradient = {
colors = (
(
(191,255),
0
),
(
(64,255),
0.52095
),
(
(191,255),
1
)
);
end = (0.2444,0.9394);
start = (0.7904,0.088);
};
identifier = ID0x6000041910a0;
};
closed = 1;
nodes = (
(444,750,l),
(518,786,l),
(518,803,l),
(255,858,l),
(254,858,l),
(167,819,l),
(167,810,l),
(443,750,l)
);
},
{
attr = {
gradient = {
colors = (
(
(191,255),
0
),
(
(64,255),
1
)
);
end = (0.9468,0.6727);
start = (0.0842,0.1543);
};
identifier = ID0x60000065c0e0;
};
closed = 1;
nodes = (
(524,885,l),
(524,953,l),
(164,953,l),
(164,885,l)
);
}
);
width = 748.5;
}
);
unicode = 556;
},
